<svg width="200" height="200" viewBox="0 0 200 200" fill="none" xmlns="http://www.w3.org/2000/svg">
<path d="M102.427 0.435988L95.9192 2.30584L15.7437 25.3429L9.23606 27.2128C6.07733 28.1246 3.37219 30.3953 1.71415 33.5267C0.0560993 36.658 -0.419459 40.3943 0.391804 43.9159L28.6104 165.839C29.4288 169.358 31.4667 172.372 34.2771 174.22C37.0874 176.067 40.4407 176.597 43.6013 175.693L43.6181 175.688L136.775 148.921L136.792 148.917C139.951 148.005 142.656 145.734 144.314 142.603C145.972 139.471 146.448 135.735 145.636 132.213L117.418 10.2904C116.599 6.77092 114.562 3.75682 111.751 1.90939C108.941 0.0619593 105.587 -0.467925 102.427 0.435988Z" fill="#F2F2F2"/>
<path d="M103.312 4.25864L95.6042 6.47336L17.8289 28.8208L10.1211 31.0355C7.87172 31.6848 5.94532 33.3018 4.76458 35.5317C3.58384 37.7616 3.24518 40.4223 3.8229 42.9301L32.0415 164.853C32.6243 167.36 34.0755 169.506 36.0769 170.822C38.0782 172.137 40.4662 172.514 42.7169 171.871L42.7337 171.866L135.891 145.099L135.908 145.094C138.157 144.445 140.084 142.828 141.264 140.598C142.445 138.368 142.784 135.707 142.206 133.199L113.987 11.2762C113.405 8.76992 111.953 6.62352 109.952 5.30793C107.951 3.99233 105.563 3.61497 103.312 4.25864Z" fill="white"/>
<path d="M97.4915 43.7406L50.3655 57.2815C49.8392 57.4327 49.2805 57.3448 48.8123 57.037C48.3441 56.7293 48.0049 56.2269 47.8691 55.6404C47.7334 55.054 47.8123 54.4315 48.0885 53.9098C48.3647 53.3882 48.8156 53.0102 49.3419 52.8589L96.4679 39.3181C96.9941 39.1674 97.5524 39.2557 98.0202 39.5635C98.4879 39.8713 98.8269 40.3735 98.9625 40.9596C99.0982 41.5457 99.0195 42.1679 98.7436 42.6893C98.4678 43.2108 98.0174 43.5889 97.4915 43.7406Z" fill="#F2F2F2"/>
<path d="M107.405 48.8513L52.0926 64.7445C51.5662 64.8957 51.0075 64.8078 50.5393 64.5C50.0712 64.1923 49.7319 63.6899 49.5962 63.1034C49.4604 62.517 49.5394 61.8944 49.8156 61.3728C50.0918 60.8512 50.5426 60.4732 51.069 60.3219L106.381 44.4288C106.907 44.2776 107.466 44.3655 107.934 44.6732C108.403 44.981 108.742 45.4834 108.878 46.0698C109.013 46.6563 108.934 47.2788 108.658 47.8004C108.382 48.3221 107.931 48.7001 107.405 48.8513Z" fill="#F2F2F2"/>
<path d="M105.232 77.186L58.1058 90.7269C57.8451 90.8018 57.5738 90.8188 57.3073 90.7768C57.0408 90.7349 56.7843 90.6349 56.5525 90.4825C56.3207 90.3301 56.1181 90.1283 55.9563 89.8887C55.7945 89.6491 55.6766 89.3763 55.6094 89.0859C55.5422 88.7955 55.5269 88.4932 55.5646 88.1963C55.6022 87.8993 55.692 87.6135 55.8287 87.3553C55.9655 87.097 56.1466 86.8712 56.3617 86.6909C56.5767 86.5106 56.8216 86.3793 57.0822 86.3044L104.208 72.7635C104.469 72.6886 104.74 72.6717 105.007 72.7136C105.273 72.7555 105.53 72.8556 105.762 73.0079C105.993 73.1603 106.196 73.3621 106.358 73.6017C106.52 73.8414 106.638 74.1141 106.705 74.4045C106.772 74.6949 106.787 74.9972 106.75 75.2942C106.712 75.5911 106.622 75.8769 106.485 76.1352C106.349 76.3934 106.168 76.6192 105.953 76.7995C105.737 76.9798 105.493 77.1112 105.232 77.186Z" fill="#F2F2F2"/>
<path d="M115.146 82.2969L59.8333 98.19C59.5727 98.2649 59.3014 98.2818 59.0349 98.2399C58.7683 98.198 58.5119 98.0979 58.2801 97.9456C58.0483 97.7932 57.8456 97.5914 57.6838 97.3518C57.522 97.1122 57.4041 96.8394 57.3369 96.549C57.2697 96.2586 57.2545 95.9563 57.2921 95.6594C57.3298 95.3624 57.4195 95.0766 57.5563 94.8184C57.693 94.5601 57.8741 94.3343 58.0892 94.154C58.3043 93.9737 58.5491 93.8424 58.8097 93.7675L114.122 77.8744C114.649 77.7231 115.207 77.811 115.675 78.1188C116.144 78.4265 116.483 78.9289 116.619 79.5154C116.754 80.1018 116.675 80.7244 116.399 81.246C116.123 81.7676 115.672 82.1457 115.146 82.2969Z" fill="#F2F2F2"/>
<path d="M112.972 110.631L65.8461 124.172C65.3199 124.323 64.7615 124.235 64.2936 123.927C63.8258 123.619 63.4867 123.117 63.3511 122.531C63.2154 121.945 63.2942 121.322 63.5701 120.801C63.846 120.279 64.2965 119.901 64.8225 119.75L111.948 106.209C112.475 106.058 113.034 106.146 113.502 106.453C113.97 106.761 114.309 107.264 114.445 107.85C114.581 108.436 114.502 109.059 114.225 109.581C113.949 110.102 113.498 110.48 112.972 110.631Z" fill="#F2F2F2"/>
<path d="M122.887 115.742L67.5743 131.635C67.3136 131.711 67.0421 131.728 66.7755 131.686C66.5088 131.644 66.2521 131.544 66.0201 131.392C65.7881 131.24 65.5853 131.038 65.4234 130.798C65.2614 130.558 65.1434 130.285 65.0762 129.995C65.0089 129.704 64.9937 129.402 65.0314 129.105C65.0692 128.808 65.1591 128.522 65.296 128.263C65.433 128.005 65.6143 127.779 65.8295 127.599C66.0448 127.419 66.2899 127.288 66.5507 127.213L121.863 111.32C122.39 111.169 122.948 111.256 123.416 111.564C123.885 111.872 124.224 112.374 124.36 112.961C124.495 113.547 124.416 114.17 124.14 114.691C123.864 115.213 123.413 115.591 122.887 115.742Z" fill="#F2F2F2"/>
<path d="M42.3205 71.1657L25.6431 75.9576C25.3907 76.0298 25.123 75.9875 24.8986 75.84C24.6742 75.6925 24.5114 75.4518 24.4461 75.1708L20.6178 58.63C20.553 58.3488 20.591 58.0505 20.7234 57.8004C20.8558 57.5504 21.0718 57.3691 21.324 57.2963L38.0014 52.5043C38.2538 52.4321 38.5215 52.4744 38.7459 52.6219C38.9703 52.7694 39.1331 53.0101 39.1984 53.2911L43.0267 69.8319C43.0915 70.1131 43.0535 70.4115 42.9211 70.6615C42.7887 70.9116 42.5727 71.0929 42.3205 71.1657Z" fill="#E6E6E6"/>
<path d="M50.0602 104.611L33.3828 109.403C33.1305 109.475 32.8627 109.433 32.6383 109.285C32.4139 109.138 32.2512 108.897 32.1858 108.616L28.3576 92.0754C28.2928 91.7942 28.3308 91.4959 28.4631 91.2459C28.5955 90.9958 28.8115 90.8145 29.0638 90.7417L45.7411 85.9497C45.9935 85.8775 46.2612 85.9198 46.4856 86.0674C46.71 86.2149 46.8728 86.4556 46.9381 86.7366L50.7664 103.277C50.8311 103.559 50.7932 103.857 50.6608 104.107C50.5284 104.357 50.3124 104.538 50.0602 104.611Z" fill="#E6E6E6"/>
<path d="M57.8021 138.057L41.1246 142.849C40.8722 142.921 40.6044 142.878 40.38 142.731C40.1556 142.583 39.9929 142.343 39.9276 142.062L36.0993 125.521C36.0345 125.24 36.0724 124.941 36.2048 124.691C36.3372 124.441 36.5532 124.26 36.8055 124.187L53.483 119.395C53.7353 119.323 54.0031 119.365 54.2275 119.513C54.4519 119.66 54.6146 119.901 54.68 120.182L58.5083 136.723C58.5731 137.004 58.5351 137.302 58.4027 137.552C58.2703 137.802 58.0543 137.984 57.8021 138.057Z" fill="#E6E6E6"/>
<path d="M167.422 31.3422H71.182C67.919 31.3463 64.7906 32.7924 62.4833 35.3632C60.176 37.934 58.8782 41.4197 58.8745 45.0554V170.967C58.8782 174.603 60.176 178.089 62.4833 180.66C64.7906 183.23 67.919 184.677 71.182 184.681H167.422C170.685 184.677 173.813 183.23 176.12 180.66C178.428 178.089 179.725 174.603 179.729 170.967V45.0554C179.725 41.4197 178.428 37.934 176.12 35.3632C173.813 32.7924 170.685 31.3463 167.422 31.3422Z" fill="#E6E6E6"/>
<path d="M167.423 35.2899H71.1829C68.8592 35.2928 66.6315 36.3226 64.9884 38.1534C63.3453 39.9841 62.4211 42.4663 62.4185 45.0554V170.967C62.4211 173.557 63.3453 176.039 64.9884 177.869C66.6315 179.7 68.8592 180.73 71.1829 180.733H167.423C169.746 180.73 171.974 179.7 173.617 177.869C175.26 176.039 176.184 173.556 176.187 170.967V45.0554C176.184 42.4663 175.26 39.9842 173.617 38.1534C171.974 36.3227 169.746 35.2928 167.423 35.2899Z" fill="white"/>
<path d="M177.532 200C189.939 200 199.998 188.792 199.998 174.967C199.998 161.142 189.939 149.934 177.532 149.934C165.124 149.934 155.065 161.142 155.065 174.967C155.065 188.792 165.124 200 177.532 200Z" fill="#124612"/>
<path d="M188.279 171.702H180.465V162.995C180.465 162.129 180.156 161.298 179.607 160.686C179.057 160.074 178.312 159.73 177.534 159.73C176.757 159.73 176.012 160.074 175.462 160.686C174.913 161.298 174.604 162.129 174.604 162.995V171.702H166.789C166.012 171.702 165.267 172.046 164.717 172.658C164.168 173.271 163.859 174.101 163.859 174.967C163.859 175.833 164.168 176.664 164.717 177.276C165.267 177.888 166.012 178.232 166.789 178.232H174.604V186.939C174.604 187.805 174.913 188.636 175.462 189.248C176.012 189.861 176.757 190.205 177.534 190.205C178.312 190.205 179.057 189.861 179.607 189.248C180.156 188.636 180.465 187.805 180.465 186.939V178.232H188.279C189.057 178.232 189.802 177.888 190.352 177.276C190.901 176.664 191.21 175.833 191.21 174.967C191.21 174.101 190.901 173.271 190.352 172.658C189.802 172.046 189.057 171.702 188.279 171.702Z" fill="white"/>
<path d="M152.939 104.478H104.271C104.002 104.478 103.735 104.42 103.486 104.305C103.237 104.19 103.011 104.022 102.82 103.81C102.63 103.598 102.479 103.346 102.375 103.069C102.272 102.792 102.219 102.495 102.219 102.194C102.219 101.894 102.272 101.597 102.375 101.32C102.479 101.043 102.63 100.791 102.82 100.579C103.011 100.367 103.237 100.199 103.486 100.084C103.735 99.9694 104.002 99.9106 104.271 99.9109H152.939C153.482 99.9116 154.003 100.152 154.387 100.581C154.77 101.009 154.986 101.589 154.986 102.194C154.986 102.8 154.77 103.38 154.387 103.808C154.003 104.237 153.482 104.477 152.939 104.478Z" fill="#E6E6E6"/>
<path d="M161.393 112.185H104.271C104.002 112.185 103.735 112.127 103.486 112.012C103.237 111.897 103.011 111.729 102.82 111.517C102.63 111.305 102.479 111.053 102.375 110.776C102.272 110.499 102.219 110.202 102.219 109.902C102.219 109.602 102.272 109.304 102.375 109.027C102.479 108.75 102.63 108.498 102.82 108.286C103.011 108.074 103.237 107.906 103.486 107.791C103.735 107.677 104.002 107.618 104.271 107.618H161.393C161.937 107.618 162.458 107.859 162.842 108.287C163.227 108.715 163.443 109.296 163.443 109.902C163.443 110.507 163.227 111.088 162.842 111.516C162.458 111.945 161.937 112.185 161.393 112.185Z" fill="#E6E6E6"/>
<path d="M152.939 139.018H104.271C104.002 139.018 103.735 138.959 103.486 138.845C103.237 138.73 103.011 138.562 102.82 138.35C102.63 138.138 102.479 137.886 102.375 137.609C102.272 137.332 102.219 137.034 102.219 136.734C102.219 136.434 102.272 136.137 102.375 135.86C102.479 135.583 102.63 135.331 102.82 135.119C103.011 134.907 103.237 134.739 103.486 134.624C103.735 134.509 104.002 134.45 104.271 134.451H152.939C153.482 134.451 154.004 134.691 154.388 135.12C154.772 135.548 154.988 136.129 154.988 136.734C154.988 137.34 154.772 137.921 154.388 138.349C154.004 138.777 153.482 139.018 152.939 139.018Z" fill="#E6E6E6"/>
<path d="M161.393 146.725H104.271C104.002 146.725 103.735 146.666 103.486 146.552C103.237 146.437 103.011 146.269 102.82 146.057C102.63 145.845 102.479 145.593 102.375 145.316C102.272 145.039 102.219 144.741 102.219 144.441C102.219 144.141 102.272 143.844 102.375 143.567C102.479 143.29 102.63 143.038 102.82 142.826C103.011 142.614 103.237 142.445 103.486 142.331C103.735 142.216 104.002 142.157 104.271 142.158H161.393C161.662 142.157 161.929 142.216 162.178 142.331C162.427 142.445 162.653 142.614 162.844 142.826C163.034 143.038 163.186 143.29 163.289 143.567C163.392 143.844 163.445 144.141 163.445 144.441C163.445 144.741 163.392 145.039 163.289 145.316C163.186 145.593 163.034 145.845 162.844 146.057C162.653 146.269 162.427 146.437 162.178 146.552C161.929 146.666 161.662 146.725 161.393 146.725Z" fill="#E6E6E6"/>
<path d="M93.3679 115.684H76.1449C75.8843 115.684 75.6345 115.568 75.4503 115.363C75.266 115.158 75.1624 114.879 75.1621 114.589V97.5072C75.1624 97.2169 75.266 96.9386 75.4503 96.7333C75.6345 96.528 75.8843 96.4125 76.1449 96.4122H93.3679C93.6285 96.4125 93.8783 96.528 94.0625 96.7333C94.2467 96.9386 94.3504 97.2169 94.3507 97.5072V114.589C94.3504 114.879 94.2467 115.158 94.0625 115.363C93.8783 115.568 93.6285 115.684 93.3679 115.684Z" fill="#E6E6E6"/>
<path d="M93.3679 150.224H76.1449C75.8843 150.223 75.6345 150.108 75.4503 149.903C75.266 149.697 75.1624 149.419 75.1621 149.129V132.047C75.1624 131.756 75.266 131.478 75.4503 131.273C75.6345 131.068 75.8843 130.952 76.1449 130.952H93.3679C93.6285 130.952 93.8783 131.068 94.0625 131.273C94.2467 131.478 94.3504 131.756 94.3507 132.047V149.129C94.3504 149.419 94.2467 149.697 94.0625 149.903C93.8783 150.108 93.6285 150.223 93.3679 150.224Z" fill="#E6E6E6"/>
<path d="M152.993 66.0286H117.112C116.568 66.0286 116.047 65.7879 115.663 65.3597C115.278 64.9314 115.062 64.3505 115.062 63.7449C115.062 63.1392 115.278 62.5583 115.663 62.1301C116.047 61.7018 116.568 61.4612 117.112 61.4612H152.993C153.536 61.4612 154.058 61.7018 154.442 62.1301C154.826 62.5583 155.042 63.1392 155.042 63.7449C155.042 64.3505 154.826 64.9314 154.442 65.3597C154.058 65.7879 153.536 66.0286 152.993 66.0286Z" fill="#CCCCCC"/>
<path d="M161.447 73.7359H117.112C116.843 73.7359 116.576 73.6769 116.328 73.5621C116.079 73.4473 115.853 73.2791 115.663 73.0671C115.472 72.855 115.322 72.6033 115.219 72.3262C115.116 72.0491 115.062 71.7522 115.062 71.4523C115.062 71.1524 115.116 70.8555 115.219 70.5784C115.322 70.3013 115.472 70.0496 115.663 69.8375C115.853 69.6255 116.079 69.4573 116.328 69.3425C116.576 69.2278 116.843 69.1687 117.112 69.1687H161.447C161.991 69.1687 162.512 69.4093 162.896 69.8375C163.281 70.2658 163.497 70.8467 163.497 71.4523C163.497 72.058 163.281 72.6388 162.896 73.0671C162.512 73.4953 161.991 73.7359 161.447 73.7359Z" fill="#CCCCCC"/>
<path d="M109.17 83.076H76.0912C75.8306 83.0757 75.5808 82.9602 75.3966 82.755C75.2123 82.5497 75.1087 82.2713 75.1084 81.981V53.2162C75.1087 52.9259 75.2123 52.6476 75.3966 52.4423C75.5808 52.237 75.8306 52.1215 76.0912 52.1212H109.17C109.431 52.1215 109.681 52.237 109.865 52.4423C110.049 52.6476 110.153 52.9259 110.153 53.2162V81.981C110.153 82.2713 110.049 82.5497 109.865 82.755C109.681 82.9602 109.431 83.0757 109.17 83.076Z" fill="#124612"/>
</svg>
