<svg width="300" height="200" viewBox="0 0 300 200" fill="none" xmlns="http://www.w3.org/2000/svg">
<g clip-path="url(#clip0)">
<path d="M288.274 133.844C286.107 136.227 283.421 138 280.506 139.377H280.502C280.228 139.508 279.954 139.635 279.676 139.756H279.672L279.669 139.759L279.665 139.756H279.662C279.662 139.756 279.662 139.757 279.662 139.757C279.661 139.758 279.661 139.758 279.661 139.758C279.66 139.759 279.66 139.759 279.66 139.759C279.659 139.759 279.659 139.759 279.658 139.759H279.655L279.651 139.756C279.648 139.759 279.648 139.759 279.644 139.756L279.641 139.759L279.637 139.756H279.634C279.63 139.759 279.63 139.759 279.627 139.756H279.623C277.672 140.605 275.668 141.327 273.624 141.915C261.604 145.348 248.971 146.012 236.662 143.858C236.426 143.816 236.194 143.773 235.958 143.731V115.019C236.191 114.92 236.426 114.821 236.662 114.726C238.199 114.085 239.754 113.496 241.328 112.959C243.593 112.181 245.889 111.513 248.217 110.956C255.812 109.105 263.648 108.467 271.44 109.065C272.857 109.172 274.271 109.325 275.681 109.526C278.631 109.94 281.726 110.662 284.448 111.915H284.451C284.849 112.103 285.239 112.297 285.626 112.506C288.045 113.827 290.085 115.643 291.329 118.131C291.777 119.025 292.099 119.977 292.286 120.959V120.966C292.356 121.306 292.406 121.65 292.444 121.989C292.887 126.181 291.161 130.665 288.274 133.844Z" fill="#F2F2F2"/>
<path d="M292.444 121.989C292.41 121.998 292.374 122.003 292.339 122.004C286.315 122.269 280.299 122.663 274.292 123.186H274.281C274.257 123.189 274.236 123.189 274.211 123.193C268.043 123.731 261.888 124.405 255.746 125.214C255.486 125.25 255.229 125.285 254.972 125.317C250.724 125.887 246.485 126.519 242.253 127.214C240.386 127.522 238.522 127.843 236.662 128.177C236.426 128.22 236.194 128.258 235.958 128.304V127.232C236.194 127.186 236.43 127.147 236.662 127.104C242.858 126 249.075 125.036 255.313 124.212C256.882 124 258.452 123.799 260.025 123.611C264.569 123.058 269.119 122.582 273.677 122.181C274.011 122.152 274.341 122.124 274.675 122.096C280.509 121.596 286.351 121.218 292.202 120.959C292.23 120.958 292.258 120.96 292.286 120.966C292.849 121.016 292.968 121.866 292.444 121.989Z" fill="white"/>
<path d="M279.934 138.713C272.43 138.768 265.037 135.565 259.729 130.263C258.231 128.762 256.911 127.09 255.796 125.283C255.438 124.705 254.601 125.342 254.956 125.915C259.078 132.57 265.945 137.311 273.515 139.054C275.665 139.544 277.865 139.781 280.069 139.76C280.742 139.755 280.602 138.708 279.934 138.713V138.713Z" fill="white"/>
<path d="M248.217 110.956C248.185 111.055 248.127 111.145 248.05 111.215C247.973 111.285 247.879 111.334 247.777 111.356C246.058 111.809 244.396 112.463 242.826 113.303C240.534 114.521 238.452 116.105 236.662 117.993C236.567 118.089 236.475 118.184 236.388 118.283C236.24 118.439 236.099 118.598 235.958 118.761V117.218C236.184 116.977 236.419 116.74 236.662 116.513C238.075 115.151 239.641 113.958 241.328 112.959C243.593 112.181 245.889 111.513 248.217 110.956Z" fill="white"/>
<path d="M285.069 111.636C280.296 113.701 276.301 117.246 273.668 121.755C273.615 121.884 273.614 122.029 273.666 122.158C273.718 122.288 273.819 122.391 273.947 122.446C274.075 122.497 274.218 122.497 274.346 122.445C274.474 122.392 274.577 122.293 274.634 122.166C277.147 117.908 280.939 114.563 285.463 112.614C286.084 112.347 285.691 111.369 285.069 111.636L285.069 111.636Z" fill="white"/>
<path d="M299.46 81.5717C298.644 84.6939 297.079 87.5222 295.135 90.1027L295.131 90.1062C294.951 90.347 294.765 90.5912 294.572 90.8248V90.8284C293.222 92.5027 291.764 94.086 290.208 95.5682C284.614 100.934 278.296 105.478 271.44 109.066C260.655 114.736 248.6 118.089 236.662 118.28C236.57 118.283 236.479 118.283 236.388 118.283C236.243 118.287 236.099 118.287 235.958 118.287V102.198C236.187 101.759 236.423 101.32 236.662 100.885C239.764 95.2654 243.548 90.0551 247.925 85.3735C248.031 85.2567 248.14 85.1399 248.249 85.0266C249.894 83.2779 251.62 81.613 253.425 80.0319C260.37 73.8854 268.395 69.1011 277.088 65.9257C279.89 64.9133 282.964 64.1027 285.953 63.9434C286.392 63.9186 286.828 63.908 287.268 63.9116C290.021 63.9505 292.662 64.6054 294.916 66.2266C295.724 66.8102 296.448 67.5021 297.069 68.2832C297.286 68.5558 297.487 68.8354 297.68 69.1222V69.1257C300.008 72.6301 300.55 77.4054 299.46 81.5717Z" fill="#F2F2F2"/>
<path d="M297.68 69.1221V69.1256C297.654 69.1485 297.626 69.1687 297.596 69.1858C292.391 72.2336 287.253 75.3923 282.179 78.6619C282.172 78.6655 282.169 78.669 282.162 78.6725C282.142 78.6868 282.121 78.6998 282.099 78.7115C276.884 82.0743 271.742 85.5504 266.675 89.1398C266.464 89.2885 266.25 89.4407 266.035 89.5929C262.536 92.0814 259.074 94.623 255.648 97.2177C249.177 102.124 242.848 107.212 236.662 112.481C236.426 112.68 236.194 112.881 235.958 113.083V111.706C236.191 111.504 236.426 111.303 236.662 111.104C239.032 109.09 241.423 107.104 243.835 105.147C244.556 104.563 245.281 103.979 246.005 103.402C252.44 98.2442 259.02 93.279 265.743 88.5062H265.747C267.069 87.5681 268.394 86.6383 269.72 85.7168C273.49 83.1044 277.302 80.5545 281.156 78.0672C281.434 77.8867 281.715 77.7062 281.997 77.5256C286.93 74.354 291.929 71.2861 296.991 68.3221C297.016 68.307 297.042 68.294 297.069 68.2832C297.596 68.0708 298.092 68.7716 297.68 69.1221Z" fill="white"/>
<path d="M294.321 89.7818C287.701 93.3399 279.676 93.9604 272.529 91.7473C270.51 91.1178 268.57 90.2548 266.748 89.1758C266.165 88.8316 265.717 89.787 266.296 90.1283C273.017 94.0941 281.286 95.0815 288.795 93.0851C290.925 92.5141 292.982 91.6955 294.924 90.6458C295.517 90.3268 294.911 89.4649 294.321 89.7818V89.7818Z" fill="white"/>
<path d="M244.792 102.733C244.464 100.88 244.351 98.9952 244.457 97.116C244.693 92.8302 245.997 88.6731 248.248 85.0272C249.895 83.2791 251.621 81.614 253.425 80.0317C253.442 80.1352 253.432 80.2414 253.396 80.3398C253.36 80.4381 253.299 80.5253 253.219 80.5927C251.906 81.7988 250.737 83.1538 249.734 84.6308C246.151 89.8946 244.752 96.359 245.836 102.646C245.854 102.717 245.853 102.792 245.834 102.863C245.814 102.933 245.777 102.998 245.726 103.05C245.651 103.116 245.56 103.161 245.462 103.181C245.364 103.2 245.263 103.194 245.169 103.162C245.074 103.13 244.989 103.073 244.923 102.998C244.857 102.923 244.812 102.832 244.792 102.733Z" fill="white"/>
<path d="M286.373 63.4026C283.099 67.4636 281.198 72.4706 280.946 77.6946C280.959 77.8338 281.025 77.9625 281.131 78.0527C281.237 78.143 281.374 78.1876 281.512 78.1768C281.65 78.1619 281.776 78.0945 281.865 77.9884C281.954 77.8823 281.999 77.7457 281.991 77.607C282.252 72.6607 284.067 67.9256 287.174 64.0845C287.6 63.5578 286.801 62.8749 286.373 63.4026Z" fill="white"/>
<path d="M249.958 75.0336V75.0371C249.933 75.3416 249.905 75.6424 249.873 75.9433V75.9504C249.629 78.0921 249.247 80.2157 248.73 82.3079C248.484 83.3345 248.217 84.3539 247.925 85.3734C247.89 85.5044 247.851 85.6354 247.813 85.7628V85.7663C246.954 88.7313 245.928 91.6446 244.739 94.492C242.553 99.7344 239.847 104.741 236.662 109.437C236.433 109.78 236.198 110.124 235.958 110.464V55.03C236.194 55.0159 236.426 55.0159 236.662 55.023C236.774 55.023 236.887 55.0265 236.999 55.0336C237.992 55.0861 238.972 55.2779 239.911 55.6035C240.242 55.7132 240.562 55.8371 240.878 55.9752C244.715 57.6672 247.728 61.3982 249.036 65.5009C250.018 68.5734 250.214 71.8053 249.958 75.0336Z" fill="#F2F2F2"/>
<path d="M240.878 55.9752C240.87 56.0099 240.857 56.0433 240.839 56.0744C239.415 58.8602 238.023 61.6602 236.662 64.4743C236.426 64.9593 236.191 65.4478 235.958 65.9328V63.5257C236.191 63.0442 236.425 62.5628 236.662 62.0814C237.713 59.9363 238.782 57.8006 239.869 55.6744C239.881 55.6495 239.895 55.6258 239.911 55.6036C240.235 55.1363 241.036 55.4549 240.878 55.9752Z" fill="white"/>
<path d="M250.07 75.6035C250.007 75.7168 249.944 75.8301 249.873 75.9433C248.841 77.7547 247.612 79.4453 246.209 80.9841C243.515 83.9263 240.271 86.3045 236.662 87.9823C236.43 88.0956 236.194 88.2018 235.958 88.3009V87.1504C236.194 87.0442 236.43 86.9345 236.662 86.8212C241.886 84.313 246.225 80.26 249.1 75.2035C249.141 75.1313 249.198 75.0689 249.265 75.0206C249.333 74.9722 249.41 74.9391 249.491 74.9233C249.572 74.9075 249.656 74.9095 249.737 74.9292C249.817 74.9488 249.893 74.9856 249.958 75.0372C250.002 75.0669 250.04 75.1051 250.07 75.1497C250.1 75.1942 250.12 75.2443 250.131 75.2969C250.141 75.3495 250.141 75.4036 250.131 75.4562C250.12 75.5089 250.1 75.5589 250.07 75.6035Z" fill="white"/>
<path d="M236.661 11.6814V38.5841H235.958V38.2973H0.703303V38.5841H0V11.6814C0.00302011 8.58424 1.2266 5.6148 3.40221 3.42476C5.57782 1.23473 8.52772 0.00304013 11.6045 0H225.057C228.134 0.00304013 231.084 1.23473 233.259 3.42476C235.435 5.6148 236.658 8.58424 236.661 11.6814Z" fill="#124612"/>
<path d="M225.057 0H11.6045C8.52772 0.00304013 5.57782 1.23473 3.40221 3.42476C1.2266 5.6148 0.00302011 8.58424 0 11.6814V165.31C0.00302011 168.407 1.2266 171.376 3.40221 173.566C5.57782 175.756 8.52772 176.988 11.6045 176.991H225.057C228.134 176.988 231.084 175.756 233.259 173.566C235.435 171.376 236.658 168.407 236.661 165.31V11.6814C236.658 8.58424 235.435 5.6148 233.259 3.42476C231.084 1.23473 228.134 0.00304013 225.057 0ZM235.958 165.31C235.954 168.219 234.805 171.008 232.761 173.065C230.718 175.122 227.947 176.279 225.057 176.283H11.6045C8.71445 176.279 5.94383 175.122 3.90026 173.065C1.85669 171.008 0.70699 168.219 0.703303 165.31V11.6814C0.70699 8.77221 1.85669 5.98323 3.90026 3.92612C5.94383 1.869 8.71445 0.711677 11.6045 0.707965H225.057C227.947 0.711677 230.718 1.869 232.761 3.92612C234.805 5.98323 235.954 8.77221 235.958 11.6814V165.31Z" fill="#3F3D56"/>
<path d="M47.8245 26.3717C51.7088 26.3717 54.8576 23.202 54.8576 19.292C54.8576 15.3821 51.7088 12.2124 47.8245 12.2124C43.9403 12.2124 40.7915 15.3821 40.7915 19.292C40.7915 23.202 43.9403 26.3717 47.8245 26.3717Z" fill="white"/>
<path d="M188.837 26.3717C192.721 26.3717 195.87 23.202 195.87 19.292C195.87 15.3821 192.721 12.2124 188.837 12.2124C184.953 12.2124 181.804 15.3821 181.804 19.292C181.804 23.202 184.953 26.3717 188.837 26.3717Z" fill="white"/>
<path d="M68.1447 98.2308H26.3065C24.534 98.2287 22.8347 97.5191 21.5814 96.2574C20.3281 94.9958 19.6231 93.2852 19.6211 91.501V71.5957C19.6231 69.8115 20.3281 68.1009 21.5814 66.8393C22.8347 65.5777 24.534 64.868 26.3065 64.866H68.1447C69.9171 64.868 71.6164 65.5777 72.8697 66.8393C74.1231 68.1009 74.8281 69.8115 74.8301 71.5957V91.501C74.8281 93.2852 74.1231 94.9958 72.8697 96.2574C71.6164 97.5191 69.9171 98.2287 68.1447 98.2308Z" fill="#124612"/>
<path d="M139.319 98.2308H97.4808C95.7083 98.2287 94.0091 97.5191 92.7557 96.2574C91.5024 94.9958 90.7974 93.2852 90.7954 91.501V71.5957C90.7974 69.8115 91.5024 68.1009 92.7557 66.8393C94.0091 65.5777 95.7083 64.868 97.4808 64.866H139.319C141.091 64.868 142.791 65.5777 144.044 66.8393C145.297 68.1009 146.002 69.8115 146.004 71.5957V91.501C146.002 93.2852 145.297 94.9958 144.044 96.2574C142.791 97.5191 141.091 98.2287 139.319 98.2308Z" fill="#124612"/>
<path d="M139.318 149.661H97.4798C95.6536 149.659 93.9028 148.928 92.6115 147.628C91.3202 146.328 90.5939 144.566 90.5918 142.728V122.822C90.5939 120.984 91.3202 119.221 92.6115 117.922C93.9028 116.622 95.6536 115.891 97.4798 115.888H139.318C141.144 115.891 142.895 116.622 144.186 117.922C145.478 119.221 146.204 120.984 146.206 122.822V142.728C146.204 144.566 145.478 146.328 144.186 147.628C142.895 148.928 141.144 149.659 139.318 149.661Z" fill="#F2F2F2"/>
<path d="M68.0079 149.661H26.1697C24.3435 149.659 22.5927 148.928 21.3014 147.628C20.0101 146.328 19.2838 144.566 19.2817 142.728V122.822C19.2838 120.984 20.0101 119.221 21.3014 117.922C22.5927 116.622 24.3435 115.891 26.1697 115.888H68.0079C69.8341 115.891 71.5849 116.622 72.8762 117.922C74.1675 119.221 74.8938 120.984 74.8959 122.822V142.728C74.8938 144.566 74.1675 146.328 72.8762 147.628C71.5849 148.928 69.8341 149.659 68.0079 149.661Z" fill="#F2F2F2"/>
<path d="M210.492 149.661H168.654C166.827 149.659 165.077 148.928 163.785 147.628C162.494 146.328 161.768 144.566 161.766 142.728V122.822C161.768 120.984 162.494 119.221 163.785 117.922C165.077 116.622 166.827 115.891 168.654 115.888H210.492C212.318 115.891 214.069 116.622 215.36 117.922C216.651 119.221 217.378 120.984 217.38 122.822V142.728C217.378 144.566 216.651 146.328 215.36 147.628C214.069 148.928 212.318 149.659 210.492 149.661Z" fill="#F2F2F2"/>
<path d="M210.492 98.2708H168.654C166.827 98.2688 165.077 97.5376 163.785 96.2377C162.494 94.9379 161.768 93.1755 161.766 91.3372V71.4316C161.768 69.5934 162.494 67.831 163.785 66.5311C165.077 65.2312 166.827 64.5001 168.654 64.498H210.492C212.318 64.5001 214.069 65.2312 215.36 66.5311C216.651 67.831 217.378 69.5934 217.38 71.4316V91.3372C217.378 93.1755 216.651 94.9379 215.36 96.2377C214.069 97.5376 212.318 98.2688 210.492 98.2708Z" fill="#F2F2F2"/>
<path d="M47.2258 92.9685C53.4914 92.9685 58.5707 87.8556 58.5707 81.5484C58.5707 75.2413 53.4914 70.1283 47.2258 70.1283C40.9602 70.1283 35.8809 75.2413 35.8809 81.5484C35.8809 87.8556 40.9602 92.9685 47.2258 92.9685Z" fill="white"/>
<path d="M46.1013 85.9049C45.846 85.9054 45.5976 85.8223 45.3933 85.6682L45.3807 85.6586L42.7145 83.6038C42.5909 83.5086 42.4871 83.3898 42.4091 83.2543C42.331 83.1187 42.2803 82.969 42.2598 82.8137C42.2393 82.6583 42.2494 82.5005 42.2896 82.3491C42.3297 82.1977 42.3991 82.0558 42.4938 81.9314C42.5884 81.807 42.7065 81.7027 42.8413 81.6243C42.9761 81.5459 43.1248 81.495 43.2792 81.4745C43.4335 81.454 43.5903 81.4643 43.7406 81.5049C43.891 81.5454 44.0319 81.6154 44.1554 81.7108L45.8823 83.0438L49.9633 77.6863C50.0579 77.5621 50.1759 77.4578 50.3106 77.3794C50.4453 77.3011 50.594 77.2502 50.7482 77.2297C50.9024 77.2092 51.0592 77.2195 51.2094 77.26C51.3597 77.3005 51.5006 77.3704 51.624 77.4656L51.5986 77.5003L51.6246 77.4662C51.8736 77.6588 52.0366 77.943 52.0777 78.2564C52.1188 78.5698 52.0347 78.8868 51.8439 79.1379L47.0436 85.4396C46.9326 85.5848 46.7899 85.7023 46.6264 85.783C46.463 85.8637 46.2833 85.9054 46.1013 85.9049Z" fill="#124612"/>
<path d="M118.602 92.8045C124.868 92.8045 129.947 87.6915 129.947 81.3843C129.947 75.0772 124.868 69.9642 118.602 69.9642C112.337 69.9642 107.257 75.0772 107.257 81.3843C107.257 87.6915 112.337 92.8045 118.602 92.8045Z" fill="white"/>
<path d="M117.477 85.7409C117.222 85.7414 116.974 85.6583 116.769 85.5042L116.757 85.4946L114.091 83.4398C113.841 83.2475 113.678 82.9633 113.637 82.6498C113.595 82.3363 113.68 82.0191 113.871 81.7681C114.062 81.5171 114.344 81.3528 114.656 81.3113C114.967 81.2698 115.282 81.3545 115.531 81.5468L117.258 82.8798L121.339 77.5223C121.434 77.3981 121.552 77.2938 121.687 77.2154C121.821 77.1371 121.97 77.0862 122.124 77.0657C122.278 77.0452 122.435 77.0555 122.585 77.096C122.736 77.1365 122.877 77.2064 123 77.3016L122.975 77.3363L123.001 77.3022C123.25 77.4948 123.413 77.779 123.454 78.0924C123.495 78.4058 123.411 78.7228 123.22 78.9739L118.42 85.2756C118.309 85.4208 118.166 85.5383 118.002 85.619C117.839 85.6997 117.659 85.7414 117.477 85.7409Z" fill="#124612"/>
<path d="M195.276 135.274C195.649 134.864 195.928 134.376 196.093 133.846C196.258 133.316 196.306 132.755 196.233 132.204C196.16 131.653 195.967 131.125 195.669 130.657C195.371 130.189 194.975 129.792 194.509 129.495L188.175 95.4512L180.472 98.3265L189.12 130.886C188.676 131.708 188.547 132.666 188.757 133.578C188.968 134.489 189.503 135.292 190.262 135.833C191.021 136.374 191.95 136.615 192.874 136.513C193.799 136.41 194.653 135.969 195.276 135.274Z" fill="#A0616A"/>
<path d="M133.813 83.3275C133.832 83.5389 133.835 83.7515 133.821 83.9633L148.798 95.5667L153.045 93.8111L156.514 99.917L149.296 103.76C148.713 104.071 148.045 104.183 147.394 104.079C146.742 103.975 146.141 103.661 145.682 103.184L130.712 87.6484C129.919 87.8283 129.091 87.7611 128.338 87.4557C127.584 87.1503 126.941 86.6212 126.493 85.9387C126.046 85.2563 125.815 84.4529 125.832 83.6354C125.85 82.8178 126.114 82.0249 126.589 81.3621C127.065 80.6993 127.73 80.1979 128.496 79.9248C129.261 79.6516 130.091 79.6196 130.876 79.833C131.66 80.0463 132.361 80.495 132.886 81.1192C133.41 81.7435 133.734 82.5137 133.813 83.3275H133.813Z" fill="#A0616A"/>
<path d="M168.802 195.699H164.492L162.44 182.499L168.803 182.5L168.802 195.699Z" fill="#A0616A"/>
<path d="M169.902 199.906L156.001 199.905V199.728C156.001 199.013 156.141 198.305 156.413 197.644C156.685 196.983 157.083 196.383 157.586 195.877C158.088 195.371 158.685 194.97 159.341 194.696C159.998 194.423 160.701 194.282 161.412 194.282H161.412L169.902 194.282L169.902 199.906Z" fill="#2F2E41"/>
<path d="M184.978 195.699H180.667L178.616 182.499L184.979 182.5L184.978 195.699Z" fill="#A0616A"/>
<path d="M186.078 199.906L172.177 199.905V199.728C172.177 199.013 172.317 198.305 172.589 197.644C172.861 196.983 173.259 196.383 173.761 195.877C174.264 195.371 174.86 194.97 175.517 194.696C176.173 194.423 176.877 194.282 177.587 194.282H177.588L186.078 194.282L186.078 199.906Z" fill="#2F2E41"/>
<path d="M163.597 193.09C163.203 193.09 162.823 192.943 162.532 192.676C162.241 192.409 162.06 192.043 162.023 191.649L158.266 140.785L158.444 140.77L184.297 138.631L184.304 138.816L186.36 191.507C186.368 191.721 186.333 191.934 186.257 192.134C186.181 192.335 186.066 192.517 185.918 192.671C185.77 192.826 185.593 192.948 185.397 193.032C185.202 193.116 184.991 193.159 184.778 193.159H179.709C179.33 193.161 178.964 193.025 178.677 192.777C178.39 192.529 178.201 192.185 178.145 191.809L171.261 149.244C171.254 149.2 171.231 149.16 171.197 149.132C171.162 149.105 171.119 149.091 171.074 149.094C171.03 149.098 170.989 149.117 170.959 149.15C170.929 149.182 170.912 149.225 170.911 149.269L170.599 191.296C170.596 191.701 170.439 192.091 170.16 192.384C169.882 192.678 169.503 192.853 169.1 192.875L163.682 193.088C163.653 193.089 163.625 193.09 163.597 193.09Z" fill="#2F2E41"/>
<path d="M168.009 76.5045C172.779 76.5045 176.646 72.612 176.646 67.8104C176.646 63.0087 172.779 59.1162 168.009 59.1162C163.239 59.1162 159.372 63.0087 159.372 67.8104C159.372 72.612 163.239 76.5045 168.009 76.5045Z" fill="#A0616A"/>
<path d="M169.682 144.029C165.907 144.018 162.15 143.501 158.51 142.492C158.16 142.389 157.855 142.168 157.648 141.866C157.441 141.564 157.344 141.199 157.372 140.833C158.535 123.242 158.808 109.592 156.363 100.147C155.321 96.1212 155.794 91.8815 157.661 88.5149C160.471 83.4483 165.635 80.3646 171.144 80.4711C171.407 80.4761 171.673 80.4856 171.941 80.4995C180.301 80.9328 186.815 88.5457 186.462 97.4701L184.781 140.008C184.775 140.318 184.678 140.619 184.501 140.874C184.325 141.129 184.078 141.326 183.791 141.439C179.28 143.147 174.501 144.025 169.682 144.029Z" fill="#3F3D56"/>
<path d="M157.784 103.413L151.315 95.4323C151.131 95.2053 150.997 94.9409 150.924 94.6573C150.85 94.3737 150.839 94.0775 150.889 93.7889C150.94 93.5003 151.051 93.226 151.217 92.9848C151.382 92.7435 151.597 92.541 151.847 92.391L160.611 87.1343C161.77 86.1926 163.253 85.7522 164.735 85.9097C166.216 86.0671 167.575 86.8095 168.514 87.9742C169.452 89.1388 169.894 90.6305 169.741 92.1222C169.589 93.614 168.855 94.9839 167.7 95.9317L160.851 103.497C160.655 103.714 160.415 103.885 160.147 104C159.879 104.115 159.589 104.17 159.298 104.162C159.007 104.154 158.721 104.083 158.46 103.953C158.199 103.824 157.968 103.64 157.784 103.413Z" fill="#3F3D56"/>
<path d="M178.136 102.411C177.871 102.292 177.634 102.116 177.442 101.895C177.25 101.675 177.107 101.416 177.024 101.135L174.111 91.3276C173.479 89.9696 173.408 88.4146 173.913 87.0037C174.418 85.5928 175.458 84.4411 176.806 83.8014C178.153 83.1616 179.698 83.0859 181.101 83.5909C182.504 84.0959 183.65 85.1404 184.289 86.4952L189.922 95.0575C190.082 95.3019 190.189 95.5782 190.234 95.8678C190.279 96.1573 190.261 96.4532 190.183 96.7354C190.104 97.0175 189.965 97.2792 189.777 97.5027C189.589 97.7262 189.355 97.9062 189.091 98.0305L179.824 102.397C179.56 102.522 179.273 102.587 178.982 102.59C178.69 102.592 178.402 102.531 178.136 102.411Z" fill="#3F3D56"/>
<path d="M172.277 74.9442L165.875 73.4691C165.215 73.317 164.421 73.0267 164.33 72.351C164.207 71.443 165.505 70.8104 165.385 69.9019C165.269 69.022 164.087 68.9086 163.244 68.6489C162.458 68.3716 161.811 67.7976 161.439 67.0484C161.066 66.2991 160.998 65.4335 161.249 64.6346C160.337 65.9288 158.252 66.0396 157.069 64.9911C155.886 63.9426 155.659 62.0403 156.369 60.6238C156.753 59.928 157.295 59.3332 157.95 58.8879C158.605 58.4425 159.356 58.1591 160.14 58.0608C161.718 57.8807 163.313 58.18 164.72 58.9202C164.814 57.9172 166.058 57.5106 167.058 57.5016C169.137 57.526 171.157 58.2022 172.836 59.4359C174.515 60.6697 175.771 62.3998 176.428 64.3853C177.656 68.3684 176.834 72.7345 173.398 75.0649L172.277 74.9442Z" fill="#2F2E41"/>
<path d="M236.763 200H102.783C102.69 200 102.601 199.963 102.535 199.896C102.469 199.83 102.432 199.74 102.432 199.646C102.432 199.552 102.469 199.462 102.535 199.396C102.601 199.329 102.69 199.292 102.783 199.292H236.763C236.856 199.292 236.945 199.329 237.011 199.396C237.077 199.462 237.114 199.552 237.114 199.646C237.114 199.74 237.077 199.83 237.011 199.896C236.945 199.963 236.856 200 236.763 200Z" fill="#3F3D56"/>
</g>
<defs>
<clipPath id="clip0">
<rect width="300" height="200" fill="white"/>
</clipPath>
</defs>
</svg>
