<svg width="312" height="241" viewBox="0 0 312 241" fill="none" xmlns="http://www.w3.org/2000/svg">
<g clip-path="url(#clip0)">
<path d="M226.131 156.87L185.735 136.027C185.126 135.712 184.666 135.168 184.457 134.514C184.249 133.861 184.307 133.151 184.621 132.541L187.12 127.69C187.435 127.081 187.978 126.621 188.632 126.412C189.285 126.203 189.994 126.262 190.604 126.576L231 147.419C231.609 147.734 232.069 148.278 232.278 148.931C232.486 149.585 232.427 150.295 232.114 150.905L229.615 155.755C229.46 156.058 229.247 156.326 228.987 156.546C228.728 156.765 228.427 156.931 228.103 157.033C227.847 157.116 227.58 157.158 227.311 157.158C226.9 157.158 226.496 157.059 226.131 156.87Z" fill="#124612"/>
<path d="M213.815 137.372C214.134 137.248 214.475 137.188 214.817 137.197C215.159 137.206 215.496 137.283 215.808 137.424L229.047 144.75C230.495 145.55 231.581 146.878 232.08 148.457C232.579 150.036 232.452 151.747 231.727 153.236L231.561 153.155L231.727 153.236C231.033 154.658 229.843 155.777 228.38 156.379C226.918 156.982 225.285 157.027 223.792 156.505L209.435 151.483C209.124 151.346 208.843 151.149 208.608 150.903C208.374 150.657 208.19 150.367 208.067 150.049C207.945 149.732 207.886 149.394 207.894 149.054C207.902 148.714 207.977 148.379 208.115 148.068L212.383 138.739C212.458 138.57 212.55 138.41 212.658 138.261C212.95 137.859 213.352 137.55 213.815 137.372Z" fill="#2F2E41"/>
<path d="M244.275 135.134C255.196 135.134 264.049 126.275 264.049 115.346C264.049 104.418 255.196 95.5582 244.275 95.5582C233.354 95.5582 224.501 104.418 224.501 115.346C224.501 126.275 233.354 135.134 244.275 135.134Z" fill="#124612"/>
<path d="M241.849 238.412V192.929C241.849 192.243 242.122 191.585 242.607 191.1C243.092 190.615 243.749 190.342 244.435 190.341H249.888C250.574 190.342 251.231 190.615 251.716 191.1C252.201 191.585 252.473 192.243 252.474 192.929V238.412C252.473 239.098 252.201 239.756 251.716 240.241C251.231 240.726 250.574 240.999 249.888 241H244.435C243.749 240.999 243.092 240.726 242.607 240.241C242.122 239.756 241.849 239.098 241.849 238.412Z" fill="#124612"/>
<path d="M230.025 238.412V192.929C230.026 192.243 230.299 191.585 230.784 191.1C231.269 190.615 231.926 190.342 232.612 190.341H238.065C238.75 190.342 239.408 190.615 239.893 191.1C240.377 191.585 240.65 192.243 240.651 192.929V238.412C240.65 239.098 240.377 239.756 239.893 240.241C239.408 240.726 238.75 240.999 238.065 241H232.612C231.926 240.999 231.269 240.726 230.784 240.241C230.299 239.756 230.026 239.098 230.025 238.412Z" fill="#124612"/>
<path d="M244.69 122.68L244.711 121.941C243.336 121.903 242.124 121.816 241.214 121.15C240.956 120.951 240.743 120.698 240.591 120.409C240.44 120.12 240.352 119.802 240.334 119.476C240.318 119.277 240.348 119.077 240.422 118.891C240.496 118.706 240.611 118.54 240.76 118.406C241.364 117.895 242.337 118.06 243.046 118.386L243.657 118.666L242.485 110.092L241.753 110.192L242.75 117.486C241.787 117.203 240.894 117.325 240.283 117.841C240.048 118.046 239.864 118.303 239.745 118.591C239.625 118.879 239.574 119.191 239.595 119.502C239.617 119.94 239.734 120.368 239.938 120.756C240.143 121.144 240.429 121.482 240.778 121.748C241.948 122.603 243.469 122.646 244.69 122.68Z" fill="#2F2E41"/>
<path d="M238.133 110.821H234.153V111.561H238.133V110.821Z" fill="#2F2E41"/>
<path d="M250.694 110.821H246.714V111.561H250.694V110.821Z" fill="#2F2E41"/>
<path d="M263.197 200.455L256.358 155.49C256.256 154.812 256.426 154.12 256.833 153.568C257.239 153.015 257.848 152.646 258.526 152.542L263.917 151.721C264.595 151.619 265.286 151.789 265.838 152.196C266.39 152.603 266.759 153.212 266.863 153.89L273.702 198.855C273.804 199.534 273.634 200.225 273.227 200.778C272.821 201.331 272.212 201.699 271.534 201.803L266.143 202.624C265.807 202.676 265.465 202.661 265.135 202.579C264.805 202.498 264.494 202.353 264.221 202.151C263.947 201.95 263.716 201.696 263.54 201.405C263.365 201.114 263.248 200.791 263.197 200.455V200.455Z" fill="#124612"/>
<path d="M257.912 171.594C257.624 171.409 257.375 171.168 257.182 170.886C256.988 170.604 256.852 170.285 256.783 169.95L254.928 154.926C254.725 153.282 255.16 151.623 256.144 150.291C257.128 148.959 258.586 148.057 260.216 147.77L260.248 147.952L260.216 147.77C261.774 147.495 263.378 147.802 264.724 148.633C266.071 149.463 267.066 150.759 267.521 152.275L271.896 166.851C271.967 167.184 271.973 167.527 271.912 167.862C271.851 168.196 271.724 168.515 271.54 168.801C271.355 169.087 271.116 169.333 270.837 169.526C270.557 169.72 270.242 169.856 269.91 169.927L259.858 171.951C259.678 171.99 259.494 172.01 259.31 172.01C258.814 172.009 258.328 171.865 257.912 171.594Z" fill="#2F2E41"/>
<path d="M258.442 204.095H205.6C205.064 204.095 204.537 203.958 204.069 203.696C203.601 203.435 203.208 203.058 202.927 202.601C202.645 202.145 202.486 201.624 202.462 201.088C202.439 200.552 202.553 200.019 202.794 199.54L228.342 148.697C230.118 145.164 233.032 142.334 236.614 140.665C240.195 138.995 244.235 138.583 248.08 139.496C251.924 140.409 255.349 142.593 257.799 145.695C260.25 148.797 261.583 152.636 261.583 156.59V200.952C261.582 201.786 261.251 202.584 260.662 203.174C260.073 203.763 259.275 204.094 258.442 204.095Z" fill="#2F2E41"/>
<path d="M244.975 99.0207C240.928 99.9251 237.513 102.565 233.443 103.386C231.589 103.76 229.546 103.745 227.843 102.831C226.582 102.146 225.617 101.019 225.133 99.6667C224.655 98.2834 224.531 96.802 224.775 95.3586C225.018 93.9152 225.62 92.5561 226.525 91.4062C228.81 88.6075 232.452 87.3179 235.947 86.9544C242.941 86.2269 250.125 88.5334 255.818 92.5512C261.696 96.6996 266.205 102.929 267.718 110.018C268.526 113.808 268.447 117.839 267.066 121.488C265.738 124.98 263.125 127.831 259.762 129.454C258.96 129.842 258.123 130.154 257.262 130.386C257.125 130.429 257.01 130.523 256.941 130.65C256.872 130.776 256.855 130.924 256.894 131.063C256.932 131.202 257.022 131.32 257.146 131.393C257.27 131.466 257.417 131.489 257.557 131.455C261.338 130.422 264.6 128.018 266.708 124.712C268.873 121.245 269.6 117.002 269.266 112.969C268.621 105.168 264.334 97.9976 258.341 93.089C252.584 88.3732 245.137 85.504 237.649 85.7319C233.893 85.8463 229.995 86.8003 227.075 89.2768C225.816 90.3418 224.842 91.7031 224.24 93.2382C223.637 94.7734 223.425 96.4343 223.623 98.0717C223.791 99.6035 224.399 101.054 225.373 102.247C226.564 103.594 228.215 104.447 230.002 104.64C234.429 105.217 238.269 102.705 242.181 101.09C243.18 100.669 244.214 100.335 245.27 100.09C245.966 99.9348 245.671 98.8652 244.975 99.0207Z" fill="#2F2E41"/>
<path d="M256.097 91.1815C254.507 85.226 258.656 79.0277 264.293 77.1679C267.528 76.1599 270.998 76.1986 274.21 77.2786C277.341 78.3387 280.152 80.1756 282.382 82.6178C287.323 87.8785 289.512 94.9789 290.536 101.979C291.594 109.207 290.997 117.124 294.693 123.692C296.225 126.415 298.5 128.8 301.438 129.973C304.18 131.066 307.464 131.072 310.091 129.65C310.723 129.304 311.307 128.876 311.829 128.379C312.349 127.888 311.564 127.105 311.045 127.595C308.846 129.671 305.568 130.063 302.741 129.248C299.658 128.359 297.285 125.988 295.721 123.257C293.912 120.099 293.159 116.49 292.748 112.909C292.3 108.999 292.127 105.069 291.529 101.175C290.449 94.1526 288.115 87.1034 283.165 81.8334C280.901 79.3723 278.079 77.4928 274.936 76.3537C271.7 75.1942 268.194 75.0171 264.857 75.8444C261.825 76.6305 259.152 78.4293 257.281 80.9431C255.462 83.329 254.538 86.2776 254.668 89.2755C254.715 90.0192 254.836 90.7564 255.028 91.4764C255.071 91.6137 255.166 91.7289 255.292 91.7978C255.418 91.8666 255.566 91.8838 255.705 91.8455C255.843 91.8073 255.962 91.7167 256.035 91.5928C256.108 91.4689 256.13 91.3215 256.097 91.1815L256.097 91.1815Z" fill="#2F2E41"/>
<path d="M38.5205 141.609H6.28094C4.61571 141.608 3.01921 140.945 1.84171 139.766C0.664216 138.588 0.00187463 136.99 0 135.324V6.28554C0.00187463 4.61909 0.664216 3.02143 1.84171 1.84307C3.01921 0.664705 4.61571 0.001876 6.28094 0H93.7267L109.732 14.3008V40.3014H108.993V14.6319L93.4448 0.739475H6.28094C4.81162 0.741139 3.40295 1.32599 2.36398 2.36572C1.32502 3.40545 0.740596 4.81514 0.738934 6.28554V135.324C0.740596 136.794 1.32502 138.204 2.36398 139.244C3.40295 140.283 4.81162 140.868 6.28094 140.87H38.5205V141.609Z" fill="#CCCCCC"/>
<path d="M109.362 14.7895H99.3864C97.7212 14.7876 96.1247 14.1248 94.9472 12.9464C93.7697 11.7681 93.1073 10.1704 93.1055 8.50397V0.369738C93.1055 0.271677 93.1444 0.177633 93.2137 0.108293C93.283 0.0389541 93.3769 0 93.4749 0C93.5729 0 93.6669 0.0389541 93.7362 0.108293C93.8055 0.177633 93.8444 0.271677 93.8444 0.369738V8.50397C93.8461 9.97436 94.4305 11.3841 95.4695 12.4238C96.5084 13.4635 97.9171 14.0484 99.3864 14.05H109.362C109.46 14.05 109.554 14.089 109.623 14.1583C109.693 14.2277 109.731 14.3217 109.731 14.4198C109.731 14.5178 109.693 14.6119 109.623 14.6812C109.554 14.7506 109.46 14.7895 109.362 14.7895Z" fill="#CCCCCC"/>
<path d="M96.9999 33.4612H12.7614C11.9775 33.4612 11.2257 33.7729 10.6714 34.3276C10.1171 34.8823 9.80566 35.6347 9.80566 36.4191C9.80566 37.2036 10.1171 37.956 10.6714 38.5107C11.2257 39.0654 11.9775 39.3771 12.7614 39.3771H96.9999C97.7838 39.3771 98.5356 39.0654 99.0899 38.5107C99.6442 37.956 99.9556 37.2036 99.9556 36.4191C99.9556 35.6347 99.6442 34.8823 99.0899 34.3276C98.5356 33.7729 97.7838 33.4612 96.9999 33.4612Z" fill="#E6E6E6"/>
<path d="M54.5112 20.8902H12.7614C11.9775 20.8902 11.2257 21.2018 10.6714 21.7565C10.1171 22.3113 9.80566 23.0636 9.80566 23.8481C9.80566 24.6326 10.1171 25.3849 10.6714 25.9396C11.2257 26.4944 11.9775 26.806 12.7614 26.806H54.5112C55.2951 26.806 56.0469 26.4944 56.6012 25.9396C57.1555 25.3849 57.4669 24.6326 57.4669 23.8481C57.4669 23.0636 57.1555 22.3113 56.6012 21.7565C56.0469 21.2018 55.2951 20.8902 54.5112 20.8902Z" fill="#E6E6E6"/>
<path d="M12.7614 58.2336C11.9775 58.2336 11.2257 58.5453 10.6714 59.1C10.1171 59.6547 9.80566 60.4071 9.80566 61.1915C9.80566 61.976 10.1171 62.7284 10.6714 63.2831C11.2257 63.8378 11.9775 64.1494 12.7614 64.1494H39.1635V58.2336H12.7614Z" fill="#E6E6E6"/>
<path d="M12.7614 45.6626C12.3732 45.6626 11.9889 45.7391 11.6303 45.8878C11.2717 46.0364 10.9458 46.2543 10.6714 46.5289C10.3969 46.8036 10.1792 47.1297 10.0307 47.4886C9.88212 47.8474 9.80566 48.2321 9.80566 48.6205C9.80566 49.0089 9.88212 49.3936 10.0307 49.7524C10.1792 50.1113 10.3969 50.4374 10.6714 50.712C10.9458 50.9867 11.2717 51.2046 11.6303 51.3532C11.9889 51.5019 12.3732 51.5784 12.7614 51.5784H39.1635V45.6626H12.7614Z" fill="#E6E6E6"/>
<path d="M39.3482 120.904H15.6875C14.0713 120.902 12.5217 120.259 11.3789 119.115C10.236 117.972 9.59313 116.421 9.59131 114.804V83.7456C9.59314 82.1281 10.236 80.5775 11.3789 79.4338C12.5217 78.2901 14.0713 77.6467 15.6875 77.6449H39.3482V120.904Z" fill="#E6E6E6"/>
<path d="M77.4995 181.356H45.2599C43.5947 181.354 41.9982 180.692 40.8207 179.513C39.6432 178.335 38.9809 176.737 38.979 175.071V46.0323C38.9809 44.3659 39.6432 42.7682 40.8207 41.5898C41.9982 40.4115 43.5947 39.7486 45.2599 39.7468H132.706L148.711 54.0476V78.5692H147.972V54.3787L132.424 40.4862H45.2599C43.7906 40.4879 42.382 41.0728 41.343 42.1125C40.304 43.1522 39.7196 44.5619 39.7179 46.0323V175.071C39.7196 176.541 40.304 177.951 41.343 178.991C42.382 180.03 43.7906 180.615 45.2599 180.617H77.4995V181.356Z" fill="#CCCCCC"/>
<path d="M148.341 54.5363H138.365C136.7 54.5344 135.104 53.8716 133.926 52.6932C132.749 51.5148 132.086 49.9172 132.084 48.2507V40.1165C132.084 40.0184 132.123 39.9244 132.193 39.8551C132.262 39.7857 132.356 39.7468 132.454 39.7468C132.552 39.7468 132.646 39.7857 132.715 39.8551C132.784 39.9244 132.823 40.0184 132.823 40.1165V48.2507C132.825 49.7211 133.409 51.1308 134.448 52.1706C135.487 53.2103 136.896 53.7951 138.365 53.7968H148.341C148.439 53.7968 148.533 53.8357 148.602 53.9051C148.672 53.9744 148.71 54.0685 148.71 54.1665C148.71 54.2646 148.672 54.3586 148.602 54.428C148.533 54.4973 148.439 54.5363 148.341 54.5363Z" fill="#CCCCCC"/>
<path d="M135.979 73.208H51.7404C50.9565 73.208 50.2047 73.5197 49.6504 74.0744C49.0961 74.6291 48.7847 75.3814 48.7847 76.1659C48.7847 76.9504 49.0961 77.7028 49.6504 78.2575C50.2047 78.8122 50.9565 79.1238 51.7404 79.1238H135.979C136.763 79.1238 137.515 78.8122 138.069 78.2575C138.623 77.7028 138.935 76.9504 138.935 76.1659C138.935 75.3814 138.623 74.6291 138.069 74.0744C137.515 73.5197 136.763 73.208 135.979 73.208Z" fill="#E6E6E6"/>
<path d="M93.4902 60.637H51.7404C50.9565 60.637 50.2047 60.9486 49.6504 61.5033C49.0961 62.058 48.7847 62.8104 48.7847 63.5949C48.7847 64.3793 49.0961 65.1317 49.6504 65.6864C50.2047 66.2411 50.9565 66.5528 51.7404 66.5528H93.4902C94.2741 66.5528 95.0259 66.2411 95.5802 65.6864C96.1345 65.1317 96.4459 64.3793 96.4459 63.5949C96.4459 62.8104 96.1345 62.058 95.5802 61.5033C95.0259 60.9486 94.2741 60.637 93.4902 60.637Z" fill="#E6E6E6"/>
<path d="M135.979 73.208H51.7404C50.9565 73.208 50.2047 73.5197 49.6504 74.0744C49.0961 74.6291 48.7847 75.3814 48.7847 76.1659C48.7847 76.9504 49.0961 77.7028 49.6504 78.2575C50.2047 78.8122 50.9565 79.1238 51.7404 79.1238H135.979C136.763 79.1238 137.515 78.8122 138.069 78.2575C138.623 77.7028 138.935 76.9504 138.935 76.1659C138.935 75.3814 138.623 74.6291 138.069 74.0744C137.515 73.5197 136.763 73.208 135.979 73.208Z" fill="#E6E6E6"/>
<path d="M93.4902 60.637H51.7404C50.9565 60.637 50.2047 60.9486 49.6504 61.5033C49.0961 62.058 48.7847 62.8104 48.7847 63.5949C48.7847 64.3793 49.0961 65.1317 49.6504 65.6864C50.2047 66.2411 50.9565 66.5528 51.7404 66.5528H93.4902C94.2741 66.5528 95.0259 66.2411 95.5802 65.6864C96.1345 65.1317 96.4459 64.3793 96.4459 63.5949C96.4459 62.8104 96.1345 62.058 95.5802 61.5033C95.0259 60.9486 94.2741 60.637 93.4902 60.637Z" fill="#E6E6E6"/>
<path d="M51.7404 97.9805C50.9565 97.9805 50.2047 98.2921 49.6504 98.8468C49.0961 99.4015 48.7847 100.154 48.7847 100.938C48.7847 101.723 49.0961 102.475 49.6504 103.03C50.2047 103.585 50.9565 103.896 51.7404 103.896H78.1425V97.9805H51.7404Z" fill="#E6E6E6"/>
<path d="M51.7404 85.4094C50.9565 85.4094 50.2047 85.721 49.6504 86.2757C49.0961 86.8304 48.7847 87.5828 48.7847 88.3673C48.7847 89.1518 49.0961 89.9041 49.6504 90.4588C50.2047 91.0135 50.9565 91.3252 51.7404 91.3252H78.1425V85.4094H51.7404Z" fill="#E6E6E6"/>
<path d="M51.7404 97.9805C50.9565 97.9805 50.2047 98.2921 49.6504 98.8468C49.0961 99.4015 48.7847 100.154 48.7847 100.938C48.7847 101.723 49.0961 102.475 49.6504 103.03C50.2047 103.585 50.9565 103.896 51.7404 103.896H78.1425V97.9805H51.7404Z" fill="#E6E6E6"/>
<path d="M51.7404 85.4094C50.9565 85.4094 50.2047 85.721 49.6504 86.2757C49.0961 86.8304 48.7847 87.5828 48.7847 88.3673C48.7847 89.1518 49.0961 89.9041 49.6504 90.4588C50.2047 91.0135 50.9565 91.3252 51.7404 91.3252H78.1425V85.4094H51.7404Z" fill="#E6E6E6"/>
<path d="M78.3272 160.651H54.6665C53.0503 160.649 51.5007 160.006 50.3579 158.862C49.215 157.718 48.5721 156.168 48.5703 154.55V123.492C48.5721 121.875 49.215 120.324 50.3579 119.181C51.5007 118.037 53.0503 117.393 54.6665 117.392H78.3272V160.651Z" fill="#E6E6E6"/>
<path d="M80.4108 79.8633C79.4926 80.4242 78.7337 81.2119 78.2071 82.1506C77.6804 83.0894 77.4037 84.1479 77.4033 85.2245V86.1488H78.1423V85.2245C78.1438 84.0018 78.5483 82.8137 79.2931 81.8444C80.0378 80.8751 81.0813 80.1788 82.2618 79.8633H80.4108ZM171.13 78.939H83.6843C82.0191 78.9409 80.4226 79.6038 79.2451 80.7821C78.0676 81.9605 77.4053 83.5581 77.4033 85.2245V214.263C77.4057 215.929 78.0682 217.527 79.2456 218.705C80.423 219.883 82.0192 220.546 83.6843 220.548H180.854C182.519 220.546 184.115 219.883 185.293 218.705C186.47 217.527 187.133 215.929 187.135 214.263V93.2404L171.13 78.939ZM186.396 214.263C186.394 215.733 185.81 217.143 184.771 218.183C183.732 219.222 182.323 219.807 180.854 219.809H83.6843C82.215 219.807 80.8064 219.222 79.7674 218.183C78.7285 217.143 78.144 215.733 78.1423 214.263V85.2245C78.1437 84.0018 78.5482 82.8137 79.293 81.8444C80.0378 80.8751 81.0813 80.1788 82.2618 79.8633C82.7258 79.7396 83.2041 79.6774 83.6843 79.6784H170.849L186.396 93.5695V214.263ZM80.4108 79.8633C79.4926 80.4242 78.7337 81.2119 78.2071 82.1506C77.6804 83.0894 77.4037 84.1479 77.4033 85.2245V86.1488H78.1423V85.2245C78.1437 84.0018 78.5482 82.8137 79.293 81.8444C80.0378 80.8751 81.0813 80.1788 82.2618 79.8633H80.4108Z" fill="#3F3D56"/>
<path d="M186.765 93.7285H176.79C175.124 93.7266 173.528 93.0638 172.351 91.8854C171.173 90.707 170.511 89.1094 170.509 87.4429V79.3087C170.509 79.2106 170.548 79.1166 170.617 79.0473C170.686 78.9779 170.78 78.939 170.878 78.939C170.976 78.939 171.07 78.9779 171.14 79.0473C171.209 79.1166 171.248 79.2106 171.248 79.3087V87.4429C171.249 88.9133 171.834 90.323 172.873 91.3628C173.912 92.4025 175.32 92.9873 176.79 92.989H186.765C186.863 92.989 186.957 93.0279 187.027 93.0973C187.096 93.1666 187.135 93.2607 187.135 93.3587C187.135 93.4568 187.096 93.5508 187.027 93.6202C186.957 93.6895 186.863 93.7285 186.765 93.7285Z" fill="#3F3D56"/>
<path d="M174.404 118.316H90.1652C89.3813 118.316 88.6295 118.004 88.0752 117.45C87.5209 116.895 87.2095 116.143 87.2095 115.358C87.2095 114.574 87.5209 113.821 88.0752 113.267C88.6295 112.712 89.3813 112.4 90.1652 112.4H174.404C175.188 112.4 175.939 112.712 176.494 113.267C177.048 113.821 177.359 114.574 177.359 115.358C177.359 116.143 177.048 116.895 176.494 117.45C175.939 118.004 175.188 118.316 174.404 118.316Z" fill="#CCCCCC"/>
<path d="M131.915 105.745H90.1652C89.3813 105.745 88.6295 105.433 88.0752 104.879C87.5209 104.324 87.2095 103.572 87.2095 102.787C87.2095 102.003 87.5209 101.25 88.0752 100.696C88.6295 100.141 89.3813 99.8292 90.1652 99.8292H131.915C132.699 99.8292 133.451 100.141 134.005 100.696C134.559 101.25 134.871 102.003 134.871 102.787C134.871 103.572 134.559 104.324 134.005 104.879C133.451 105.433 132.699 105.745 131.915 105.745Z" fill="#CCCCCC"/>
<path d="M174.404 143.088H90.1652C89.3813 143.088 88.6295 142.777 88.0752 142.222C87.5209 141.667 87.2095 140.915 87.2095 140.131C87.2095 139.346 87.5209 138.594 88.0752 138.039C88.6295 137.484 89.3813 137.173 90.1652 137.173H174.404C175.188 137.173 175.939 137.484 176.494 138.039C177.048 138.594 177.359 139.346 177.359 140.131C177.359 140.915 177.048 141.667 176.494 142.222C175.939 142.777 175.188 143.088 174.404 143.088Z" fill="#CCCCCC"/>
<path d="M131.915 130.517H90.1652C89.3813 130.517 88.6295 130.206 88.0752 129.651C87.5209 129.096 87.2095 128.344 87.2095 127.559C87.2095 126.775 87.5209 126.023 88.0752 125.468C88.6295 124.913 89.3813 124.602 90.1652 124.602H131.915C132.699 124.602 133.451 124.913 134.005 125.468C134.559 126.023 134.871 126.775 134.871 127.559C134.871 128.344 134.559 129.096 134.005 129.651C133.451 130.206 132.699 130.517 131.915 130.517Z" fill="#CCCCCC"/>
<path d="M171.417 199.843H93.0903C91.4741 199.841 89.9246 199.198 88.7817 198.054C87.6388 196.911 86.996 195.36 86.9941 193.743V162.685C86.996 161.067 87.6388 159.516 88.7817 158.373C89.9246 157.229 91.4741 156.586 93.0903 156.584H171.417C173.034 156.586 174.583 157.229 175.726 158.373C176.869 159.516 177.512 161.067 177.514 162.685V193.743C177.512 195.36 176.869 196.911 175.726 198.054C174.583 199.198 173.034 199.841 171.417 199.843Z" fill="#124612"/>
</g>
<defs>
<clipPath id="clip0">
<rect width="312" height="241" fill="white"/>
</clipPath>
</defs>
</svg>
