<svg width="200" height="200" viewBox="0 0 200 200" fill="none" xmlns="http://www.w3.org/2000/svg">
<g clip-path="url(#clip0)">
<path d="M196.899 157.387L104.877 193.645C103.731 194.095 102.478 193.996 101.394 193.371C100.311 192.746 99.4838 191.645 99.0954 190.31L56.4695 43.2775C56.0836 41.9415 56.168 40.4816 56.7043 39.2181C57.2406 37.9546 58.1848 36.9907 59.33 36.5378L151.352 0.280335C152.498 -0.169526 153.751 -0.0710664 154.835 0.554111C155.918 1.17929 156.745 2.28013 157.134 3.61511L199.76 150.648C200.145 151.984 200.061 153.443 199.525 154.707C198.988 155.97 198.044 156.934 196.899 157.387Z" fill="#E6E6E6"/>
<path d="M194.55 154.672L105.331 189.825C104.556 190.129 103.71 190.063 102.978 189.64C102.246 189.218 101.687 188.474 101.424 187.572L59.7458 43.8069C59.4851 42.9042 59.5421 41.9178 59.9045 41.0641C60.2668 40.2104 60.9048 39.5591 61.6786 39.2531L150.898 4.09992C151.673 3.79596 152.519 3.86249 153.251 4.2849C153.983 4.70732 154.542 5.45113 154.805 6.35315L196.483 150.118C196.744 151.021 196.687 152.007 196.325 152.861C195.962 153.715 195.324 154.366 194.55 154.672Z" fill="white"/>
<path d="M172.122 199.569H74.9855C73.7763 199.567 72.617 199.007 71.7619 198.01C70.9069 197.013 70.4259 195.661 70.4246 194.252V39.0488C70.4259 37.6391 70.9069 36.2876 71.7619 35.2908C72.617 34.294 73.7763 33.7333 74.9855 33.7317H172.122C173.331 33.7333 174.49 34.294 175.345 35.2908C176.2 36.2876 176.681 37.6391 176.683 39.0488V194.252C176.681 195.661 176.2 197.013 175.345 198.01C174.49 199.007 173.331 199.567 172.122 199.569Z" fill="#CCCCCC"/>
<path d="M170.642 196.12H76.4648C75.6477 196.119 74.8644 195.74 74.2867 195.066C73.709 194.393 73.384 193.48 73.3831 192.527V40.7733C73.384 39.8208 73.709 38.9076 74.2867 38.2341C74.8644 37.5606 75.6477 37.1817 76.4648 37.1807H170.642C171.459 37.1817 172.243 37.5606 172.82 38.2341C173.398 38.9076 173.723 39.8208 173.724 40.7733V192.527C173.723 193.48 173.398 194.393 172.82 195.066C172.243 195.74 171.459 196.119 170.642 196.12Z" fill="white"/>
<path d="M150.579 80.2284H88.3774C87.8534 80.2284 87.3508 79.9857 86.9803 79.5538C86.6098 79.1218 86.4016 78.5359 86.4016 77.9251C86.4016 77.3142 86.6098 76.7283 86.9803 76.2963C87.3508 75.8644 87.8534 75.6217 88.3774 75.6217H150.579C151.103 75.6217 151.606 75.8644 151.977 76.2963C152.347 76.7283 152.555 77.3142 152.555 77.9251C152.555 78.5359 152.347 79.1218 151.977 79.5538C151.606 79.9857 151.103 80.2284 150.579 80.2284Z" fill="#CCCCCC"/>
<path d="M158.73 88.0023H88.3774C88.1179 88.0023 87.861 87.9427 87.6213 87.827C87.3816 87.7112 87.1638 87.5415 86.9803 87.3276C86.7968 87.1138 86.6513 86.8598 86.552 86.5804C86.4527 86.3009 86.4016 86.0014 86.4016 85.6989C86.4016 85.3964 86.4527 85.0969 86.552 84.8175C86.6513 84.538 86.7968 84.2841 86.9803 84.0702C87.1638 83.8563 87.3816 83.6867 87.6213 83.5709C87.861 83.4551 88.1179 83.3956 88.3774 83.3956H158.73C159.254 83.3956 159.756 83.6382 160.127 84.0702C160.497 84.5022 160.705 85.088 160.705 85.6989C160.705 86.3098 160.497 86.8957 160.127 87.3276C159.756 87.7596 159.254 88.0023 158.73 88.0023Z" fill="#CCCCCC"/>
<path d="M150.579 115.067H88.3774C87.8538 115.066 87.3518 114.823 86.9817 114.391C86.6117 113.959 86.4038 113.374 86.4038 112.763C86.4038 112.153 86.6117 111.568 86.9817 111.136C87.3518 110.704 87.8538 110.461 88.3774 110.46H150.579C151.103 110.46 151.606 110.703 151.977 111.135C152.347 111.567 152.555 112.153 152.555 112.763C152.555 113.374 152.347 113.96 151.977 114.392C151.606 114.824 151.103 115.067 150.579 115.067Z" fill="#124612"/>
<path d="M158.73 122.841H88.3774C87.8538 122.84 87.3518 122.597 86.9817 122.165C86.6117 121.733 86.4038 121.148 86.4038 120.537C86.4038 119.927 86.6117 119.341 86.9817 118.909C87.3518 118.478 87.8538 118.235 88.3774 118.234H158.73C159.254 118.234 159.756 118.477 160.127 118.909C160.497 119.34 160.705 119.926 160.705 120.537C160.705 121.148 160.497 121.734 160.127 122.166C159.756 122.598 159.254 122.841 158.73 122.841Z" fill="#CCCCCC"/>
<path d="M150.579 149.905H88.3774C87.8538 149.904 87.3518 149.661 86.9817 149.229C86.6117 148.798 86.4038 148.212 86.4038 147.602C86.4038 146.991 86.6117 146.406 86.9817 145.974C87.3518 145.542 87.8538 145.299 88.3774 145.298H150.579C151.103 145.298 151.606 145.541 151.977 145.973C152.347 146.405 152.555 146.991 152.555 147.602C152.555 148.212 152.347 148.798 151.977 149.23C151.606 149.662 151.103 149.905 150.579 149.905Z" fill="#CCCCCC"/>
<path d="M158.73 157.679H88.3774C87.8534 157.679 87.3508 157.436 86.9803 157.004C86.6098 156.572 86.4016 155.987 86.4016 155.376C86.4016 154.765 86.6098 154.179 86.9803 153.747C87.3508 153.315 87.8534 153.072 88.3774 153.072H158.73C159.254 153.072 159.756 153.315 160.127 153.747C160.497 154.179 160.705 154.765 160.705 155.376C160.705 155.987 160.497 156.572 160.127 157.004C159.756 157.436 159.254 157.679 158.73 157.679Z" fill="#CCCCCC"/>
<path d="M50.4152 106.523H36.116C35.8219 106.523 35.5399 106.386 35.3319 106.144C35.1239 105.901 35.0069 105.573 35.0066 105.23V98.0443C35.0066 95.4908 35.8767 93.0417 37.4256 91.2361C38.9745 89.4304 41.0752 88.416 43.2656 88.416C45.4561 88.416 47.5568 89.4304 49.1056 91.2361C50.6545 93.0417 51.5247 95.4908 51.5247 98.0443V105.23C51.5243 105.573 51.4073 105.901 51.1993 106.144C50.9914 106.386 50.7094 106.523 50.4152 106.523Z" fill="#2F2E41"/>
<path d="M72.4848 144.022C72.1229 144 71.7695 143.886 71.4495 143.688C71.1296 143.489 70.8508 143.211 70.6329 142.874C70.4151 142.536 70.2633 142.147 70.1884 141.733C70.1135 141.32 70.1173 140.892 70.1995 140.481L62.7478 135.002L66.9184 132.801L73.3553 138.341C73.9391 138.548 74.4377 138.997 74.7564 139.604C75.0751 140.21 75.1919 140.932 75.0846 141.632C74.9773 142.333 74.6534 142.963 74.1742 143.403C73.6951 143.844 73.094 144.064 72.4848 144.022Z" fill="#FFB8B8"/>
<path d="M67.3426 139.552C67.0892 139.525 66.8479 139.413 66.6473 139.23L46.1478 120.706L43.5047 115.226C43.249 114.699 43.1343 114.095 43.175 113.491C43.2158 112.887 43.4104 112.312 43.7337 111.838C43.9574 111.508 44.2372 111.236 44.5554 111.038C44.8736 110.841 45.2234 110.722 45.5828 110.689C45.9423 110.657 46.3036 110.711 46.6442 110.849C46.9848 110.987 47.2972 111.205 47.562 111.491L70.4112 133.095C70.559 133.212 70.6853 133.362 70.7828 133.536C70.8803 133.71 70.947 133.905 70.9789 134.11C71.0108 134.314 71.0073 134.524 70.9687 134.727C70.93 134.93 70.857 135.122 70.7538 135.292L68.5632 138.898C68.4591 139.071 68.3259 139.217 68.1717 139.328C68.0175 139.438 67.8455 139.511 67.6663 139.541C67.5592 139.56 67.4505 139.563 67.3426 139.552Z" fill="#2F2E41"/>
<path d="M19.0312 192.588L21.8332 193.91L27.5393 181.94L23.4041 179.989L19.0312 192.588Z" fill="#FFB8B8"/>
<path d="M18.6869 191.184L24.2046 193.787L24.2049 193.787C24.6666 194.005 25.0871 194.327 25.4422 194.734C25.7973 195.141 26.0801 195.626 26.2745 196.161C26.4689 196.696 26.5711 197.27 26.5751 197.85C26.5792 198.431 26.4851 199.007 26.2982 199.545L26.252 199.679L17.2178 195.417L18.6869 191.184Z" fill="#2F2E41"/>
<path d="M51.6792 196.263L54.7018 196.263L56.1398 182.672L51.6787 182.672L51.6792 196.263Z" fill="#FFB8B8"/>
<path d="M50.9082 195.113L56.8606 195.112H56.8608C57.359 195.112 57.8522 195.227 58.3125 195.449C58.7727 195.671 59.1909 195.997 59.5431 196.407C59.8954 196.818 60.1748 197.306 60.3654 197.842C60.5561 198.379 60.6542 198.954 60.6542 199.534V199.678L50.9084 199.679L50.9082 195.113Z" fill="#2F2E41"/>
<path d="M54.1695 188.579C52.9691 188.579 51.7918 188.009 51.1422 187.629C50.9738 187.532 50.8268 187.391 50.7126 187.217C50.5985 187.043 50.5202 186.841 50.4838 186.626L44.1129 149.18L27.5849 185.231C27.4364 185.555 27.1866 185.801 26.8873 185.917C23.3275 187.303 21.3862 185.122 20.7165 184.119C20.5803 183.914 20.4954 183.668 20.4711 183.41C20.4468 183.152 20.4841 182.891 20.5789 182.656L28.2336 163.27L32.8621 144.854L37.5404 131.377L37.6425 131.39L53.2864 133.31L55.1887 145.506L57.1045 186.116C57.1215 186.439 57.0424 186.76 56.8805 187.024C56.5742 187.524 56.1662 187.928 55.6931 188.2C55.22 188.471 54.6965 188.602 54.1695 188.579Z" fill="#2F2E41"/>
<path d="M45.3038 106.414C48.648 106.414 51.359 103.253 51.359 99.3546C51.359 95.456 48.648 92.2955 45.3038 92.2955C41.9596 92.2955 39.2485 95.456 39.2485 99.3546C39.2485 103.253 41.9596 106.414 45.3038 106.414Z" fill="#FFB8B8"/>
<path d="M47.4098 138.916C44.7737 138.916 41.5119 137.117 37.6812 133.544L37.616 133.483L40.3243 108.575L40.4508 108.57C44.3247 108.406 47.4772 109.553 50.0873 112.084L50.1097 112.111L52.2261 115.283L52.227 115.341L52.5254 134.824L52.5179 134.852C52.2375 135.743 51.7853 136.548 51.196 137.204C50.6067 137.859 49.8961 138.348 49.119 138.633C48.5643 138.825 47.9884 138.92 47.4098 138.916Z" fill="#124612"/>
<path d="M51.3088 150.561C51.0128 150.56 50.7253 150.445 50.4907 150.235C50.2561 150.025 50.0875 149.73 50.011 149.397L46.2931 132.988L43.9378 147.937C43.8759 148.334 43.6848 148.687 43.4044 148.924C43.124 149.16 42.7761 149.26 42.4336 149.203L32.1776 147.535C31.9821 147.503 31.7951 147.422 31.6298 147.296C31.4645 147.17 31.3251 147.003 31.2215 146.807C31.1179 146.611 31.0527 146.391 31.0305 146.163C31.0083 145.934 31.0297 145.702 31.0931 145.485L36.2809 127.659L35.1196 117.215C35 116.139 35.0736 115.047 35.3357 114.006C35.5978 112.966 36.0426 112 36.642 111.171C37.2413 110.341 37.9821 109.666 38.8172 109.189C39.6523 108.711 40.5634 108.441 41.4929 108.396L41.5968 108.391L46.5298 122.261L47.3144 118.602L48.5422 110.727L48.7255 110.851C50.4589 112.016 51.8843 113.714 52.8458 115.76C53.8073 117.805 54.268 120.12 54.1775 122.45L53.8664 130.791L56.6225 147.82C56.6878 148.227 56.6122 148.647 56.4123 148.989C56.2124 149.332 55.9044 149.567 55.5557 149.646L51.5584 150.533C51.4761 150.551 51.3925 150.561 51.3088 150.561Z" fill="#2F2E41"/>
<path d="M53.4784 98.7629H44.7348L44.6451 97.2994L44.1968 98.7629H42.8505L42.6728 95.8624L41.7843 98.7629H39.1792V98.6192C39.1811 96.5999 39.8701 94.6639 41.0949 93.2361C42.3197 91.8082 43.9803 91.005 45.7124 91.0027H46.9452C48.6773 91.005 50.3379 91.8082 51.5627 93.2361C52.7875 94.6639 53.4765 96.5999 53.4784 98.6192V98.7629Z" fill="#2F2E41"/>
<path d="M196.491 200H0.246538C0.181152 200 0.118444 199.97 0.0722092 199.916C0.0259743 199.862 0 199.789 0 199.713C0 199.636 0.0259743 199.563 0.0722092 199.509C0.118444 199.456 0.181152 199.425 0.246538 199.425H196.491C196.556 199.425 196.619 199.456 196.665 199.509C196.712 199.563 196.738 199.636 196.738 199.713C196.738 199.789 196.712 199.862 196.665 199.916C196.619 199.97 196.556 200 196.491 200Z" fill="#CCCCCC"/>
<path d="M47.6196 142.579C47.6192 143.04 47.7038 143.496 47.8677 143.916C48.0316 144.335 48.2709 144.709 48.5695 145.011C48.8681 145.313 49.2189 145.537 49.5982 145.668C49.9775 145.798 50.3764 145.832 50.7679 145.767C51.1291 146.733 51.7245 147.556 52.4809 148.133C53.2373 148.711 54.1219 149.019 55.0261 149.019C55.6361 149.019 56.2401 148.879 56.8036 148.607C57.3671 148.334 57.8792 147.936 58.3105 147.433C58.7418 146.93 59.0839 146.333 59.3173 145.676C59.5508 145.019 59.6709 144.315 59.6709 143.604V138.912C59.6709 137.705 58.8311 137.3 57.7953 137.3H52.257C51.2211 137.3 50.3814 137.705 50.3814 138.912V139.36C49.6492 139.361 48.9472 139.7 48.4294 140.304C47.9117 140.907 47.6205 141.726 47.6196 142.579ZM48.3728 142.579C48.3734 141.959 48.5853 141.363 48.9618 140.925C49.3383 140.486 49.8489 140.239 50.3814 140.238V143.604C50.3814 144.045 50.4275 144.485 50.5189 144.913C50.4732 144.916 50.4278 144.921 50.3814 144.921C49.8489 144.92 49.3383 144.673 48.9618 144.234C48.5853 143.795 48.3734 143.2 48.3728 142.579H48.3728Z" fill="#124612"/>
<path d="M49.8438 141.805C49.6753 141.431 49.4386 141.105 49.1502 140.849C48.8618 140.593 48.5287 140.414 48.1745 140.324C47.8204 140.235 47.4536 140.237 47.1002 140.33C46.7467 140.424 46.4152 140.607 46.1288 140.866L38.7444 135.264L38.7725 140.601L45.7806 145.102C46.1858 145.634 46.7443 145.974 47.3502 146.058C47.9561 146.142 48.5674 145.964 49.0683 145.558C49.5691 145.151 49.9247 144.545 50.0676 143.853C50.2106 143.162 50.1309 142.433 49.8438 141.805H49.8438Z" fill="#FFB8B8"/>
<path d="M41.8481 145.063C41.5538 145.063 41.2716 144.927 41.0635 144.684L31.6605 133.722C31.3601 133.374 31.1409 132.942 31.0237 132.468C30.9064 131.994 30.8951 131.492 30.9907 131.011C31.7956 126.909 33.757 117.107 34.585 114.694C35.1894 112.879 36.308 111.36 37.7552 110.389L37.7922 110.367L40.7691 111.008L41.0314 121.713L37.4355 130.696L45.0816 139.11C45.2828 139.33 45.4062 139.63 45.4275 139.951C45.4489 140.271 45.3666 140.59 45.1969 140.843L42.7249 144.562C42.6284 144.707 42.5066 144.826 42.3674 144.912C42.2283 144.998 42.075 145.049 41.9178 145.06C41.8946 145.062 41.8712 145.063 41.8481 145.063Z" fill="#2F2E41"/>
<path d="M55.0158 138.781C56.922 138.781 58.4673 138.524 58.4673 138.206C58.4673 137.889 56.922 137.631 55.0158 137.631C53.1095 137.631 51.5642 137.889 51.5642 138.206C51.5642 138.524 53.1095 138.781 55.0158 138.781Z" fill="#2F2E41"/>
</g>
<defs>
<clipPath id="clip0">
<rect width="200" height="200" fill="white"/>
</clipPath>
</defs>
</svg>
