<svg width="1824" height="2463" viewBox="0 0 1824 2463" fill="none" xmlns="http://www.w3.org/2000/svg">
<g clip-path="url(#clip0)">
<path d="M0 504.966V0H1824V522.091C1824 522.091 1741.67 573.464 1476.93 629.615C1212.2 685.767 773.3 748.29 470.567 606.517C167.833 464.744 0 504.966 0 504.966Z" fill="#79B178"/>
<path d="M240.283 270.9H245.278V275.134H240.283V280.861H235.669V275.134H230.659V270.9H235.669V265.334H240.283V270.9Z" fill="#79B178"/>
<path d="M1308.49 1270.28C1576.35 1194.98 1841 1176 1841 1176V1468.51C1841 1468.51 1664.82 1452.6 1362 1555.79C1059.18 1658.98 752.89 1712.78 410.93 1692.25C68.971 1671.73 -17 1787 -17 1787V1486.16C-17 1486.16 13.154 1434.88 313.411 1400.88C613.668 1366.88 646.298 1408.26 895.319 1379.89C981.095 1370.12 1239.87 1289.58 1308.49 1270.28Z" fill="#79B178"/>
<path d="M1824 2463H0.00597377V2369.51C0.00597377 2369.51 -5.13536 2352.27 286.272 2289.16C577.679 2226.06 972.633 2333.87 1298.32 2394.97C1624.01 2456.07 1824 2328.45 1824 2328.45V2463Z" fill="#79B178"/>
</g>
<defs>
<clipPath id="clip0">
<rect width="1824" height="2463" fill="white"/>
</clipPath>
</defs>
</svg>
