<svg width="79" height="79" viewBox="0 0 79 79" fill="none" xmlns="http://www.w3.org/2000/svg">
<path fill-rule="evenodd" clip-rule="evenodd" d="M24.2696 2.99187C29.0396 1.01635 34.152 -0.000292274 39.3149 6.30284e-08C49.7411 0.000704894 59.7399 4.1429 67.112 11.5154C74.484 18.8879 78.6253 28.8868 78.625 39.3125C78.6253 49.7383 74.484 59.7371 67.112 67.1096C59.7399 74.4821 49.7411 78.6243 39.3149 78.625C37.0185 78.6122 34.7275 78.3982 32.4684 77.9855L50.7502 59.9182C51.281 60.0701 51.8304 60.1473 52.3825 60.1477C53.9585 60.1477 55.47 59.5223 56.5844 58.409C57.6988 57.2958 58.3249 55.7859 58.3249 54.2115C58.3249 52.6372 57.6988 51.1273 56.5844 50.014C55.47 48.9008 53.9585 48.2754 52.3825 48.2754C50.8064 48.2754 49.2949 48.9008 48.1805 50.014C47.0661 51.1273 46.44 52.6372 46.44 54.2115C46.4403 54.9923 46.5947 55.7654 46.8945 56.4864L26.9023 75.984L26.4429 76.4087C24.3256 75.6866 22.2738 74.7851 20.3099 73.714L20.9403 73.0843L50.5059 43.3985C50.8858 43.4734 51.272 43.511 51.6592 43.5108C53.2352 43.5108 54.7467 42.8854 55.8611 41.7721C56.9756 40.6589 57.6016 39.149 57.6016 37.5746C57.6016 36.0002 56.9756 34.4904 55.8611 33.3771C54.7467 32.2639 53.2352 31.6384 51.6592 31.6384C50.0832 31.6384 48.5717 32.2639 47.4573 33.3771C46.3428 34.4904 45.7168 36.0002 45.7168 37.5746C45.72 38.4497 45.917 39.3132 46.2934 40.1033L15.9361 70.1943L15.5452 70.5653C13.8714 69.3062 12.301 67.9154 10.8489 66.4061L36.2704 40.7136L36.4268 29.3733C37.4632 28.9018 38.3422 28.1427 38.9591 27.1863C39.5759 26.23 39.9047 25.1167 39.9062 23.979C39.9062 23.1995 39.7525 22.4276 39.4539 21.7073C39.1553 20.9871 38.7175 20.3327 38.1657 19.7815C37.6139 19.2303 36.9588 18.793 36.2379 18.4947C35.5169 18.1964 34.7442 18.0428 33.9638 18.0428C33.1834 18.0428 32.4107 18.1964 31.6897 18.4947C30.9687 18.793 30.3137 19.2303 29.7619 19.7815C29.21 20.3327 28.7723 20.9871 28.4737 21.7073C28.1751 22.4276 28.0214 23.1995 28.0214 23.979C28.0227 25.0781 28.3296 26.1553 28.9077 27.0905C29.4858 28.0257 30.3124 28.7822 31.2956 29.2757H31.2272V38.551L8.00471 61.6659L7.44272 62.2468C2.62061 55.5704 0.0172091 47.5481 2.11575e-08 39.3125C-0.000169356 34.1498 1.01663 29.0376 2.99235 24.2678C4.96806 19.4981 7.86398 15.1642 11.5148 11.5137C15.1655 7.86311 19.4997 4.9674 24.2696 2.99187ZM63 16.533H57.5742V11H53.4409V16.533H48V20.2264H53.4409V26H57.5742V20.2264H63V16.533Z" fill="#124612"/>
</svg>
