<svg width="78" height="78" viewBox="0 0 78 78" fill="none" xmlns="http://www.w3.org/2000/svg">
<path d="M73.7342 13.5257H64.4717V4.26562C64.4717 2.58375 63.1067 1.21875 61.4249 1.21875C59.743 1.21875 58.378 2.58375 58.378 4.26562V13.5257H49.1179C47.436 13.5257 46.071 14.8907 46.071 16.5726C46.071 18.2544 47.436 19.6194 49.1179 19.6194H58.378V28.8795C58.378 30.5614 59.743 31.9264 61.4249 31.9264C63.1067 31.9264 64.4717 30.5614 64.4717 28.8795V19.6194H73.7342C75.4161 19.6194 76.7811 18.2544 76.7811 16.5726C76.7811 14.8907 75.4161 13.5257 73.7342 13.5257Z" fill="white"/>
<path d="M73.7342 13.5257H64.4717V4.26562C64.4717 2.58375 63.1067 1.21875 61.4249 1.21875C59.743 1.21875 58.378 2.58375 58.378 4.26562V13.5208V13.5257H49.1179C47.436 13.5257 46.071 14.8907 46.071 16.5726C46.071 18.2544 47.436 19.6194 49.1179 19.6194H58.378V28.8795C58.378 30.5614 59.743 31.9264 61.4249 31.9264C63.1067 31.9264 64.4717 30.5614 64.4717 28.8795V19.7389V19.6194H73.7342C75.4161 19.6194 76.7811 18.2544 76.7811 16.5726C76.7811 14.8907 75.4161 13.5257 73.7342 13.5257Z" fill="white"/>
<path d="M61.4249 34.3663C58.4024 34.3663 55.9405 31.9069 55.9405 28.8819V22.0569H49.1179C46.0954 22.0569 43.6335 19.5975 43.6335 16.5725C43.6335 13.5476 46.0954 11.0882 49.1179 11.0882H54.8899C49.464 7.74148 43.0973 5.77929 36.2577 5.77686C16.6041 5.77686 0.670162 21.7084 0.667725 41.3644V41.3668C0.68235 48.8255 3.03941 56.0869 7.40498 62.1294L7.91197 61.6029L28.9354 40.677V32.2822H28.9963C27.1804 31.3706 26.0348 29.5157 26.0323 27.4877C26.0323 24.5188 28.4406 22.113 31.4119 22.113C34.3832 22.113 36.7915 24.5188 36.7915 27.4877C36.789 29.5888 35.5581 31.4998 33.6422 32.37L33.5009 42.6367L10.4884 65.8954C11.8047 67.2628 13.2257 68.5205 14.7418 69.6613L15.0953 69.3249L42.5757 42.0834C42.2344 41.3668 42.0565 40.5868 42.054 39.797C42.054 36.8282 44.4623 34.4224 47.4336 34.4224C50.4049 34.4224 52.8132 36.8282 52.8132 39.797C52.8132 42.761 50.4049 45.1693 47.4336 45.1693C47.0826 45.1693 46.734 45.1327 46.3879 45.0669L19.6242 71.9355L19.0538 72.5059C20.8307 73.476 22.6881 74.2901 24.604 74.9458L25.0183 74.5607L43.1168 56.9132C42.8462 56.2575 42.7049 55.5604 42.7049 54.851C42.7049 51.8846 45.1131 49.4812 48.0844 49.4812C51.0557 49.4812 53.464 51.8846 53.464 54.851C53.464 57.8224 51.0557 60.2257 48.0844 60.2257C47.5847 60.2257 47.085 60.1575 46.6097 60.0185L30.0567 76.3742C32.1017 76.7495 34.176 76.9421 36.2552 76.9519C55.9088 76.9519 71.8403 61.0179 71.8403 41.3644C71.8403 34.7807 70.0219 28.6382 66.9068 23.3488V28.8795C66.9092 31.9044 64.4474 34.3663 61.4249 34.3663Z" fill="white"/>
<path d="M61.4249 34.3663C58.4024 34.3663 55.9405 31.9069 55.9405 28.8819V22.0569H49.1179C46.0954 22.0569 43.6335 19.5975 43.6335 16.5725C43.6335 13.5476 46.0954 11.0882 49.1179 11.0882H54.8899C49.464 7.74148 43.0973 5.77929 36.2577 5.77686C16.6041 5.77686 0.670162 21.7084 0.667725 41.3644V41.3668C0.68235 48.8255 3.03941 56.0869 7.40498 62.1294L7.91197 61.6029L28.9354 40.677V32.2822H28.9963C27.1804 31.3706 26.0348 29.5157 26.0323 27.4877C26.0323 24.5188 28.4406 22.113 31.4119 22.113C34.3832 22.113 36.7915 24.5188 36.7915 27.4877C36.789 29.5888 35.5581 31.4998 33.6422 32.37L33.5009 42.6367L10.4884 65.8954C11.8047 67.2628 13.2257 68.5205 14.7418 69.6613L15.0953 69.3249L42.5757 42.0834C42.2344 41.3668 42.0565 40.5868 42.054 39.797C42.054 36.8282 44.4623 34.4224 47.4336 34.4224C50.4049 34.4224 52.8132 36.8282 52.8132 39.797C52.8132 42.761 50.4049 45.1693 47.4336 45.1693C47.0826 45.1693 46.734 45.1327 46.3879 45.0669L19.6242 71.9355L19.0538 72.5059C20.8307 73.476 22.6881 74.2901 24.604 74.9458L25.0183 74.5607L43.1168 56.9132C42.8462 56.2575 42.7049 55.5604 42.7049 54.851C42.7049 51.8846 45.1131 49.4812 48.0844 49.4812C51.0557 49.4812 53.464 51.8846 53.464 54.851C53.464 57.8224 51.0557 60.2257 48.0844 60.2257C47.5847 60.2257 47.085 60.1575 46.6097 60.0185L30.0567 76.3742C32.1017 76.7495 34.176 76.9421 36.2552 76.9519C55.9088 76.9519 71.8403 61.0179 71.8403 41.3644C71.8403 34.7807 70.0219 28.6382 66.9068 23.3488V28.8795C66.9092 31.9044 64.4474 34.3663 61.4249 34.3663Z" fill="white"/>
</svg>
