<svg width="300" height="200" viewBox="0 0 300 200" fill="none" xmlns="http://www.w3.org/2000/svg">
<g clip-path="url(#clip0)">
<path opacity="0.1" d="M127.629 7.68813C115.434 3.26929 102.548 -0.421862 89.3925 0.0421694C70.0502 0.722397 51.4827 11.0919 42.3898 26.3179C34.675 39.2185 33.7231 54.3391 30.3998 68.6555C26.3099 86.2913 18.4623 103.057 10.0834 119.448C5.58403 128.254 0.835611 137.25 0.0967833 146.903C-0.92706 160.304 6.25921 173.658 17.5298 182.572C28.8004 191.487 43.7679 196.19 58.7907 197.216C66.785 197.762 75.139 197.255 82.2395 193.939C89.7523 190.429 95.2284 184.088 102.772 180.629C109.761 177.423 117.938 176.975 125.786 177.392C136.032 177.935 146.147 179.853 155.832 183.087C166.801 186.757 177 192.075 187.931 195.797C198.861 199.52 211.103 201.598 222.287 198.492C232.803 195.573 241.104 188.486 248.589 181.31C260.828 169.596 272.047 156.952 282.132 143.504C288.887 134.485 295.174 124.969 298.16 114.457C303.871 94.3591 296.012 71.6849 278.582 57.959C264.141 46.5876 244.759 41.652 225.788 38.6569C208.488 35.9255 188.484 35.7567 172.559 28.6381C157.373 21.8411 143.554 13.4622 127.629 7.68813Z" fill="#124612"/>
<path d="M175.044 163.202V172.78H177.902L177.349 162.498L175.044 163.202Z" fill="#AAABB0"/>
<path d="M132.106 161.269V170.848H134.967L134.414 160.565L132.106 161.269Z" fill="#AAABB0"/>
<path d="M182.053 147.209C182.053 146.237 181.228 145.45 180.209 145.45C179.19 145.45 178.365 146.237 178.365 147.209V160.742C178.365 161.713 179.19 162.501 180.209 162.501C181.228 162.501 182.053 161.713 182.053 160.742V147.209Z" fill="#AAABB0"/>
<path d="M134.735 143.428C134.735 142.457 133.909 141.669 132.891 141.669C131.872 141.669 131.046 142.457 131.046 143.428V160.739C131.046 161.71 131.872 162.498 132.891 162.498C133.909 162.498 134.735 161.71 134.735 160.739V143.428Z" fill="#AAABB0"/>
<path d="M186.76 43.4159C186.76 43.4159 190.449 41.921 191.002 43.4159C191.556 44.9108 191.832 57.8298 191.832 57.8298H188.326L186.76 43.4159Z" fill="#AAABB0"/>
<path d="M146.36 43.4159C146.36 43.4159 142.668 41.921 142.115 43.4159C141.561 44.9108 141.285 57.8298 141.285 57.8298H144.791L146.36 43.4159Z" fill="#AAABB0"/>
<path d="M146.91 30.5838L146.357 41.3066H148.847V30.3202L146.91 30.5838Z" fill="#AAABB0"/>
<path d="M144.791 57.8299L145.53 42.3613C145.53 42.3613 145.253 38.9338 154.014 39.9884C162.775 41.043 188.421 43.1523 188.421 43.1523V57.8299H144.791Z" fill="#33323D"/>
<path d="M179.842 139.299L178.458 162.938C178.458 162.938 158.164 173.661 133.537 163.466L135.75 138.595L179.842 139.299Z" fill="#33323D"/>
<path d="M160.563 46.2265L161.023 61.5184H189.618L187.958 41.3067L160.563 46.2265Z" fill="#444053"/>
<path d="M163.469 129.19H136.534V161.707H163.469V129.19Z" fill="#4C4981"/>
<path d="M153.554 142.463C153.554 142.463 157.428 139.563 158.073 140.441C158.718 141.319 155.771 145.099 154.57 144.659C153.369 144.219 153.554 142.463 153.554 142.463Z" fill="#FFB9B9"/>
<path d="M261.075 56.9493H84.2627V141.319H261.075V56.9493Z" fill="#504F60"/>
<path d="M144.882 29.9695C144.882 29.9695 143.498 17.6648 144.882 16.1725C146.266 14.6802 169.51 0.527287 191.002 17.1375C191.002 17.1375 193.03 17.2271 192.662 21.6196C192.445 24.3997 192.46 27.1917 192.707 29.9695C192.707 29.9695 146.451 33.1334 144.882 29.9695Z" fill="#33323D"/>
<path opacity="0.1" d="M144.882 29.9695C144.882 29.9695 143.498 17.6648 144.882 16.1725C146.266 14.6802 169.51 0.527287 191.002 17.1375C191.002 17.1375 193.03 17.2271 192.662 21.6196C192.445 24.3997 192.46 27.1917 192.707 29.9695C192.707 29.9695 146.451 33.1334 144.882 29.9695Z" fill="black"/>
<path d="M144.882 31.5515C144.882 31.5515 143.498 19.2468 144.882 17.7545C146.266 16.2622 169.51 2.10926 191.002 18.7195C191.002 18.7195 193.03 18.8091 192.662 23.2016C192.445 25.9816 192.46 28.7737 192.707 31.5515C192.707 31.5515 146.451 34.7153 144.882 31.5515Z" fill="#33323D"/>
<path d="M193.493 25.9277C193.493 25.9277 194.968 31.2008 194.508 32.0788C194.049 32.9568 194.132 35.4193 194.132 35.4193C194.132 35.4193 194.232 37.0012 193.493 37.1752C192.754 37.3492 192.109 37.4389 192.707 37.9662C193.305 38.4935 192.707 39.2845 192.707 39.2845C192.707 39.2845 192.383 40.5157 192.707 41.3067C193.031 42.0976 190.814 42.4272 191.002 43.4159C191.19 44.4046 191.81 47.1941 191.002 47.2837C190.194 47.3734 191.279 50.7982 190.551 50.7982C189.823 50.7982 189.306 56.9493 189.306 56.9493C189.306 56.9493 184.187 52.8205 180.775 53.9621C180.775 53.9621 181.052 50.5346 182.158 49.3033C183.265 48.072 182.931 44.9108 182.931 44.9108L188.421 29.1786L193.493 25.9277Z" fill="#4C4981"/>
<path d="M166.098 98.6383C164.9 99.9012 163.607 93.1569 163.607 93.1569C163.607 93.1569 160.195 97.639 157.982 94.6518C156.449 92.5821 157.658 86.7185 158.535 83.3147C158.928 81.8013 159.26 80.7731 159.26 80.7731L164.241 79.9821C164.241 79.9821 164.258 81.0156 164.368 82.2706C164.518 83.9659 164.841 86.0699 165.53 86.5735C166.745 87.4462 167.299 97.3648 166.098 98.6383Z" fill="#AE6E79"/>
<path opacity="0.1" d="M163.516 19.6871C163.516 19.6871 154.844 19.6 152.724 23.9925C150.605 28.385 150.511 29.8826 149.68 30.5839C148.85 31.2852 158.718 34.979 158.718 34.979L159.18 50.0943C159.18 50.0943 161.117 48.225 164.252 49.0713C167.387 49.9176 171.355 49.0713 171.355 49.0713C171.355 49.0713 171.17 48.7523 173.755 49.0713C176.339 49.3903 184.546 45.2615 184.546 45.2615C184.546 45.2615 184.682 38.6491 184.499 37.2411C184.317 35.8332 190.355 25.4874 190.355 25.4874C190.355 25.4874 195.059 21.182 190.172 19.6871C190.172 19.6871 188.443 17.2034 183.993 17.2272C179.543 17.2509 163.516 19.6871 163.516 19.6871Z" fill="black"/>
<path d="M163.516 19.4234C163.516 19.4234 154.844 19.3364 152.724 23.7288C150.605 28.1213 150.511 29.6189 149.68 30.3202C148.85 31.0215 158.718 34.7153 158.718 34.7153L159.18 49.8306C159.18 49.8306 161.117 47.9613 164.252 48.8076C167.387 49.6539 171.355 48.8076 171.355 48.8076C171.355 48.8076 171.17 48.4886 173.755 48.8076C176.339 49.1266 184.546 44.9978 184.546 44.9978C184.546 44.9978 187.773 39.9884 187.59 38.5831C187.408 37.1778 194.046 26.542 194.046 26.542C194.046 26.542 195.062 20.9183 190.172 19.4234C190.172 19.4234 188.443 16.9398 183.993 16.9635C179.543 16.9872 163.516 19.4234 163.516 19.4234Z" fill="#4C4981"/>
<path opacity="0.1" d="M164.391 82.2627C162.49 81.6984 159.507 82.9429 158.558 83.3173C158.951 81.8039 159.283 80.7756 159.283 80.7756L164.263 79.9847C164.263 79.9847 164.272 81.0182 164.391 82.2627Z" fill="black"/>
<path d="M152.354 30.3202H149.681C149.681 30.3202 149.127 35.6829 149.681 37.2648C150.234 38.8468 150.511 38.6174 150.325 39.788C150.14 40.9586 151.618 42.7515 151.618 42.7515C151.618 42.7515 151.8 47.1703 152.724 48.8155C153.649 50.4607 151.709 57.8377 151.709 57.8377C152.238 59.1112 153.021 60.2751 154.014 61.2653C155.583 62.7575 156.413 68.2943 155.951 70.4035C155.489 72.5127 157.243 73.3037 157.243 73.3037C157.243 73.3037 157.982 83.1485 158.259 83.1485C158.535 83.1485 163.884 80.512 165.545 82.7952L164.252 73.744L164.346 56.2558C164.346 56.2558 162.592 54.057 163.516 52.1244C164.441 50.1918 162.777 45.62 162.777 45.62L160.378 35.4272L152.354 30.3202Z" fill="#4C4981"/>
<path d="M135.75 169.266C135.75 169.266 131.876 168.475 131.785 169.266C131.694 170.057 127.172 178.143 132.8 180.516C138.429 182.889 153.46 187.985 177.905 181.394C177.905 181.394 179.471 181.921 179.103 178.67C178.735 175.42 178.735 171.815 178.735 171.815C178.735 171.815 175.044 170.848 172.277 171.201C169.509 171.554 145.435 176.21 135.75 169.266Z" fill="#33323D"/>
<path opacity="0.1" d="M135.75 169.266C135.75 169.266 131.876 168.475 131.785 169.266C131.694 170.057 127.172 178.143 132.8 180.516C138.429 182.889 153.46 187.985 177.905 181.394C177.905 181.394 179.471 181.921 179.103 178.67C178.735 175.42 178.735 171.815 178.735 171.815C178.735 171.815 175.044 170.848 172.277 171.201C169.509 171.554 145.435 176.21 135.75 169.266Z" fill="black"/>
<path d="M135.75 168.211C135.75 168.211 131.876 167.42 131.785 168.211C131.694 169.002 127.172 177.088 132.8 179.461C138.429 181.834 153.46 186.931 177.905 180.339C177.905 180.339 179.471 180.867 179.103 177.616C178.735 174.365 178.735 170.761 178.735 170.761C178.735 170.761 175.044 169.793 172.277 170.146C169.509 170.5 145.435 175.156 135.75 168.211Z" fill="#33323D"/>
<path d="M158.342 33.4788C158.104 34.7681 157.564 36.0072 157.481 37.3123C157.398 38.6174 157.927 40.1018 159.191 40.6133C159.544 40.7137 159.886 40.8461 160.212 41.0087C160.699 41.3225 160.898 41.9131 161.001 42.4668C161.137 43.1816 161.169 43.9108 161.098 44.634C161.029 45.3617 160.865 46.1447 161.242 46.7801C161.903 47.9059 163.627 47.7398 164.939 47.4235L164.487 50.7534C164.451 51.0171 164.429 51.315 164.631 51.4943C164.727 51.5583 164.835 51.6035 164.949 51.627C165.063 51.6506 165.181 51.6521 165.295 51.6314C166.436 51.5628 167.609 51.4125 168.586 50.8404C169.562 50.2683 170.29 49.2031 170.105 48.13C169.889 46.8856 168.539 45.8969 168.721 44.6472C168.862 43.6796 169.856 43.0652 170.509 42.3217C171.69 40.9613 171.754 38.8942 170.827 37.3545C169.9 35.8148 168.11 34.8603 166.267 34.6863C165.246 34.5888 164.183 34.7074 163.223 34.3699C162.889 34.2532 162.588 34.0644 162.343 33.8183C162.098 33.5723 161.916 33.2756 161.812 32.9515" fill="#444053"/>
<path d="M126.16 150.723L127.125 148.719C127.125 148.719 132.339 144.092 133.537 143.768C134.735 143.444 139.625 142.03 140.363 142.03C141.102 142.03 154.57 141.326 154.57 141.326L156.136 144.844L139.234 148.379L133.537 152.334L126.16 150.723Z" fill="#767D9F"/>
<path d="M166.767 96.761L165.885 103.234L165.544 105.725L161.579 106.253C161.579 106.253 161.15 105.377 160.544 104.033C158.704 99.9513 155.24 91.5354 157.248 90.0827C159.919 88.1474 160.569 94.5648 160.569 94.5648L163.613 93.1569L166.767 96.761Z" fill="#FFB9B9"/>
<path d="M166.106 108.802H146.08V137.627H166.106V108.802Z" fill="white"/>
<path opacity="0.1" d="M166.106 108.802H146.08V137.627H166.106V108.802Z" fill="black"/>
<path d="M175.107 110.363L155.296 107.572L150.872 136.087L170.682 138.878L175.107 110.363Z" fill="white"/>
<path d="M167.358 111.728L157.162 110.292L154.884 124.968L165.081 126.404L167.358 111.728Z" fill="#124612"/>
<path d="M166.144 130.885L153.791 129.145L153.296 132.332L165.65 134.072L166.144 130.885Z" fill="#124612"/>
<path opacity="0.1" d="M171.356 36.0758C177.748 36.0758 182.931 31.1381 182.931 25.0471C182.931 18.9562 177.748 14.0185 171.356 14.0185C164.963 14.0185 159.781 18.9562 159.781 25.0471C159.781 31.1381 164.963 36.0758 171.356 36.0758Z" fill="black"/>
<path d="M171.356 35.8121C177.748 35.8121 182.931 30.8744 182.931 24.7835C182.931 18.6925 177.748 13.7548 171.356 13.7548C164.963 13.7548 159.781 18.6925 159.781 24.7835C159.781 30.8744 164.963 35.8121 171.356 35.8121Z" fill="#AE6E79"/>
<path d="M161.811 32.9568C161.733 32.6727 161.761 32.3714 161.891 32.1052C162.331 31.2325 163.585 31.156 164.601 31.2009C166.989 31.3063 169.609 31.3195 171.477 29.8826C172.252 29.292 173.118 27.8076 174.244 28.0897C175.246 28.3402 175.664 29.6348 176.707 29.9221C177.462 30.1304 178.245 29.7982 179.015 29.6585C180.121 29.4502 181.256 29.6242 182.379 29.6321C183.503 29.64 184.723 29.437 185.49 28.654C186.525 27.5993 186.356 25.9515 186.264 24.5067C186.151 22.6403 186.284 20.7678 186.66 18.933C187.037 17.1086 187.615 15.0679 186.558 13.5044C185.551 12.0148 183.464 11.6061 182.039 10.4645C180.705 9.40985 180 7.71983 178.591 6.74167C176.817 5.51041 174.407 5.68706 172.227 5.90062L167.495 6.38047C166.275 6.50439 165.005 6.64412 164 7.33753C162.188 8.58725 161.939 11.1842 160.223 12.5526C159.459 13.159 158.482 13.4596 157.611 13.9131C156.739 14.3665 155.898 15.0837 155.798 16.0223C155.715 16.8133 156.164 17.5436 156.382 18.3055C156.9 20.1248 156.092 21.9967 155.574 23.8291C155.057 25.6615 154.957 27.8867 156.46 29.1022C156.764 29.35 157.118 29.5398 157.414 29.7982C158.43 30.6815 158.568 32.1711 158.333 33.4577" fill="#444053"/>
<path d="M172.299 38.5594C172.452 38.5594 172.576 38.2643 172.576 37.9003C172.576 37.5363 172.452 37.2411 172.299 37.2411C172.146 37.2411 172.022 37.5363 172.022 37.9003C172.022 38.2643 172.146 38.5594 172.299 38.5594Z" fill="#444053"/>
<path d="M172.299 41.3067C172.452 41.3067 172.576 41.0116 172.576 40.6475C172.576 40.2835 172.452 39.9884 172.299 39.9884C172.146 39.9884 172.022 40.2835 172.022 40.6475C172.022 41.0116 172.146 41.3067 172.299 41.3067Z" fill="#444053"/>
<path d="M166.162 98.6198C166.458 98.2955 166.654 97.4623 166.768 96.3629L163.469 92.445C163.469 92.445 164.867 100.041 166.162 98.6198Z" fill="#AE6E79"/>
<path opacity="0.1" d="M169.88 163.378C169.88 163.378 164.468 171.351 147.558 170.497C131.627 169.706 123.852 162.237 124.223 159.6C124.593 156.964 123.207 150.546 126.619 148.701C128.597 147.633 131.201 148.266 133.039 148.988C133.674 149.234 134.368 149.303 135.043 149.188C135.717 149.072 136.343 148.778 136.849 148.337C138.529 146.895 141.661 145.271 146.606 146.549C147.242 146.711 147.913 146.699 148.543 146.515C150.602 145.917 155.502 144.878 159.058 147.185C159.62 147.554 160.281 147.763 160.963 147.788C161.645 147.812 162.32 147.652 162.91 147.325L162.96 147.296C164.62 146.328 172.368 155.469 172.368 155.469C172.368 155.469 172.739 162.5 169.88 163.378Z" fill="black"/>
<path d="M169.88 163.642C169.88 163.642 164.468 171.615 147.558 170.761C131.627 169.97 123.852 162.5 124.223 159.864C124.593 157.227 123.207 150.81 126.619 148.964C128.597 147.897 131.201 148.529 133.039 149.252C133.674 149.497 134.368 149.567 135.043 149.451C135.717 149.336 136.343 149.041 136.849 148.601C138.529 147.158 141.661 145.534 146.606 146.813C147.242 146.975 147.913 146.963 148.543 146.779C150.602 146.18 155.502 145.141 159.058 147.448C159.62 147.818 160.281 148.027 160.963 148.051C161.645 148.076 162.32 147.915 162.91 147.588L162.96 147.559C164.62 146.592 172.368 155.732 172.368 155.732C172.368 155.732 172.739 162.764 169.88 163.642Z" fill="#767D9F"/>
<path opacity="0.1" d="M147.558 166.764C153.647 166.764 158.582 162.061 158.582 156.26C158.582 150.459 153.647 145.756 147.558 145.756C141.469 145.756 136.534 150.459 136.534 156.26C136.534 162.061 141.469 166.764 147.558 166.764Z" fill="black"/>
<path d="M147.558 167.027C153.647 167.027 158.582 162.325 158.582 156.523C158.582 150.722 153.647 146.019 147.558 146.019C141.469 146.019 136.534 150.722 136.534 156.523C136.534 162.325 141.469 167.027 147.558 167.027Z" fill="#FFB9B9"/>
<path d="M144.398 147.443C143.241 147.741 142.101 148.311 141.536 149.247C141.196 149.811 141.077 150.488 140.585 150.958C139.887 151.625 138.711 151.638 137.768 152.012C136.824 152.387 136.201 153.705 137.126 154.122C136.163 154.169 135.449 155.015 135.33 155.856C135.211 156.697 135.546 157.536 135.869 158.337C136.926 160.932 138.064 163.639 140.394 165.485C144.19 168.496 149.913 168.356 155.013 168.037C155.429 168.05 155.842 167.959 156.211 167.774C156.764 167.426 156.833 166.758 156.925 166.173C157.309 163.674 158.732 161.404 159.661 159.018C160.591 156.632 160.973 153.829 159.407 151.717C157.102 148.585 148.277 146.441 144.398 147.443Z" fill="#B96B6B"/>
<path opacity="0.1" d="M165.885 103.234L165.544 105.725L161.579 106.253C161.579 106.253 161.15 105.377 160.544 104.033L165.821 103.089L165.885 103.234Z" fill="black"/>
<path d="M170.063 158.282L172.371 155.732L171.909 141.672C172.136 140.657 172.291 139.629 172.371 138.595C172.462 137.1 171.217 133.762 171.217 133.762C171.41 133.094 171.673 132.446 172 131.827C172.554 130.772 171.22 128.399 171.22 128.399C171.22 128.399 169.233 122.248 170.063 119.172C170.893 116.095 169.861 114.339 169.861 114.339C169.861 114.339 169.05 110.911 169.142 109.506C169.233 108.101 167.296 106.78 167.296 106.78L165.821 103.352L159.919 104.407V116.271C159.919 116.271 160.287 127.609 159.919 129.807C159.551 132.006 160.655 134.113 160.655 134.113C160.655 134.113 160.01 137.364 160.564 138.595C161.117 139.826 162.224 142.813 162.224 142.813C162.018 143.881 162.082 144.98 162.409 146.019C162.963 147.559 162.409 148.437 162.409 148.437L170.063 158.282Z" fill="#767D9F"/>
<g opacity="0.1">
<path opacity="0.1" d="M186.669 18.0655C186.356 19.6089 186.216 21.1793 186.251 22.7507C186.274 21.4441 186.418 20.1419 186.68 18.8591C186.923 17.6885 187.233 16.4282 187.167 15.2603C187.065 16.2047 186.898 17.1417 186.669 18.0655Z" fill="black"/>
<path opacity="0.1" d="M157.423 28.9492C157.126 28.6855 156.772 28.501 156.468 28.2505C155.66 27.594 155.32 26.6422 155.253 25.614C155.173 26.9322 155.455 28.2083 156.468 29.0415C156.772 29.2919 157.126 29.4818 157.423 29.7401C158.041 30.3237 158.4 31.1123 158.424 31.9416C158.504 30.8343 158.269 29.6821 157.423 28.9492Z" fill="black"/>
<path opacity="0.1" d="M156.54 19.1043C156.588 18.5474 156.538 17.9868 156.39 17.4459C156.23 16.8817 155.942 16.3306 155.837 15.7638C155.837 15.8244 155.815 15.8877 155.806 15.9536C155.726 16.7446 156.174 17.4749 156.39 18.2369C156.47 18.5206 156.52 18.8112 156.54 19.1043Z" fill="black"/>
<path opacity="0.1" d="M185.498 27.7865C184.731 28.5774 183.511 28.7725 182.387 28.7646C181.264 28.7567 180.127 28.5827 179.023 28.7936C178.253 28.9413 177.47 29.2708 176.715 29.0573C175.672 28.7699 175.254 27.4754 174.255 27.2249C173.118 26.9401 172.251 28.4245 171.488 29.0151C169.62 30.4388 166.999 30.4256 164.611 30.3334C163.596 30.2885 162.342 30.365 161.905 31.2403C161.772 31.5058 161.743 31.8081 161.825 32.0919L158.443 32.5981C158.431 32.8634 158.4 33.1276 158.352 33.3891L161.825 32.8618C161.743 32.578 161.772 32.2756 161.905 32.0102C162.342 31.1349 163.596 31.0584 164.611 31.1032C166.999 31.2087 169.62 31.2219 171.488 29.785C172.263 29.1944 173.129 27.71 174.255 27.9947C175.254 28.2426 175.672 29.5398 176.715 29.8271C177.47 30.0328 178.253 29.7032 179.023 29.5635C180.13 29.3526 181.264 29.5266 182.387 29.5345C183.511 29.5424 184.731 29.3394 185.498 28.5563C186.264 27.7733 186.375 26.6053 186.328 25.4663C186.295 26.3495 186.104 27.1669 185.498 27.7865Z" fill="black"/>
</g>
<g opacity="0.1">
<path opacity="0.1" d="M159.883 40.4498C159.557 40.2863 159.215 40.1538 158.862 40.0543C158.261 39.7943 157.785 39.3298 157.525 38.7519C157.733 39.6615 158.259 40.4894 159.139 40.8453C159.492 40.9448 159.834 41.0773 160.16 41.2408C160.368 41.381 160.536 41.5686 160.649 41.7866C160.539 41.2698 160.337 40.7425 159.883 40.4498Z" fill="black"/>
<path opacity="0.1" d="M164.609 46.8645C163.334 47.173 161.668 47.3338 160.968 46.3029C160.99 46.5513 161.065 46.7928 161.189 47.0121C161.787 48.0272 163.248 47.9929 164.49 47.7425L164.609 46.8645Z" fill="black"/>
<path opacity="0.1" d="M169.778 47.5869C169.955 48.6574 169.225 49.7252 168.256 50.2867C167.288 50.8483 166.106 51.0039 164.966 51.0777C164.785 51.1001 164.601 51.0801 164.429 51.0197C164.377 51.1312 164.361 51.2546 164.381 51.375C164.402 51.4954 164.458 51.6075 164.545 51.6976C164.631 51.7876 164.743 51.8518 164.867 51.8822C164.991 51.9126 165.122 51.9079 165.243 51.8687C166.383 51.8001 167.556 51.6498 168.533 51.0777C169.51 50.5056 170.24 49.4404 170.052 48.3673C169.999 48.0964 169.907 47.8338 169.778 47.5869Z" fill="black"/>
<path opacity="0.1" d="M171.007 38.0427C171.176 38.6837 171.189 39.353 171.045 39.9996C170.902 40.6461 170.605 41.2528 170.177 41.7734C169.524 42.5274 168.531 43.1312 168.39 44.0988C168.342 44.5437 168.439 44.9916 168.666 45.3828C168.641 45.2193 168.641 45.0532 168.666 44.8898C168.807 43.9221 169.801 43.3078 170.454 42.5643C171.528 41.3278 171.677 39.5059 171.007 38.0427Z" fill="black"/>
</g>
<g opacity="0.1">
<path opacity="0.1" d="M137.77 152.418C138.711 152.047 139.887 152.033 140.587 151.364C141.08 150.894 141.199 150.217 141.539 149.655C142.093 148.717 143.241 148.15 144.398 147.852C148.272 146.85 157.105 148.991 159.407 152.094C160.082 153.033 160.449 154.141 160.464 155.279C160.552 153.965 160.182 152.661 159.41 151.569C157.107 148.466 148.283 146.325 144.401 147.327C143.244 147.625 142.104 148.192 141.542 149.131C141.202 149.692 141.083 150.37 140.59 150.839C139.89 151.506 138.714 151.519 137.773 151.894C137.057 152.176 136.525 153.009 136.719 153.568C136.796 153.315 136.93 153.081 137.112 152.883C137.293 152.684 137.518 152.526 137.77 152.418Z" fill="black"/>
<path opacity="0.1" d="M135.335 156.249C135.452 155.406 136.166 154.562 137.131 154.514C137.03 154.474 136.939 154.413 136.866 154.335C136.793 154.257 136.739 154.164 136.708 154.064C136.341 154.194 136.018 154.417 135.774 154.709C135.53 155.001 135.375 155.352 135.324 155.722C135.298 155.937 135.298 156.153 135.324 156.368C135.335 156.328 135.335 156.289 135.335 156.249Z" fill="black"/>
</g>
<path d="M193.952 60.7037H168.771V91.9915H193.952V60.7037Z" fill="white"/>
<path opacity="0.1" d="M193.952 60.7037H168.771V91.9915H193.952V60.7037Z" fill="black"/>
<path d="M203.573 62.5393L178.756 66.6065L184.323 97.4415L209.14 93.3743L203.573 62.5393Z" fill="white"/>
<path d="M190.602 86.6711L184.771 87.6267L186.079 94.871L191.909 93.9154L190.602 86.6711Z" fill="#124612"/>
<path d="M198.67 85.3474L192.839 86.303L194.147 93.5473L199.978 92.5917L198.67 85.3474Z" fill="#124612"/>
<path d="M204.371 74.7339L183.924 78.0793L185.235 85.3565L205.683 82.0111L204.371 74.7339Z" fill="#124612"/>
<path d="M202.667 66.0486L182.219 69.394L182.512 71.0176L202.959 67.6721L202.667 66.0486Z" fill="#124612"/>
<path d="M203.338 69.0351L182.89 72.3806L183.183 74.0041L203.63 70.6586L203.338 69.0351Z" fill="#124612"/>
<path d="M182.93 52.2035C182.93 52.2035 171.355 63.277 177.166 66.0901C182.977 68.9033 186.76 56.7304 186.76 56.7304L187.678 53.9621L182.93 52.2035Z" fill="#AE6E79"/>
<path opacity="0.1" d="M181.917 51.2253L180.487 54.2363C180.487 54.2363 187.543 55.1802 189.018 57.2129L188.144 51.9003L187.106 49.6329L181.917 51.2253Z" fill="black"/>
<path d="M182.194 50.9617L180.764 53.9726C180.764 53.9726 187.82 54.9165 189.295 56.9493L188.42 51.6366L187.383 49.3692L182.194 50.9617Z" fill="#4C4981"/>
<path d="M224.908 106.321L224.756 106.421L224.966 106.511L225.193 106.492L225.221 106.342L224.908 106.321Z" fill="#464A5F"/>
<path opacity="0.1" d="M224.908 106.321L224.756 106.421L224.966 106.511L225.193 106.492L225.221 106.342L224.908 106.321Z" fill="black"/>
<path d="M224.908 106.321L224.753 106.416L224.631 106.274L224.706 106.158L224.775 106.137L224.908 106.321Z" fill="#9C9CA1"/>
<path opacity="0.1" d="M224.908 106.321L224.753 106.416L224.631 106.274L224.706 106.158L224.775 106.137L224.908 106.321Z" fill="black"/>
<path d="M252.145 88.1L240.816 72.5101C240.716 72.371 240.588 72.2521 240.439 72.1602C240.291 72.0683 240.124 72.0052 239.95 71.9746C239.776 71.944 239.597 71.9464 239.424 71.9818C239.25 72.0171 239.086 72.0847 238.94 72.1806L213.687 88.6958C213.392 88.8891 213.189 89.1861 213.123 89.5217C213.057 89.8573 213.134 90.2041 213.336 90.4861L224.634 106.274L252.145 88.1Z" fill="#9C9CA1"/>
<path opacity="0.1" d="M252.145 88.1L240.816 72.5101C240.716 72.371 240.588 72.2521 240.439 72.1602C240.291 72.0683 240.124 72.0052 239.95 71.9746C239.776 71.944 239.597 71.9464 239.424 71.9818C239.25 72.0171 239.086 72.0847 238.94 72.1806L213.687 88.6958C213.392 88.8891 213.189 89.1861 213.123 89.5217C213.057 89.8573 213.134 90.2041 213.336 90.4861L224.634 106.274L252.145 88.1Z" fill="black"/>
<path d="M252.422 88.1369L241.093 72.547C240.992 72.4078 240.864 72.2888 240.715 72.1969C240.566 72.1049 240.4 72.0419 240.225 72.0113C240.051 71.9806 239.872 71.9831 239.698 72.0185C239.525 72.0539 239.36 72.1215 239.214 72.2174L213.964 88.7433C213.669 88.9365 213.466 89.2333 213.399 89.5688C213.333 89.9042 213.409 90.251 213.61 90.5335L224.908 106.329L252.422 88.1369Z" fill="#9C9CA1"/>
<path d="M261.891 91.219L252.482 88.3399L224.966 106.514L234.524 109.493C234.737 109.559 234.965 109.577 235.187 109.545C235.409 109.513 235.621 109.432 235.805 109.308L261.968 91.7068C262.017 91.6806 262.057 91.6407 262.081 91.5926C262.106 91.5445 262.115 91.4903 262.106 91.4374C262.098 91.3844 262.073 91.3351 262.034 91.2961C261.996 91.2571 261.946 91.2302 261.891 91.219Z" fill="#464A5F"/>
<path opacity="0.1" d="M261.891 91.219L252.482 88.3399L224.966 106.514L234.524 109.493C234.737 109.559 234.965 109.577 235.187 109.545C235.409 109.513 235.621 109.432 235.805 109.308L261.968 91.7068C262.017 91.6806 262.057 91.6407 262.081 91.5926C262.106 91.5445 262.115 91.4903 262.106 91.4374C262.098 91.3844 262.073 91.3351 262.034 91.2961C261.996 91.2571 261.946 91.2302 261.891 91.219Z" fill="black"/>
<path d="M261.833 91.0371L252.424 88.1554L224.908 106.329L234.465 109.303C234.679 109.371 234.906 109.389 235.129 109.358C235.351 109.326 235.563 109.245 235.747 109.121L261.91 91.5196C261.957 91.4927 261.995 91.453 262.018 91.4057C262.042 91.3583 262.05 91.3053 262.041 91.2536C262.033 91.2018 262.009 91.1536 261.972 91.1151C261.934 91.0765 261.886 91.0494 261.833 91.0371Z" fill="#464A5F"/>
<g opacity="0.1">
<path opacity="0.1" d="M247.978 87.4409L247.284 86.4917C247.242 86.4367 247.179 86.3991 247.109 86.3868C247.039 86.3745 246.967 86.3885 246.907 86.4258L245.875 87.0823C245.817 87.1212 245.777 87.1798 245.763 87.2461C245.749 87.3123 245.763 87.3811 245.8 87.4382L246.44 88.3742C246.48 88.4303 246.541 88.4695 246.61 88.4837C246.68 88.498 246.752 88.4861 246.813 88.4507L247.901 87.7994C247.96 87.7609 248.001 87.7019 248.015 87.6351C248.03 87.5682 248.016 87.4986 247.978 87.4409Z" fill="black"/>
<path opacity="0.1" d="M246.124 88.6642L245.427 87.7177C245.385 87.6627 245.323 87.6251 245.252 87.6128C245.182 87.6005 245.11 87.6145 245.05 87.6518L244.021 88.3136C243.963 88.3521 243.922 88.4105 243.908 88.4768C243.893 88.543 243.906 88.612 243.944 88.6695L244.583 89.6055C244.622 89.662 244.683 89.7017 244.753 89.7165C244.822 89.7312 244.895 89.7198 244.956 89.6846L246.047 89.0334C246.077 89.0142 246.104 88.9894 246.124 88.9604C246.145 88.9313 246.159 88.8987 246.167 88.8643C246.174 88.8299 246.174 88.7945 246.166 88.7602C246.159 88.7258 246.145 88.6932 246.124 88.6642Z" fill="black"/>
<path opacity="0.1" d="M244.176 89.9482L243.479 89.0017C243.437 88.9467 243.374 88.9091 243.304 88.8968C243.234 88.8845 243.162 88.8985 243.102 88.9358L242.07 89.5976C242.011 89.6366 241.971 89.6957 241.957 89.7625C241.943 89.8294 241.957 89.8988 241.995 89.9561L242.635 90.8921C242.675 90.9482 242.736 90.9874 242.805 91.0016C242.875 91.0159 242.948 91.004 243.008 90.9686L244.096 90.3174C244.127 90.2984 244.153 90.2737 244.174 90.2448C244.195 90.2159 244.21 90.1833 244.217 90.1489C244.225 90.1145 244.225 90.079 244.218 90.0446C244.211 90.0101 244.196 89.9774 244.176 89.9482Z" fill="black"/>
<path opacity="0.1" d="M242.203 91.2507L241.505 90.3015C241.464 90.2472 241.402 90.2101 241.332 90.1978C241.263 90.1856 241.191 90.1991 241.132 90.2356L240.1 90.9C240.042 90.9389 240.002 90.9976 239.988 91.0638C239.974 91.13 239.987 91.1988 240.025 91.2559L240.664 92.1919C240.704 92.2477 240.764 92.287 240.833 92.3017C240.902 92.3164 240.974 92.3054 241.035 92.271L242.125 91.6172C242.156 91.598 242.182 91.5733 242.202 91.5445C242.222 91.5157 242.237 91.4833 242.244 91.4493C242.251 91.4152 242.251 91.3801 242.244 91.3461C242.237 91.312 242.223 91.2796 242.203 91.2507Z" fill="black"/>
<path opacity="0.1" d="M240.233 92.5505L239.535 91.604C239.493 91.5489 239.431 91.5113 239.361 91.499C239.291 91.4868 239.218 91.5007 239.159 91.538L238.129 92.1998C238.071 92.2383 238.03 92.2968 238.016 92.363C238.002 92.4293 238.014 92.4983 238.052 92.5558L238.691 93.4917C238.731 93.5482 238.792 93.588 238.861 93.6027C238.931 93.6175 239.004 93.606 239.065 93.5708L240.155 92.917C240.185 92.8978 240.212 92.8731 240.232 92.8443C240.252 92.8155 240.267 92.7831 240.274 92.7491C240.281 92.715 240.281 92.6799 240.274 92.6459C240.267 92.6118 240.253 92.5794 240.233 92.5505Z" fill="black"/>
<path opacity="0.1" d="M238.348 93.9689L237.482 92.7931C237.473 92.78 237.461 92.7688 237.447 92.7601C237.433 92.7514 237.418 92.7454 237.402 92.7425C237.385 92.7395 237.369 92.7397 237.353 92.7429C237.336 92.7462 237.321 92.7525 237.307 92.7614L236.04 93.5761C236.026 93.5846 236.014 93.5957 236.005 93.6088C235.995 93.6218 235.989 93.6365 235.985 93.6519C235.982 93.6674 235.982 93.6834 235.985 93.6989C235.988 93.7144 235.995 93.7291 236.004 93.7422L236.798 94.9049C236.816 94.9316 236.845 94.9505 236.878 94.9574C236.91 94.9643 236.944 94.9587 236.973 94.9418L238.312 94.1509C238.328 94.1422 238.342 94.1302 238.353 94.1159C238.363 94.1016 238.371 94.0852 238.374 94.0679C238.378 94.0505 238.377 94.0327 238.373 94.0156C238.368 93.9986 238.36 93.9826 238.348 93.9689Z" fill="black"/>
<path opacity="0.1" d="M236.378 95.2687L235.506 94.0928C235.497 94.0796 235.485 94.0684 235.471 94.0597C235.457 94.0509 235.441 94.0449 235.424 94.042C235.408 94.0391 235.391 94.0392 235.375 94.0425C235.358 94.0458 235.343 94.0522 235.329 94.0612L234.062 94.8759C234.034 94.894 234.016 94.9215 234.01 94.9525C234.003 94.9835 234.01 95.0156 234.028 95.042L234.823 96.2047C234.831 96.2185 234.842 96.2304 234.856 96.2399C234.869 96.2493 234.885 96.2559 234.901 96.2594C234.918 96.2629 234.935 96.2631 234.951 96.26C234.967 96.2569 234.983 96.2507 234.997 96.2416L236.333 95.4506C236.351 95.443 236.366 95.4318 236.377 95.4178C236.389 95.4038 236.398 95.3875 236.402 95.3699C236.406 95.3524 236.406 95.3342 236.402 95.3166C236.398 95.2991 236.39 95.2827 236.378 95.2687Z" fill="black"/>
<path opacity="0.1" d="M234.632 96.4209L233.766 95.2556C233.747 95.2302 233.718 95.2129 233.685 95.2075C233.653 95.2021 233.619 95.2089 233.592 95.2266L232.324 96.0386C232.297 96.0568 232.277 96.0846 232.271 96.1161C232.264 96.1476 232.27 96.1803 232.288 96.2074L233.083 97.3701C233.101 97.3963 233.13 97.4147 233.162 97.4216C233.195 97.4284 233.228 97.4232 233.257 97.407L234.596 96.616C234.615 96.6077 234.631 96.5954 234.643 96.5799C234.655 96.5645 234.664 96.5465 234.667 96.5274C234.671 96.5082 234.669 96.4886 234.663 96.4701C234.657 96.4516 234.647 96.4347 234.632 96.4209Z" fill="black"/>
<path opacity="0.1" d="M232.678 97.7075L231.812 96.5316C231.793 96.5062 231.764 96.489 231.731 96.4836C231.699 96.4781 231.665 96.485 231.638 96.5026L230.37 97.3147C230.356 97.3235 230.344 97.3348 230.335 97.3481C230.325 97.3613 230.319 97.3762 230.316 97.3919C230.312 97.4076 230.312 97.4238 230.315 97.4395C230.319 97.4552 230.325 97.4701 230.334 97.4834L231.129 98.6461C231.147 98.6723 231.176 98.6908 231.208 98.6976C231.24 98.7045 231.274 98.6993 231.303 98.6831L232.642 97.8921C232.658 97.8831 232.672 97.8709 232.683 97.8564C232.694 97.8418 232.701 97.8252 232.705 97.8077C232.708 97.7902 232.707 97.7721 232.703 97.7549C232.698 97.7376 232.69 97.7214 232.678 97.7075Z" fill="black"/>
<path opacity="0.1" d="M230.785 98.9467L229.919 97.7708C229.91 97.7578 229.898 97.7465 229.885 97.7379C229.871 97.7292 229.855 97.7232 229.839 97.7202C229.823 97.7173 229.806 97.7175 229.79 97.7207C229.774 97.724 229.759 97.7302 229.745 97.7392L228.478 98.5539C228.464 98.5624 228.452 98.5735 228.442 98.5866C228.433 98.5996 228.426 98.6143 228.423 98.6297C228.42 98.6452 228.42 98.6612 228.423 98.6767C228.426 98.6922 228.432 98.7069 228.442 98.72L229.236 99.8827C229.254 99.9094 229.282 99.9283 229.315 99.9352C229.348 99.9421 229.382 99.9365 229.41 99.9196L230.749 99.1286C230.766 99.1199 230.779 99.108 230.79 99.0937C230.801 99.0793 230.808 99.0629 230.812 99.0456C230.815 99.0283 230.815 99.0105 230.81 98.9934C230.805 98.9763 230.797 98.9604 230.785 98.9467Z" fill="black"/>
<path opacity="0.1" d="M228.893 100.207L228.035 99.0284C228.015 99.003 227.986 98.9857 227.954 98.9803C227.921 98.9749 227.888 98.9818 227.86 98.9994L226.593 99.8115C226.579 99.8203 226.567 99.8316 226.558 99.8449C226.548 99.8581 226.542 99.873 226.538 99.8887C226.535 99.9044 226.535 99.9205 226.538 99.9363C226.541 99.952 226.548 99.9669 226.557 99.9802L227.351 101.143C227.37 101.169 227.398 101.188 227.431 101.194C227.463 101.201 227.497 101.196 227.526 101.18L228.865 100.389C228.88 100.379 228.893 100.367 228.903 100.352C228.913 100.338 228.92 100.321 228.922 100.304C228.925 100.287 228.924 100.269 228.919 100.252C228.913 100.236 228.905 100.22 228.893 100.207Z" fill="black"/>
<path opacity="0.1" d="M227 101.454L226.134 100.278C226.125 100.265 226.113 100.254 226.099 100.245C226.086 100.236 226.07 100.231 226.054 100.228C226.038 100.225 226.021 100.225 226.005 100.228C225.989 100.231 225.973 100.238 225.96 100.247L224.692 101.056C224.679 101.064 224.666 101.076 224.657 101.089C224.648 101.102 224.641 101.116 224.638 101.132C224.634 101.147 224.634 101.163 224.638 101.179C224.641 101.194 224.647 101.209 224.656 101.222L225.451 102.385C225.469 102.411 225.497 102.43 225.53 102.437C225.563 102.444 225.597 102.439 225.625 102.422L226.964 101.631C226.98 101.622 226.993 101.61 227.003 101.596C227.013 101.582 227.02 101.567 227.023 101.55C227.027 101.533 227.027 101.516 227.023 101.5C227.019 101.483 227.011 101.468 227 101.454Z" fill="black"/>
<path opacity="0.1" d="M246.733 85.7244L246.035 84.7753C245.993 84.7202 245.931 84.6826 245.861 84.6704C245.791 84.6581 245.718 84.6721 245.659 84.7094L244.638 85.3738C244.579 85.4123 244.539 85.4707 244.524 85.537C244.51 85.6032 244.523 85.6722 244.56 85.7297L245.199 86.6657C245.239 86.7217 245.301 86.761 245.37 86.7752C245.44 86.7894 245.512 86.7776 245.573 86.7421L246.663 86.0909C246.723 86.051 246.764 85.99 246.777 85.9213C246.79 85.8526 246.774 85.7818 246.733 85.7244Z" fill="black"/>
<path opacity="0.1" d="M244.007 81.9727L243.31 81.0183C243.268 80.9639 243.206 80.9268 243.137 80.9146C243.068 80.9023 242.996 80.9158 242.936 80.9523L241.904 81.6141C241.846 81.6526 241.805 81.7111 241.791 81.7773C241.776 81.8436 241.789 81.9126 241.827 81.97L242.466 82.906C242.506 82.9625 242.567 83.0023 242.636 83.017C242.706 83.0318 242.779 83.0203 242.84 82.9851L243.93 82.3339C243.99 82.2953 244.031 82.2358 244.046 82.1683C244.06 82.1008 244.046 82.0306 244.007 81.9727Z" fill="black"/>
<path opacity="0.1" d="M244.876 86.9478L244.179 86.0013C244.137 85.9469 244.075 85.9099 244.006 85.8976C243.936 85.8853 243.864 85.8989 243.805 85.9354L242.773 86.5971C242.715 86.6361 242.675 86.6947 242.661 86.7609C242.647 86.8271 242.661 86.8959 242.698 86.9531L243.335 87.889C243.374 87.9455 243.435 87.9853 243.505 88C243.574 88.0148 243.647 88.0033 243.708 87.9681L244.799 87.3169C244.829 87.2978 244.856 87.2729 244.876 87.2439C244.897 87.2149 244.911 87.1822 244.919 87.1479C244.926 87.1135 244.926 87.0781 244.919 87.0437C244.911 87.0094 244.897 86.9768 244.876 86.9478Z" fill="black"/>
<path opacity="0.1" d="M242.928 88.2318L242.231 87.2853C242.189 87.2302 242.126 87.1927 242.056 87.1804C241.986 87.1681 241.914 87.1821 241.854 87.2194L240.825 87.8732C240.766 87.9118 240.725 87.9707 240.71 88.0376C240.696 88.1045 240.709 88.1741 240.747 88.2318L241.387 89.1678C241.427 89.2239 241.488 89.2631 241.557 89.2773C241.627 89.2916 241.7 89.2797 241.76 89.2443L242.85 88.593C242.91 88.5544 242.952 88.495 242.967 88.4275C242.981 88.36 242.967 88.2897 242.928 88.2318Z" fill="black"/>
<path opacity="0.1" d="M240.955 89.5343L240.26 88.5852C240.218 88.5301 240.156 88.4925 240.086 88.4802C240.016 88.468 239.943 88.4819 239.884 88.5192L238.852 89.1916C238.794 89.2305 238.754 89.2891 238.74 89.3553C238.726 89.4215 238.739 89.4903 238.777 89.5475L239.416 90.4835C239.456 90.5395 239.517 90.5787 239.587 90.593C239.656 90.6072 239.729 90.5954 239.79 90.5599L240.877 89.9087C240.909 89.8895 240.936 89.8645 240.957 89.835C240.978 89.8055 240.993 89.7723 241 89.7373C241.007 89.7023 241.007 89.6663 240.999 89.6314C240.991 89.5965 240.976 89.5635 240.955 89.5343Z" fill="black"/>
<path opacity="0.1" d="M242.194 83.2566L241.497 82.3101C241.455 82.2558 241.394 82.2187 241.324 82.2064C241.255 82.1942 241.183 82.2077 241.124 82.2442L240.091 82.906C240.033 82.9445 239.992 83.0029 239.978 83.0692C239.964 83.1354 239.976 83.2044 240.014 83.2619L240.653 84.1979C240.693 84.2544 240.754 84.2941 240.823 84.3089C240.893 84.3236 240.966 84.3122 241.027 84.277L242.117 83.6258C242.148 83.6066 242.174 83.5818 242.195 83.5527C242.215 83.5237 242.23 83.4911 242.237 83.4567C242.244 83.4223 242.244 83.3869 242.237 83.3526C242.23 83.3182 242.215 83.2856 242.194 83.2566Z" fill="black"/>
<path opacity="0.1" d="M240.246 84.5433L239.549 83.5941C239.507 83.5391 239.445 83.5015 239.375 83.4892C239.304 83.4769 239.232 83.4909 239.172 83.5282L238.143 84.1821C238.085 84.2206 238.044 84.279 238.03 84.3453C238.015 84.4115 238.028 84.4805 238.066 84.538L238.705 85.474C238.745 85.53 238.806 85.5693 238.876 85.5835C238.945 85.5978 239.018 85.5859 239.078 85.5505L240.169 84.8992C240.227 84.8607 240.268 84.8023 240.282 84.736C240.296 84.6698 240.284 84.6008 240.246 84.5433Z" fill="black"/>
<path opacity="0.1" d="M238.274 85.8432L237.576 84.8966C237.535 84.8419 237.473 84.8043 237.404 84.7915C237.334 84.7788 237.262 84.7918 237.203 84.8281L236.17 85.5004C236.113 85.5393 236.072 85.5979 236.059 85.6642C236.045 85.7304 236.058 85.7992 236.096 85.8563L236.735 86.7923C236.775 86.8488 236.836 86.8886 236.905 86.9033C236.975 86.918 237.048 86.9066 237.109 86.8714L238.196 86.2175C238.228 86.1984 238.255 86.1733 238.276 86.1439C238.297 86.1144 238.312 86.0812 238.319 86.0462C238.326 86.0112 238.326 85.9751 238.318 85.9402C238.31 85.9053 238.295 85.8723 238.274 85.8432Z" fill="black"/>
<path opacity="0.1" d="M238.984 90.8341L238.287 89.8876C238.246 89.8328 238.184 89.7952 238.115 89.7825C238.045 89.7697 237.973 89.7828 237.914 89.8191L236.89 90.4835C236.832 90.5224 236.792 90.581 236.778 90.6472C236.764 90.7135 236.777 90.7822 236.815 90.8394L237.443 91.7754C237.483 91.8312 237.543 91.8704 237.612 91.8851C237.681 91.8999 237.753 91.8889 237.814 91.8545L238.904 91.2006C238.935 91.1817 238.961 91.1571 238.982 91.1284C239.002 91.0997 239.017 91.0674 239.024 91.0333C239.032 90.9992 239.032 90.9641 239.025 90.9299C239.018 90.8957 239.005 90.8632 238.984 90.8341Z" fill="black"/>
<path opacity="0.1" d="M237.015 92.1339L236.317 91.1874C236.276 91.1323 236.213 91.0948 236.143 91.0825C236.073 91.0702 236.001 91.0842 235.941 91.1215L234.912 91.7832C234.853 91.8218 234.813 91.8802 234.798 91.9465C234.784 92.0127 234.797 92.0817 234.834 92.1392L235.473 93.0752C235.513 93.1317 235.574 93.1714 235.644 93.1861C235.713 93.2009 235.786 93.1895 235.847 93.1543L236.937 92.503C236.968 92.4839 236.995 92.459 237.015 92.43C237.036 92.401 237.05 92.3683 237.057 92.334C237.065 92.2996 237.064 92.2642 237.057 92.2299C237.05 92.1955 237.035 92.1629 237.015 92.1339Z" fill="black"/>
<path opacity="0.1" d="M235.13 93.5523L234.264 92.3764C234.254 92.3633 234.243 92.3521 234.229 92.3434C234.215 92.3348 234.2 92.3288 234.183 92.3258C234.167 92.3229 234.15 92.323 234.134 92.3263C234.118 92.3295 234.103 92.3358 234.089 92.3448L232.822 93.1595C232.808 93.168 232.796 93.1791 232.787 93.1922C232.777 93.2052 232.771 93.2198 232.767 93.2353C232.764 93.2508 232.764 93.2667 232.767 93.2822C232.77 93.2977 232.777 93.3125 232.786 93.3256L233.58 94.4883C233.589 94.5018 233.6 94.5135 233.614 94.5227C233.627 94.5319 233.643 94.5384 233.659 94.5418C233.675 94.5453 233.692 94.5456 233.708 94.5427C233.725 94.5399 233.74 94.5339 233.754 94.5252L235.094 93.7342C235.11 93.7256 235.124 93.7136 235.134 93.6993C235.145 93.6849 235.153 93.6685 235.156 93.6512C235.159 93.6339 235.159 93.6161 235.154 93.599C235.15 93.5819 235.141 93.566 235.13 93.5523Z" fill="black"/>
<path opacity="0.1" d="M233.384 94.7045L232.518 93.526C232.498 93.5005 232.469 93.4833 232.437 93.4779C232.404 93.4725 232.371 93.4793 232.343 93.497L231.079 94.309C231.051 94.3272 231.032 94.355 231.025 94.3865C231.018 94.4179 231.025 94.4507 231.043 94.4778L231.837 95.6405C231.856 95.6667 231.884 95.6851 231.916 95.6919C231.949 95.6988 231.983 95.6936 232.011 95.6774L233.351 94.8864C233.367 94.8782 233.382 94.8664 233.393 94.852C233.404 94.8376 233.411 94.8209 233.415 94.8033C233.418 94.7857 233.417 94.7676 233.411 94.7505C233.406 94.7333 233.397 94.7176 233.384 94.7045Z" fill="black"/>
<path opacity="0.1" d="M231.43 95.9912L230.564 94.8153C230.544 94.7898 230.515 94.7726 230.483 94.7672C230.45 94.7618 230.417 94.7686 230.39 94.7863L229.122 95.5983C229.108 95.6069 229.096 95.618 229.087 95.631C229.077 95.644 229.071 95.6587 229.068 95.6742C229.064 95.6896 229.064 95.7056 229.067 95.7211C229.071 95.7366 229.077 95.7513 229.086 95.7644L229.88 96.9298C229.899 96.956 229.927 96.9744 229.96 96.9812C229.992 96.9881 230.026 96.9829 230.055 96.9667L231.394 96.1757C231.41 96.1668 231.424 96.1546 231.435 96.14C231.446 96.1254 231.453 96.1088 231.456 96.0913C231.46 96.0738 231.459 96.0558 231.455 96.0385C231.45 96.0212 231.442 96.0051 231.43 95.9912Z" fill="black"/>
<path opacity="0.1" d="M229.538 97.2409L228.672 96.065C228.663 96.0519 228.651 96.0407 228.637 96.032C228.623 96.0234 228.608 96.0174 228.592 96.0144C228.575 96.0115 228.559 96.0116 228.542 96.0149C228.526 96.0182 228.511 96.0244 228.497 96.0334L227.23 96.8375C227.216 96.8461 227.204 96.8572 227.195 96.8702C227.185 96.8832 227.179 96.8979 227.175 96.9134C227.172 96.9288 227.172 96.9448 227.175 96.9603C227.178 96.9758 227.185 96.9905 227.194 97.0036L227.988 98.1663C228.006 98.1931 228.035 98.2119 228.068 98.2188C228.1 98.2257 228.134 98.2201 228.163 98.2033L229.502 97.4123C229.516 97.4035 229.529 97.392 229.538 97.3786C229.548 97.3651 229.555 97.3499 229.558 97.3339C229.562 97.3179 229.561 97.3014 229.558 97.2854C229.555 97.2695 229.548 97.2543 229.538 97.2409Z" fill="black"/>
<path opacity="0.1" d="M241.63 86.4469L240.933 85.5004C240.891 85.446 240.829 85.4089 240.76 85.3967C240.69 85.3844 240.618 85.3979 240.559 85.4345L239.527 86.0989C239.469 86.1378 239.429 86.1964 239.415 86.2626C239.401 86.3289 239.414 86.3976 239.452 86.4548L240.091 87.3908C240.131 87.4461 240.192 87.4849 240.261 87.4991C240.33 87.5133 240.402 87.5019 240.462 87.4672L241.552 86.816C241.583 86.7968 241.61 86.772 241.63 86.743C241.651 86.714 241.665 86.6813 241.673 86.6469C241.68 86.6126 241.68 86.5772 241.672 86.5428C241.665 86.5085 241.651 86.4759 241.63 86.4469Z" fill="black"/>
<path opacity="0.1" d="M239.657 87.7493L238.959 86.8002C238.918 86.7451 238.855 86.7075 238.785 86.6953C238.715 86.683 238.643 86.697 238.583 86.7343L237.554 87.3987C237.495 87.4372 237.455 87.4956 237.44 87.5619C237.426 87.6281 237.439 87.6971 237.476 87.7546L238.115 88.6906C238.155 88.7471 238.216 88.7868 238.286 88.8016C238.355 88.8163 238.428 88.8049 238.489 88.7697L239.579 88.1158C239.61 88.0967 239.636 88.072 239.656 88.0432C239.677 88.0144 239.691 87.982 239.698 87.9479C239.705 87.9139 239.705 87.8788 239.698 87.8447C239.691 87.8106 239.677 87.7782 239.657 87.7493Z" fill="black"/>
<path opacity="0.1" d="M237.689 89.0491L236.992 88.1026C236.95 88.0476 236.888 88.01 236.818 87.9977C236.748 87.9854 236.675 87.9994 236.616 88.0367L235.584 88.6985C235.526 88.7374 235.486 88.796 235.472 88.8622C235.458 88.9285 235.471 88.9973 235.509 89.0544L236.148 89.9904C236.188 90.0469 236.249 90.0866 236.318 90.1014C236.388 90.1161 236.461 90.1047 236.522 90.0695L237.609 89.4156C237.64 89.3967 237.666 89.3721 237.687 89.3434C237.707 89.3147 237.722 89.2824 237.729 89.2483C237.737 89.2142 237.737 89.1791 237.73 89.1449C237.723 89.1107 237.709 89.0782 237.689 89.0491Z" fill="black"/>
<path opacity="0.1" d="M235.717 90.349L235.019 89.4025C234.977 89.3481 234.916 89.311 234.846 89.2988C234.777 89.2865 234.705 89.3 234.646 89.3366L233.613 89.9983C233.555 90.0373 233.515 90.0959 233.501 90.1621C233.488 90.2283 233.501 90.2971 233.539 90.3543L234.178 91.3008C234.217 91.3566 234.278 91.3959 234.347 91.4106C234.416 91.4253 234.488 91.4143 234.549 91.3799L235.639 90.7287C235.671 90.7095 235.699 90.6842 235.721 90.6543C235.743 90.6244 235.757 90.5906 235.765 90.5549C235.772 90.5193 235.772 90.4826 235.763 90.4472C235.755 90.4117 235.739 90.3783 235.717 90.349Z" fill="black"/>
<path opacity="0.1" d="M233.846 91.7674L232.98 90.5915C232.971 90.5784 232.959 90.5672 232.945 90.5585C232.931 90.5498 232.916 90.5439 232.9 90.5409C232.883 90.538 232.867 90.5381 232.851 90.5414C232.834 90.5446 232.819 90.5509 232.805 90.5599L231.538 91.3746C231.51 91.3923 231.491 91.4196 231.485 91.4506C231.478 91.4817 231.484 91.514 231.502 91.5407L232.296 92.706C232.305 92.7193 232.317 92.7308 232.331 92.7397C232.344 92.7487 232.36 92.7549 232.376 92.7581C232.392 92.7613 232.409 92.7614 232.425 92.7583C232.441 92.7552 232.457 92.7491 232.471 92.7403L233.81 91.9493C233.826 91.9406 233.84 91.9287 233.851 91.9144C233.861 91.9 233.869 91.8836 233.872 91.8663C233.876 91.849 233.875 91.8312 233.87 91.8141C233.866 91.797 233.858 91.7811 233.846 91.7674Z" fill="black"/>
<path opacity="0.1" d="M232.089 92.9196L231.223 91.741C231.203 91.7154 231.173 91.6981 231.14 91.6927C231.107 91.6873 231.073 91.6942 231.046 91.712L229.781 92.5241C229.753 92.5423 229.734 92.5701 229.727 92.6015C229.721 92.633 229.727 92.6657 229.745 92.6928L230.539 93.8555C230.557 93.8823 230.586 93.9011 230.618 93.908C230.651 93.9149 230.685 93.9093 230.714 93.8925L232.053 93.1015C232.069 93.0928 232.083 93.0809 232.094 93.0665C232.104 93.0522 232.112 93.0358 232.115 93.0185C232.119 93.0012 232.118 92.9833 232.113 92.9663C232.109 92.9492 232.1 92.9333 232.089 92.9196Z" fill="black"/>
<path opacity="0.1" d="M230.136 94.201L229.269 93.0225C229.249 92.9968 229.22 92.9795 229.187 92.9741C229.154 92.9687 229.12 92.9757 229.092 92.9935L227.825 93.8055C227.798 93.8241 227.779 93.8519 227.772 93.8832C227.766 93.9145 227.772 93.947 227.789 93.9743L228.586 95.137C228.604 95.1637 228.633 95.1825 228.665 95.1894C228.698 95.1964 228.732 95.1908 228.76 95.1739L230.097 94.3829C230.113 94.3748 230.128 94.3632 230.139 94.349C230.151 94.3348 230.158 94.3183 230.162 94.3009C230.166 94.2834 230.165 94.2653 230.161 94.248C230.156 94.2307 230.148 94.2147 230.136 94.201Z" fill="black"/>
<path opacity="0.1" d="M228.243 95.456L227.377 94.2801C227.367 94.2669 227.355 94.2556 227.341 94.2469C227.327 94.2382 227.311 94.2322 227.295 94.2293C227.279 94.2263 227.262 94.2265 227.245 94.2298C227.229 94.2331 227.213 94.2394 227.2 94.2484L225.932 95.0631C225.905 95.0812 225.886 95.1087 225.88 95.1397C225.874 95.1708 225.881 95.2029 225.899 95.2292L226.693 96.3919C226.702 96.4057 226.713 96.4177 226.727 96.4271C226.74 96.4365 226.755 96.4432 226.772 96.4466C226.788 96.4501 226.805 96.4503 226.822 96.4473C226.838 96.4442 226.854 96.4379 226.867 96.4288L228.204 95.6379C228.221 95.6298 228.235 95.6182 228.247 95.604C228.258 95.5898 228.266 95.5733 228.269 95.5558C228.273 95.5383 228.273 95.5203 228.268 95.503C228.263 95.4857 228.255 95.4696 228.243 95.456Z" fill="black"/>
<path opacity="0.1" d="M227.645 98.488L226.779 97.3121C226.759 97.2867 226.73 97.2694 226.698 97.264C226.665 97.2586 226.632 97.2654 226.604 97.2831L225.337 98.0951C225.323 98.1037 225.311 98.1148 225.302 98.1278C225.292 98.1408 225.286 98.1555 225.282 98.171C225.279 98.1865 225.279 98.2024 225.282 98.2179C225.285 98.2334 225.292 98.2482 225.301 98.2613L226.095 99.4266C226.114 99.4528 226.142 99.4712 226.175 99.4781C226.207 99.4849 226.241 99.4797 226.27 99.4635L227.609 98.6726C227.625 98.6636 227.639 98.6514 227.65 98.6368C227.66 98.6223 227.668 98.6056 227.671 98.5881C227.675 98.5706 227.674 98.5526 227.669 98.5353C227.665 98.518 227.656 98.5019 227.645 98.488Z" fill="black"/>
<path opacity="0.1" d="M225.752 99.7377L224.886 98.5618C224.877 98.5487 224.865 98.5375 224.851 98.5288C224.838 98.5201 224.822 98.5141 224.806 98.5112C224.79 98.5082 224.773 98.5084 224.757 98.5117C224.741 98.5149 224.725 98.5212 224.712 98.5302L223.444 99.3448C223.43 99.3534 223.418 99.3645 223.409 99.3775C223.4 99.3905 223.393 99.4052 223.39 99.4207C223.386 99.4362 223.386 99.4521 223.39 99.4676C223.393 99.4831 223.399 99.4978 223.408 99.5109L224.203 100.674C224.221 100.7 224.249 100.719 224.282 100.726C224.314 100.733 224.349 100.727 224.377 100.711L225.716 99.9196C225.732 99.9109 225.746 99.899 225.757 99.8846C225.768 99.8703 225.775 99.8539 225.779 99.8366C225.782 99.8193 225.781 99.8015 225.777 99.7844C225.772 99.7673 225.764 99.7514 225.752 99.7377Z" fill="black"/>
<path opacity="0.1" d="M228.724 92.2657L227.894 91.1584C227.868 91.1239 227.828 91.1006 227.784 91.0932C227.741 91.0858 227.695 91.095 227.658 91.1188L226.463 91.886C226.444 91.8978 226.428 91.9129 226.416 91.9305C226.404 91.9481 226.395 91.9679 226.39 91.9888C226.386 92.0096 226.386 92.031 226.39 92.0519C226.395 92.0727 226.404 92.0925 226.416 92.1102L227.163 93.2043C227.175 93.2224 227.19 93.2381 227.208 93.2504C227.226 93.2628 227.247 93.2715 227.268 93.2762C227.29 93.2809 227.312 93.2814 227.334 93.2776C227.356 93.2739 227.377 93.266 227.396 93.2544L228.66 92.4977C228.681 92.4871 228.699 92.4725 228.714 92.4548C228.729 92.4371 228.739 92.4167 228.745 92.395C228.751 92.3732 228.752 92.3505 228.749 92.3282C228.745 92.306 228.737 92.2847 228.724 92.2657Z" fill="black"/>
<path opacity="0.1" d="M226.831 93.5154L226.015 92.4081C226.003 92.3906 225.987 92.3756 225.968 92.364C225.949 92.3523 225.929 92.3443 225.907 92.3404C225.885 92.3365 225.862 92.3367 225.841 92.3411C225.819 92.3455 225.798 92.3539 225.78 92.3659L224.584 93.1463C224.566 93.1578 224.55 93.1726 224.538 93.19C224.525 93.2074 224.516 93.227 224.512 93.2476C224.508 93.2683 224.508 93.2895 224.512 93.3102C224.516 93.3308 224.525 93.3504 224.537 93.3678L225.285 94.4646C225.309 94.5 225.347 94.525 225.39 94.5344C225.434 94.5437 225.479 94.5367 225.517 94.5147L226.782 93.758C226.803 93.7464 226.821 93.7305 226.836 93.7114C226.85 93.6923 226.86 93.6706 226.865 93.6476C226.869 93.6246 226.869 93.6009 226.863 93.5781C226.857 93.5553 226.847 93.5339 226.831 93.5154Z" fill="black"/>
<path opacity="0.1" d="M224.939 94.7652L224.123 93.6552C224.096 93.6208 224.057 93.5974 224.013 93.59C223.97 93.5826 223.924 93.5918 223.887 93.6156L222.692 94.3829C222.673 94.3946 222.657 94.4097 222.645 94.4273C222.633 94.4449 222.624 94.4647 222.619 94.4856C222.615 94.5064 222.615 94.5279 222.62 94.5487C222.624 94.5695 222.633 94.5894 222.645 94.607L223.392 95.7011C223.404 95.7192 223.419 95.7349 223.437 95.7472C223.455 95.7596 223.476 95.7684 223.497 95.773C223.519 95.7777 223.541 95.7782 223.563 95.7744C223.585 95.7707 223.606 95.7628 223.625 95.7512L224.889 94.9946C224.909 94.9831 224.926 94.9679 224.939 94.9499C224.952 94.932 224.961 94.9116 224.966 94.8901C224.971 94.8686 224.971 94.8465 224.966 94.825C224.961 94.8035 224.952 94.7831 224.939 94.7652Z" fill="black"/>
<path opacity="0.1" d="M223.071 96.0465L222.205 94.868C222.185 94.8426 222.156 94.8253 222.124 94.8199C222.091 94.8145 222.058 94.8214 222.03 94.839L220.763 95.6511C220.735 95.6693 220.716 95.697 220.709 95.7285C220.702 95.76 220.709 95.7927 220.727 95.8198L221.521 96.9825C221.54 97.0087 221.568 97.0271 221.601 97.034C221.633 97.0408 221.667 97.0356 221.695 97.0194L223.035 96.2285C223.052 96.2205 223.066 96.2089 223.078 96.1946C223.089 96.1803 223.097 96.1637 223.1 96.146C223.104 96.1284 223.103 96.1102 223.098 96.093C223.093 96.0757 223.083 96.0598 223.071 96.0465Z" fill="black"/>
<path opacity="0.1" d="M245.468 83.8789L244.718 82.8638C244.676 82.8092 244.613 82.7721 244.543 82.7604C244.473 82.7486 244.401 82.763 244.342 82.8006L241.414 84.7542C241.357 84.7935 241.318 84.8518 241.305 84.9174C241.292 84.9829 241.305 85.0509 241.342 85.1075L242.048 86.1463C242.068 86.1751 242.094 86.1998 242.124 86.2189C242.155 86.2381 242.189 86.2513 242.224 86.2579C242.26 86.2646 242.297 86.2644 242.333 86.2575C242.368 86.2505 242.402 86.2369 242.432 86.2175L245.404 84.2375C245.461 84.1969 245.499 84.1371 245.511 84.0703C245.523 84.0036 245.507 83.935 245.468 83.8789Z" fill="black"/>
<path opacity="0.1" d="M226.345 96.6661L225.426 95.4296C225.416 95.4163 225.404 95.405 225.39 95.3963C225.376 95.3877 225.36 95.3818 225.344 95.3791C225.327 95.3764 225.31 95.3769 225.294 95.3806C225.278 95.3843 225.262 95.3911 225.249 95.4006L222.089 97.5098C222.062 97.5274 222.043 97.5545 222.037 97.585C222.031 97.6156 222.037 97.6473 222.055 97.6733L222.919 98.9467C222.928 98.9605 222.94 98.9723 222.954 98.9815C222.968 98.9907 222.984 98.9971 223.001 99.0003C223.018 99.0035 223.035 99.0034 223.052 99.0001C223.069 98.9968 223.085 98.9903 223.099 98.981L226.311 96.8375C226.339 96.8188 226.359 96.7904 226.365 96.7583C226.371 96.7262 226.364 96.6931 226.345 96.6661Z" fill="black"/>
<path opacity="0.1" d="M236.398 87.2089L235.551 86.0277C235.532 86.0018 235.503 85.9841 235.47 85.9782C235.438 85.9722 235.404 85.9787 235.376 85.9961L228.359 90.5098C228.331 90.5275 228.312 90.5548 228.305 90.5859C228.299 90.6169 228.305 90.6492 228.323 90.6759L229.189 91.9414C229.198 91.9552 229.21 91.967 229.224 91.9762C229.239 91.9854 229.255 91.9918 229.271 91.995C229.288 91.9982 229.305 91.9982 229.322 91.9949C229.339 91.9915 229.355 91.985 229.369 91.9757L236.364 87.3776C236.378 87.3686 236.39 87.3571 236.399 87.3438C236.408 87.3304 236.415 87.3155 236.418 87.2998C236.421 87.2841 236.421 87.268 236.417 87.2524C236.414 87.2368 236.407 87.222 236.398 87.2089Z" fill="black"/>
</g>
<path d="M248.164 87.4725L247.466 86.5233C247.425 86.4683 247.362 86.4307 247.292 86.4184C247.222 86.4061 247.15 86.4201 247.09 86.4574L246.061 87.1218C246.002 87.1603 245.962 87.2188 245.947 87.285C245.933 87.3513 245.946 87.4203 245.983 87.4778L246.622 88.4137C246.662 88.4702 246.723 88.51 246.792 88.5247C246.862 88.5395 246.935 88.528 246.996 88.4928L248.086 87.839C248.117 87.8198 248.143 87.7951 248.163 87.7663C248.183 87.7375 248.198 87.7051 248.205 87.6711C248.212 87.637 248.212 87.6019 248.205 87.5679C248.198 87.5338 248.184 87.5014 248.164 87.4725Z" fill="#464A5F"/>
<path d="M246.298 88.6958L245.601 87.7493C245.559 87.6949 245.497 87.6578 245.428 87.6456C245.358 87.6333 245.286 87.6468 245.227 87.6834L244.195 88.3451C244.136 88.3837 244.096 88.4421 244.081 88.5083C244.067 88.5746 244.08 88.6436 244.117 88.7011L244.757 89.637C244.796 89.6935 244.857 89.7333 244.927 89.748C244.996 89.7628 245.069 89.7513 245.13 89.7161L246.22 89.0649C246.251 89.0457 246.278 89.0209 246.298 88.9919C246.319 88.9629 246.333 88.9302 246.34 88.8958C246.348 88.8615 246.348 88.8261 246.34 88.7917C246.333 88.7574 246.319 88.7248 246.298 88.6958Z" fill="#464A5F"/>
<path d="M244.361 89.9825L243.664 89.036C243.622 88.9809 243.559 88.9433 243.489 88.931C243.419 88.9188 243.347 88.9327 243.287 88.97L242.258 89.6345C242.199 89.673 242.159 89.7314 242.144 89.7977C242.13 89.8639 242.143 89.9329 242.18 89.9904L242.82 90.9264C242.86 90.9824 242.921 91.0216 242.99 91.0359C243.06 91.0501 243.133 91.0383 243.193 91.0028L244.283 90.3516C244.314 90.3324 244.341 90.3076 244.361 90.2786C244.382 90.2496 244.396 90.2169 244.403 90.1825C244.411 90.1482 244.411 90.1128 244.403 90.0784C244.396 90.0441 244.382 90.0115 244.361 89.9825Z" fill="#464A5F"/>
<path d="M242.385 91.2823L241.688 90.3331C241.646 90.2788 241.584 90.2417 241.515 90.2294C241.446 90.2172 241.374 90.2307 241.314 90.2672L240.282 90.9316C240.252 90.9512 240.226 90.9763 240.206 91.0056C240.186 91.0348 240.172 91.0675 240.165 91.1019C240.159 91.1362 240.159 91.1715 240.167 91.2056C240.175 91.2398 240.189 91.2721 240.21 91.3008L240.85 92.2367C240.889 92.2932 240.95 92.333 241.02 92.3477C241.089 92.3625 241.162 92.351 241.223 92.3158L242.311 91.662C242.343 91.6426 242.37 91.6171 242.392 91.5871C242.413 91.5571 242.428 91.5233 242.435 91.4876C242.442 91.452 242.441 91.4154 242.433 91.3801C242.424 91.3447 242.408 91.3114 242.385 91.2823Z" fill="#464A5F"/>
<path d="M240.415 92.5821L239.718 91.6356C239.676 91.5812 239.614 91.5441 239.545 91.5319C239.475 91.5196 239.404 91.5331 239.344 91.5697L238.312 92.2314C238.254 92.2703 238.214 92.329 238.2 92.3952C238.186 92.4614 238.2 92.5302 238.237 92.5874L238.874 93.5233C238.913 93.5798 238.974 93.6196 239.044 93.6343C239.114 93.6491 239.186 93.6376 239.247 93.6024L240.338 92.9486C240.368 92.9294 240.394 92.9047 240.415 92.8759C240.435 92.8471 240.449 92.8147 240.456 92.7807C240.464 92.7466 240.464 92.7115 240.457 92.6775C240.449 92.6434 240.435 92.611 240.415 92.5821Z" fill="#464A5F"/>
<path d="M238.531 94.0006L237.664 92.8247C237.655 92.8116 237.643 92.8004 237.63 92.7917C237.616 92.783 237.6 92.777 237.584 92.7741C237.568 92.7711 237.551 92.7713 237.535 92.7745C237.519 92.7778 237.504 92.7841 237.49 92.793L236.223 93.6077C236.209 93.6163 236.197 93.6274 236.187 93.6404C236.178 93.6534 236.171 93.6681 236.168 93.6836C236.165 93.699 236.165 93.715 236.168 93.7305C236.171 93.746 236.178 93.7607 236.187 93.7738L236.981 94.9365C236.999 94.9633 237.028 94.9821 237.06 94.989C237.093 94.9959 237.127 94.9903 237.155 94.9735L238.495 94.1825C238.511 94.1738 238.525 94.1619 238.535 94.1475C238.546 94.1332 238.553 94.1168 238.557 94.0995C238.56 94.0822 238.56 94.0643 238.555 94.0473C238.551 94.0302 238.542 94.0142 238.531 94.0006Z" fill="#464A5F"/>
<path d="M236.56 95.3003L235.694 94.1244C235.685 94.1113 235.673 94.1 235.659 94.0913C235.645 94.0826 235.629 94.0765 235.613 94.0736C235.596 94.0707 235.579 94.0709 235.563 94.0741C235.546 94.0774 235.531 94.0838 235.517 94.0928L234.253 94.9075C234.239 94.916 234.227 94.9271 234.217 94.9402C234.208 94.9532 234.201 94.9678 234.198 94.9833C234.195 94.9988 234.194 95.0147 234.198 95.0302C234.201 95.0457 234.207 95.0605 234.217 95.0736L235.011 96.2389C235.02 96.2522 235.031 96.2637 235.045 96.2726C235.059 96.2816 235.074 96.2878 235.09 96.291C235.107 96.2942 235.123 96.2943 235.14 96.2912C235.156 96.2882 235.171 96.282 235.185 96.2732L236.524 95.4822C236.54 95.4732 236.554 95.4612 236.564 95.4468C236.575 95.4325 236.582 95.4162 236.585 95.399C236.589 95.3818 236.588 95.3641 236.584 95.3471C236.58 95.3301 236.572 95.3142 236.56 95.3003Z" fill="#464A5F"/>
<path d="M234.814 96.4525L233.948 95.274C233.929 95.2485 233.9 95.2313 233.867 95.2259C233.835 95.2205 233.801 95.2273 233.774 95.245L232.507 96.0465C232.479 96.0647 232.46 96.0924 232.453 96.1239C232.446 96.1554 232.452 96.1881 232.471 96.2152L233.265 97.3779C233.283 97.4041 233.312 97.4225 233.344 97.4294C233.377 97.4363 233.411 97.431 233.439 97.4148L234.778 96.6239C234.793 96.6151 234.805 96.6036 234.815 96.5901C234.825 96.5767 234.831 96.5615 234.835 96.5455C234.838 96.5295 234.838 96.513 234.834 96.497C234.831 96.481 234.824 96.4659 234.814 96.4525Z" fill="#464A5F"/>
<path d="M232.861 97.7418L231.995 96.5738C231.975 96.5484 231.946 96.5311 231.914 96.5257C231.881 96.5203 231.848 96.5272 231.82 96.5448L230.553 97.3569C230.539 97.3657 230.527 97.377 230.517 97.3903C230.508 97.4035 230.501 97.4184 230.498 97.4341C230.495 97.4498 230.495 97.466 230.498 97.4817C230.501 97.4974 230.508 97.5123 230.517 97.5256L231.311 98.6883C231.33 98.7145 231.358 98.7329 231.391 98.7398C231.423 98.7467 231.457 98.7415 231.486 98.7252L232.825 97.9343C232.843 97.9259 232.858 97.9136 232.87 97.8984C232.882 97.8831 232.89 97.8655 232.894 97.8467C232.897 97.828 232.896 97.8087 232.89 97.7905C232.885 97.7723 232.875 97.7556 232.861 97.7418Z" fill="#464A5F"/>
<path d="M230.968 98.9888L230.102 97.813C230.093 97.7999 230.081 97.7887 230.067 97.78C230.053 97.7713 230.038 97.7653 230.022 97.7624C230.006 97.7594 229.989 97.7596 229.973 97.7628C229.957 97.7661 229.941 97.7724 229.928 97.7813L228.66 98.596C228.646 98.6045 228.634 98.6156 228.625 98.6287C228.616 98.6417 228.609 98.6564 228.606 98.6718C228.602 98.6873 228.602 98.7033 228.605 98.7188C228.609 98.7343 228.615 98.749 228.624 98.7621L229.418 99.9248C229.427 99.9383 229.439 99.95 229.452 99.9592C229.466 99.9684 229.481 99.9749 229.497 99.9784C229.514 99.9818 229.531 99.9821 229.547 99.9793C229.563 99.9764 229.579 99.9704 229.593 99.9617L230.932 99.1708C230.948 99.1621 230.962 99.1501 230.973 99.1358C230.984 99.1215 230.991 99.1051 230.994 99.0877C230.998 99.0704 230.997 99.0526 230.993 99.0355C230.988 99.0185 230.98 99.0025 230.968 98.9888Z" fill="#464A5F"/>
<path d="M229.075 100.239L228.209 99.0601C228.19 99.0347 228.161 99.0174 228.128 99.012C228.095 99.0066 228.062 99.0134 228.035 99.0311L226.767 99.8431C226.74 99.8613 226.72 99.8891 226.714 99.9206C226.707 99.9521 226.713 99.9848 226.731 100.012L227.526 101.175C227.544 101.201 227.573 101.219 227.605 101.226C227.637 101.233 227.671 101.228 227.7 101.212L229.039 100.421C229.055 100.412 229.069 100.4 229.08 100.386C229.091 100.371 229.098 100.355 229.101 100.338C229.105 100.32 229.104 100.302 229.1 100.285C229.095 100.268 229.087 100.252 229.075 100.239Z" fill="#464A5F"/>
<path d="M227.183 101.486L226.317 100.31C226.308 100.297 226.296 100.285 226.282 100.277C226.268 100.268 226.253 100.262 226.237 100.259C226.22 100.256 226.204 100.256 226.187 100.26C226.171 100.263 226.156 100.269 226.142 100.278L224.875 101.093C224.861 101.101 224.849 101.112 224.84 101.126C224.83 101.139 224.824 101.153 224.82 101.169C224.817 101.184 224.817 101.2 224.82 101.216C224.823 101.231 224.83 101.246 224.839 101.259L225.633 102.422C225.642 102.435 225.654 102.447 225.667 102.456C225.681 102.465 225.696 102.472 225.712 102.475C225.729 102.479 225.745 102.479 225.762 102.476C225.778 102.473 225.794 102.467 225.808 102.459L227.147 101.668C227.163 101.659 227.177 101.647 227.188 101.633C227.198 101.618 227.206 101.602 227.209 101.585C227.213 101.567 227.212 101.549 227.207 101.532C227.203 101.515 227.195 101.499 227.183 101.486Z" fill="#464A5F"/>
<path d="M246.915 85.764L246.218 84.8148C246.176 84.7605 246.114 84.7234 246.045 84.7111C245.975 84.6989 245.904 84.7124 245.844 84.7489L244.812 85.4133C244.754 85.4522 244.714 85.5109 244.7 85.5771C244.686 85.6433 244.7 85.7121 244.737 85.7693L245.374 86.7052C245.413 86.7617 245.474 86.8015 245.544 86.8162C245.614 86.831 245.686 86.8195 245.747 86.7843L246.838 86.1305C246.868 86.1113 246.894 86.0866 246.915 86.0578C246.935 86.029 246.949 85.9966 246.956 85.9626C246.964 85.9285 246.964 85.8934 246.957 85.8594C246.949 85.8253 246.935 85.7929 246.915 85.764Z" fill="#464A5F"/>
<path d="M244.189 82.0043L243.492 81.0577C243.45 81.0034 243.388 80.9663 243.319 80.9541C243.249 80.9418 243.177 80.9553 243.118 80.9918L242.086 81.6536C242.028 81.6925 241.988 81.7511 241.974 81.8174C241.96 81.8836 241.974 81.9524 242.011 82.0095L242.65 82.9455C242.69 83.0013 242.75 83.0406 242.819 83.0553C242.888 83.07 242.961 83.059 243.021 83.0246L244.111 82.3734C244.142 82.3542 244.169 82.3294 244.189 82.3004C244.21 82.2713 244.224 82.2387 244.232 82.2043C244.239 82.1699 244.239 82.1346 244.231 82.1002C244.224 82.0659 244.21 82.0332 244.189 82.0043Z" fill="#464A5F"/>
<path d="M245.059 86.9794L244.361 86.0277C244.32 85.9733 244.258 85.9362 244.188 85.924C244.119 85.9117 244.047 85.9252 243.988 85.9617L242.956 86.6235C242.898 86.6624 242.858 86.7211 242.844 86.7873C242.83 86.8535 242.843 86.9223 242.881 86.9794L243.52 87.9154C243.56 87.9712 243.62 88.0105 243.689 88.0252C243.758 88.0399 243.83 88.0289 243.891 87.9945L244.981 87.3433C245.042 87.3046 245.084 87.2447 245.099 87.1766C245.113 87.1084 245.099 87.0376 245.059 86.9794Z" fill="#464A5F"/>
<path d="M243.11 88.2634L242.424 87.3169C242.382 87.2626 242.32 87.2255 242.251 87.2132C242.182 87.201 242.11 87.2145 242.05 87.251L241.018 87.9128C240.96 87.9517 240.919 88.0109 240.905 88.0777C240.891 88.1446 240.905 88.214 240.944 88.2713L241.58 89.2073C241.62 89.2634 241.681 89.3026 241.751 89.3168C241.82 89.3311 241.893 89.3192 241.954 89.2838L243.044 88.6325C243.074 88.6126 243.099 88.5871 243.119 88.5577C243.138 88.5283 243.152 88.4955 243.158 88.4612C243.164 88.4268 243.163 88.3917 243.155 88.3578C243.147 88.3238 243.131 88.2918 243.11 88.2634Z" fill="#464A5F"/>
<path d="M241.14 89.5659L240.443 88.6168C240.401 88.5617 240.339 88.5241 240.269 88.5119C240.198 88.4996 240.126 88.5135 240.067 88.5509L239.037 89.2153C238.979 89.2538 238.938 89.3122 238.924 89.3785C238.909 89.4447 238.922 89.5137 238.96 89.5712L239.599 90.5072C239.638 90.5637 239.699 90.6034 239.769 90.6182C239.839 90.6329 239.911 90.6215 239.972 90.5863L241.063 89.9324C241.093 89.9133 241.119 89.8886 241.14 89.8598C241.16 89.8309 241.174 89.7986 241.181 89.7645C241.189 89.7305 241.189 89.6954 241.182 89.6613C241.174 89.6272 241.16 89.5948 241.14 89.5659Z" fill="#464A5F"/>
<path d="M242.377 83.2883L241.68 82.3365C241.638 82.2822 241.576 82.2451 241.507 82.2328C241.437 82.2205 241.365 82.2341 241.306 82.2706L240.274 82.9324C240.216 82.9713 240.176 83.0299 240.162 83.0961C240.148 83.1623 240.162 83.2311 240.199 83.2883L240.838 84.2243C240.878 84.2801 240.938 84.3193 241.007 84.334C241.076 84.3487 241.149 84.3378 241.209 84.3034L242.3 83.6521C242.36 83.6135 242.402 83.5535 242.417 83.4854C242.431 83.4173 242.417 83.3464 242.377 83.2883Z" fill="#464A5F"/>
<path d="M240.429 84.5749L239.731 83.6257C239.69 83.5714 239.628 83.5343 239.558 83.522C239.489 83.5098 239.417 83.5233 239.358 83.5598L238.326 84.2242C238.267 84.2628 238.227 84.3212 238.212 84.3874C238.198 84.4537 238.211 84.5227 238.248 84.5802L238.887 85.5161C238.927 85.5726 238.988 85.6124 239.058 85.6271C239.127 85.6419 239.2 85.6304 239.261 85.5952L240.351 84.9414C240.382 84.9222 240.408 84.8975 240.428 84.8687C240.449 84.8399 240.463 84.8075 240.47 84.7735C240.477 84.7394 240.477 84.7044 240.47 84.6703C240.463 84.6362 240.449 84.6038 240.429 84.5749Z" fill="#464A5F"/>
<path d="M238.459 85.8748L237.762 84.9282C237.72 84.8732 237.658 84.8356 237.587 84.8233C237.517 84.811 237.445 84.825 237.385 84.8623L236.356 85.5241C236.298 85.5626 236.257 85.6211 236.243 85.6873C236.228 85.7536 236.241 85.8226 236.279 85.88L236.918 86.8186C236.957 86.8751 237.018 86.9149 237.088 86.9296C237.157 86.9444 237.23 86.9329 237.291 86.8977L238.379 86.2439C238.41 86.2249 238.436 86.2002 238.457 86.1713C238.478 86.1424 238.493 86.1098 238.5 86.0754C238.508 86.041 238.508 86.0056 238.501 85.9711C238.494 85.9366 238.48 85.9039 238.459 85.8748Z" fill="#464A5F"/>
<path d="M239.168 90.8657L238.47 89.9191C238.429 89.8648 238.367 89.8277 238.297 89.8154C238.228 89.8032 238.156 89.8167 238.097 89.8532L237.065 90.5097C237.007 90.5486 236.967 90.6073 236.953 90.6735C236.939 90.7397 236.952 90.8085 236.99 90.8657L237.629 91.8016C237.669 91.8574 237.729 91.8967 237.798 91.9114C237.867 91.9261 237.939 91.9151 238 91.8807L239.09 91.2269C239.15 91.1882 239.192 91.1288 239.206 91.0613C239.221 90.9938 239.207 90.9236 239.168 90.8657Z" fill="#464A5F"/>
<path d="M237.197 92.1655L236.499 91.219C236.458 91.1647 236.396 91.1276 236.326 91.1153C236.257 91.1031 236.185 91.1166 236.126 91.1531L235.094 91.828C235.035 91.8666 234.995 91.925 234.98 91.9912C234.966 92.0575 234.979 92.1265 235.016 92.184L235.656 93.1199C235.695 93.1764 235.756 93.2162 235.826 93.2309C235.895 93.2457 235.968 93.2342 236.029 93.199L237.119 92.5478C237.152 92.5287 237.18 92.5033 237.202 92.4731C237.224 92.443 237.239 92.4089 237.247 92.3729C237.254 92.337 237.253 92.3 237.245 92.2642C237.236 92.2285 237.22 92.1949 237.197 92.1655Z" fill="#464A5F"/>
<path d="M235.312 93.5839L234.446 92.408C234.437 92.395 234.425 92.3838 234.412 92.3751C234.398 92.3664 234.382 92.3604 234.366 92.3574C234.35 92.3545 234.333 92.3547 234.317 92.3579C234.301 92.3612 234.286 92.3675 234.272 92.3764L233.016 93.1911C233.002 93.1996 232.99 93.2107 232.98 93.2238C232.971 93.2368 232.964 93.2515 232.961 93.2669C232.958 93.2824 232.958 93.2984 232.961 93.3139C232.964 93.3294 232.97 93.3441 232.98 93.3572L233.774 94.5199C233.783 94.5334 233.794 94.5451 233.808 94.5543C233.821 94.5635 233.837 94.57 233.853 94.5735C233.869 94.5769 233.886 94.5772 233.902 94.5744C233.919 94.5715 233.934 94.5655 233.948 94.5568L235.288 93.7659C235.302 93.756 235.315 93.7433 235.324 93.7285C235.334 93.7138 235.34 93.6973 235.342 93.6802C235.345 93.663 235.343 93.6456 235.338 93.629C235.333 93.6125 235.324 93.5971 235.312 93.5839Z" fill="#464A5F"/>
<path d="M233.57 94.7283L232.703 93.5497C232.684 93.5241 232.654 93.5068 232.621 93.5014C232.588 93.496 232.554 93.5029 232.526 93.5208L231.259 94.3328C231.232 94.3514 231.213 94.3792 231.206 94.4104C231.2 94.4417 231.206 94.4743 231.223 94.5015L232.02 95.6643C232.038 95.691 232.067 95.7098 232.099 95.7167C232.132 95.7236 232.166 95.718 232.194 95.7012L233.531 94.9102C233.547 94.9021 233.562 94.8905 233.573 94.8763C233.585 94.8621 233.592 94.8456 233.596 94.8281C233.6 94.8107 233.599 94.7926 233.595 94.7753C233.59 94.758 233.582 94.742 233.57 94.7283Z" fill="#464A5F"/>
<path d="M231.613 96.0254L230.747 94.8468C230.727 94.8214 230.698 94.8042 230.666 94.7987C230.633 94.7933 230.6 94.8002 230.572 94.8178L229.305 95.6299C229.277 95.6481 229.258 95.6759 229.251 95.7073C229.244 95.7388 229.251 95.7715 229.269 95.7986L230.063 96.9613C230.082 96.9875 230.11 97.0059 230.143 97.0128C230.175 97.0197 230.209 97.0145 230.237 96.9982L231.577 96.2073C231.594 96.1993 231.608 96.1877 231.62 96.1734C231.631 96.1591 231.639 96.1425 231.642 96.1249C231.646 96.1072 231.645 96.0891 231.64 96.0718C231.635 96.0545 231.625 96.0386 231.613 96.0254Z" fill="#464A5F"/>
<path d="M229.723 97.2725L228.865 96.0966C228.856 96.0835 228.844 96.0723 228.83 96.0636C228.817 96.0549 228.801 96.0489 228.785 96.046C228.769 96.043 228.752 96.0432 228.736 96.0465C228.72 96.0497 228.704 96.056 228.691 96.0649L227.423 96.8796C227.396 96.8973 227.377 96.9246 227.37 96.9557C227.363 96.9867 227.369 97.0191 227.387 97.0457L228.182 98.2085C228.2 98.2352 228.228 98.254 228.261 98.2609C228.293 98.2678 228.328 98.2622 228.356 98.2454L229.695 97.4544C229.711 97.4453 229.725 97.433 229.735 97.4184C229.745 97.4037 229.752 97.3871 229.754 97.3697C229.757 97.3523 229.756 97.3345 229.75 97.3177C229.745 97.3009 229.735 97.2854 229.723 97.2725Z" fill="#464A5F"/>
<path d="M241.813 86.4812L241.118 85.532C241.076 85.4769 241.014 85.4394 240.944 85.4271C240.874 85.4148 240.801 85.4288 240.742 85.4661L239.71 86.1305C239.652 86.1694 239.612 86.228 239.598 86.2943C239.584 86.3605 239.597 86.4293 239.635 86.4864L240.274 87.4224C240.314 87.4785 240.375 87.5177 240.445 87.5319C240.514 87.5462 240.587 87.5343 240.648 87.4989L241.735 86.8476C241.765 86.8285 241.792 86.8038 241.812 86.775C241.832 86.7462 241.847 86.7138 241.854 86.6797C241.861 86.6457 241.861 86.6106 241.854 86.5765C241.847 86.5424 241.833 86.51 241.813 86.4812Z" fill="#464A5F"/>
<path d="M239.842 87.781L239.145 86.8344C239.103 86.7797 239.042 86.7421 238.972 86.7293C238.903 86.7166 238.831 86.7296 238.771 86.7659L237.739 87.4303C237.681 87.4692 237.641 87.5278 237.627 87.5941C237.613 87.6603 237.626 87.7291 237.664 87.7862L238.303 88.7222C238.343 88.778 238.403 88.8173 238.472 88.832C238.541 88.8467 238.613 88.8357 238.674 88.8013L239.764 88.1474C239.795 88.1283 239.821 88.1036 239.841 88.0748C239.862 88.046 239.876 88.0136 239.883 87.9795C239.89 87.9455 239.89 87.9104 239.883 87.8763C239.876 87.8423 239.862 87.8098 239.842 87.781Z" fill="#464A5F"/>
<path d="M237.872 89.0807L237.166 88.1369C237.125 88.0818 237.062 88.0442 236.992 88.0319C236.922 88.0197 236.85 88.0336 236.79 88.0709L235.783 88.7301C235.724 88.7686 235.684 88.827 235.669 88.8933C235.655 88.9595 235.668 89.0285 235.705 89.086L236.344 90.022C236.384 90.0785 236.445 90.1182 236.515 90.133C236.584 90.1477 236.657 90.1363 236.718 90.1011L237.808 89.4499C237.838 89.4297 237.863 89.4041 237.883 89.3746C237.902 89.3451 237.915 89.3122 237.921 89.2779C237.927 89.2436 237.925 89.2085 237.917 89.1747C237.909 89.1408 237.893 89.1089 237.872 89.0807Z" fill="#464A5F"/>
<path d="M235.899 90.3806L235.202 89.4341C235.16 89.3798 235.098 89.3427 235.029 89.3304C234.959 89.3181 234.887 89.3317 234.828 89.3682L233.796 90.0299C233.738 90.0689 233.698 90.1275 233.684 90.1937C233.67 90.2599 233.683 90.3287 233.721 90.3859L234.36 91.3218C234.4 91.3776 234.46 91.4169 234.529 91.4316C234.598 91.4463 234.671 91.4354 234.731 91.4009L235.821 90.7497C235.852 90.7306 235.879 90.7057 235.899 90.6767C235.92 90.6477 235.934 90.615 235.942 90.5807C235.949 90.5463 235.949 90.5109 235.941 90.4766C235.934 90.4422 235.92 90.4096 235.899 90.3806Z" fill="#464A5F"/>
<path d="M234.018 91.799L233.152 90.6231C233.142 90.61 233.13 90.5987 233.116 90.59C233.102 90.5813 233.086 90.5753 233.07 90.5723C233.053 90.5694 233.037 90.5696 233.02 90.5729C233.004 90.5762 232.988 90.5825 232.974 90.5915L231.707 91.4062C231.679 91.4239 231.66 91.4512 231.654 91.4823C231.647 91.5133 231.653 91.5456 231.671 91.5723L232.465 92.7376C232.474 92.751 232.486 92.7625 232.5 92.7715C232.514 92.7805 232.53 92.7867 232.546 92.7899C232.563 92.7931 232.58 92.7932 232.596 92.7901C232.613 92.787 232.628 92.7808 232.642 92.7719L233.979 91.981C233.995 91.9725 234.009 91.9607 234.02 91.9465C234.031 91.9323 234.039 91.9159 234.043 91.8986C234.046 91.8813 234.046 91.8634 234.042 91.8462C234.037 91.829 234.029 91.8129 234.018 91.799Z" fill="#464A5F"/>
<path d="M232.271 92.9512L231.405 91.7753C231.396 91.7622 231.384 91.751 231.37 91.7423C231.356 91.7336 231.341 91.7276 231.325 91.7247C231.308 91.7217 231.292 91.7219 231.276 91.7252C231.259 91.7284 231.244 91.7347 231.23 91.7436L229.971 92.5557C229.944 92.5739 229.924 92.6017 229.918 92.6332C229.911 92.6646 229.917 92.6974 229.935 92.7244L230.73 93.8872C230.748 93.9134 230.777 93.9318 230.809 93.9386C230.841 93.9455 230.875 93.9403 230.904 93.9241L232.243 93.1331C232.259 93.1237 232.272 93.1113 232.282 93.0966C232.292 93.082 232.298 93.0655 232.301 93.0482C232.303 93.0309 232.302 93.0133 232.297 92.9966C232.292 92.9798 232.283 92.9644 232.271 92.9512Z" fill="#464A5F"/>
<path d="M230.318 94.2405L229.452 93.062C229.432 93.0363 229.402 93.019 229.369 93.0136C229.336 93.0082 229.302 93.0152 229.275 93.033L228.01 93.845C227.982 93.8632 227.963 93.891 227.956 93.9225C227.95 93.9539 227.956 93.9867 227.974 94.0138L228.768 95.1765C228.786 95.2032 228.815 95.222 228.847 95.2289C228.88 95.2358 228.914 95.2303 228.943 95.2134L230.282 94.4224C230.298 94.4137 230.312 94.4018 230.323 94.3874C230.333 94.3731 230.341 94.3567 230.344 94.3394C230.347 94.3221 230.347 94.3043 230.342 94.2872C230.338 94.2701 230.329 94.2542 230.318 94.2405Z" fill="#464A5F"/>
<path d="M228.425 95.4876L227.559 94.3117C227.55 94.2985 227.537 94.2872 227.523 94.2785C227.509 94.2698 227.494 94.2638 227.477 94.2609C227.461 94.2579 227.444 94.2581 227.428 94.2614C227.411 94.2647 227.396 94.271 227.382 94.28L226.117 95.0947C226.103 95.1033 226.091 95.1144 226.082 95.1274C226.073 95.1404 226.066 95.1551 226.063 95.1706C226.059 95.1861 226.059 95.202 226.062 95.2175C226.066 95.233 226.072 95.2477 226.081 95.2608L226.875 96.4262C226.884 96.4395 226.896 96.4509 226.91 96.4599C226.923 96.4688 226.939 96.4751 226.955 96.4783C226.971 96.4814 226.988 96.4815 227.004 96.4785C227.021 96.4754 227.036 96.4693 227.05 96.4605L228.389 95.6695C228.405 95.6605 228.418 95.6484 228.429 95.6341C228.439 95.6197 228.447 95.6034 228.45 95.5862C228.453 95.569 228.453 95.5514 228.449 95.5344C228.444 95.5174 228.436 95.5014 228.425 95.4876Z" fill="#464A5F"/>
<path d="M227.83 98.5222L226.964 97.3437C226.944 97.3181 226.915 97.3008 226.882 97.2954C226.849 97.29 226.815 97.2969 226.787 97.3147L225.52 98.1268C225.492 98.145 225.473 98.1727 225.466 98.2042C225.459 98.2357 225.466 98.2684 225.484 98.2955L226.278 99.4582C226.297 99.4844 226.325 99.5028 226.357 99.5097C226.39 99.5165 226.424 99.5113 226.452 99.4951L227.792 98.7041C227.808 98.696 227.823 98.6844 227.834 98.6702C227.845 98.656 227.853 98.6396 227.857 98.6221C227.861 98.6046 227.86 98.5865 227.856 98.5693C227.851 98.552 227.842 98.5359 227.83 98.5222Z" fill="#464A5F"/>
<path d="M225.937 99.7693L225.071 98.5934C225.061 98.5802 225.049 98.569 225.035 98.5603C225.021 98.5515 225.006 98.5455 224.989 98.5426C224.973 98.5397 224.956 98.5398 224.94 98.5431C224.923 98.5464 224.908 98.5528 224.894 98.5618L223.626 99.3765C223.599 99.3942 223.58 99.4215 223.573 99.4525C223.566 99.4836 223.573 99.5159 223.59 99.5426L224.385 100.705C224.394 100.719 224.405 100.731 224.419 100.74C224.433 100.749 224.449 100.756 224.465 100.759C224.482 100.762 224.499 100.763 224.515 100.76C224.532 100.757 224.548 100.751 224.562 100.742L225.898 99.9512C225.915 99.9431 225.929 99.9315 225.941 99.9173C225.952 99.9031 225.96 99.8867 225.964 99.8692C225.967 99.8517 225.967 99.8336 225.962 99.8163C225.958 99.7991 225.949 99.783 225.937 99.7693Z" fill="#464A5F"/>
<path d="M228.907 92.3L228.09 91.19C228.064 91.1556 228.025 91.1322 227.981 91.1248C227.937 91.1174 227.892 91.1266 227.855 91.1504L226.651 91.9177C226.614 91.9418 226.589 91.9787 226.58 92.0206C226.571 92.0625 226.58 92.106 226.604 92.1418L227.352 93.2386C227.376 93.2743 227.415 93.2993 227.459 93.3081C227.503 93.317 227.549 93.3091 227.587 93.286L228.849 92.5293C228.869 92.5185 228.887 92.5038 228.901 92.4862C228.915 92.4685 228.925 92.4483 228.93 92.4268C228.936 92.4052 228.936 92.3828 228.932 92.361C228.928 92.3392 228.92 92.3184 228.907 92.3Z" fill="#464A5F"/>
<path d="M227.014 93.5471L226.198 92.4397C226.185 92.4222 226.169 92.4072 226.15 92.3956C226.132 92.384 226.111 92.376 226.089 92.372C226.067 92.3681 226.045 92.3684 226.023 92.3727C226.001 92.3771 225.981 92.3855 225.962 92.3975L224.767 93.1674C224.73 93.191 224.705 93.2275 224.696 93.2689C224.687 93.3104 224.696 93.3535 224.72 93.3889L225.467 94.4857C225.492 94.5213 225.53 94.5464 225.574 94.5557C225.618 94.565 225.664 94.5579 225.702 94.5358L226.967 93.7791C226.986 93.7669 227.002 93.7512 227.015 93.7329C227.028 93.7146 227.037 93.694 227.041 93.6724C227.046 93.6509 227.045 93.6287 227.041 93.6071C227.036 93.5856 227.027 93.5652 227.014 93.5471Z" fill="#464A5F"/>
<path d="M225.121 94.7968L224.291 93.6868C224.265 93.6525 224.226 93.6292 224.183 93.6218C224.139 93.6144 224.095 93.6236 224.058 93.6472L222.86 94.4145C222.823 94.4385 222.797 94.4755 222.788 94.5174C222.78 94.5593 222.788 94.6028 222.813 94.6386L223.56 95.7354C223.585 95.7711 223.623 95.796 223.667 95.8049C223.711 95.8138 223.757 95.8059 223.795 95.7828L225.06 95.0261C225.08 95.0155 225.098 95.001 225.113 94.9835C225.127 94.9659 225.137 94.9457 225.143 94.9242C225.149 94.9026 225.15 94.8802 225.146 94.8582C225.142 94.8363 225.133 94.8154 225.121 94.7968Z" fill="#464A5F"/>
<path d="M223.256 96.0808L222.39 94.9022C222.37 94.8766 222.341 94.8593 222.308 94.8539C222.275 94.8485 222.241 94.8554 222.213 94.8732L220.946 95.6853C220.918 95.7039 220.9 95.7318 220.893 95.7633C220.887 95.7947 220.894 95.8273 220.912 95.854L221.707 97.0167C221.725 97.0435 221.753 97.0623 221.786 97.0692C221.818 97.0761 221.853 97.0705 221.881 97.0537L223.22 96.2627C223.236 96.254 223.25 96.2421 223.261 96.2277C223.272 96.2134 223.279 96.197 223.282 96.1797C223.286 96.1624 223.285 96.1445 223.281 96.1275C223.276 96.1104 223.268 96.0944 223.256 96.0808Z" fill="#464A5F"/>
<path d="M245.653 83.9184L244.914 82.9007C244.872 82.8461 244.809 82.809 244.739 82.7972C244.669 82.7854 244.597 82.7998 244.538 82.8374L241.594 84.7911C241.537 84.8303 241.498 84.8887 241.485 84.9542C241.471 85.0198 241.484 85.0878 241.522 85.1444L242.23 86.1832C242.25 86.212 242.276 86.2366 242.307 86.2558C242.337 86.2749 242.371 86.2882 242.407 86.2948C242.443 86.3014 242.479 86.3013 242.515 86.2943C242.551 86.2874 242.585 86.2738 242.615 86.2544L245.584 84.2743C245.641 84.2346 245.68 84.1756 245.693 84.1095C245.706 84.0433 245.691 83.9749 245.653 83.9184Z" fill="#464A5F"/>
<path d="M226.527 96.6977L225.608 95.4612C225.599 95.4479 225.587 95.4366 225.573 95.428C225.558 95.4193 225.543 95.4134 225.526 95.4107C225.51 95.408 225.493 95.4085 225.476 95.4122C225.46 95.4159 225.445 95.4227 225.431 95.4322L222.271 97.5414C222.244 97.5595 222.225 97.587 222.219 97.618C222.213 97.6491 222.22 97.6812 222.238 97.7075L223.104 98.9783C223.113 98.9921 223.125 99.0039 223.139 99.0131C223.153 99.0223 223.169 99.0287 223.186 99.0319C223.203 99.0351 223.22 99.0351 223.237 99.0317C223.254 99.0284 223.27 99.0219 223.284 99.0126L226.496 96.8691C226.524 96.85 226.543 96.8214 226.549 96.7893C226.554 96.7573 226.546 96.7244 226.527 96.6977Z" fill="#464A5F"/>
<path d="M236.58 87.2405L235.75 86.0672C235.731 86.0407 235.702 86.0224 235.669 86.016C235.636 86.0096 235.601 86.0157 235.573 86.0329L228.558 90.5414C228.544 90.5499 228.532 90.5611 228.523 90.5741C228.513 90.5871 228.507 90.6018 228.504 90.6172C228.5 90.6327 228.5 90.6487 228.503 90.6642C228.507 90.6797 228.513 90.6944 228.522 90.7075L229.386 91.973C229.395 91.9868 229.407 91.9986 229.421 92.0078C229.435 92.017 229.451 92.0234 229.468 92.0266C229.485 92.0298 229.502 92.0298 229.519 92.0265C229.535 92.0231 229.551 92.0166 229.565 92.0073L236.561 87.4092C236.587 87.3891 236.603 87.3601 236.607 87.3286C236.61 87.2971 236.601 87.2654 236.58 87.2405Z" fill="#464A5F"/>
<path opacity="0.1" d="M236.613 83.2119L232.883 78.0469C232.779 77.9034 232.621 77.8045 232.441 77.7719C232.262 77.7393 232.077 77.7756 231.925 77.8729L221.651 84.4458C221.575 84.4945 221.51 84.557 221.46 84.6297C221.41 84.7023 221.375 84.7837 221.358 84.8692C221.34 84.9547 221.341 85.0425 221.36 85.1278C221.378 85.213 221.414 85.2939 221.465 85.3659L225.267 90.6785C225.319 90.7507 225.384 90.8125 225.46 90.8604C225.537 90.9082 225.622 90.9412 225.712 90.9574C225.802 90.9735 225.894 90.9726 225.984 90.9546C226.073 90.9366 226.158 90.9019 226.233 90.8525L236.436 84.1267C236.51 84.0779 236.574 84.0154 236.624 83.9429C236.673 83.8704 236.707 83.7893 236.724 83.7043C236.74 83.6193 236.739 83.5321 236.72 83.4476C236.701 83.363 236.664 83.283 236.613 83.2119Z" fill="black"/>
<path d="M236.784 83.2434L233.054 78.0785C232.951 77.9355 232.792 77.8371 232.613 77.8046C232.434 77.772 232.248 77.8079 232.097 77.9045L221.836 84.4826C221.76 84.5309 221.695 84.5932 221.644 84.6657C221.593 84.7383 221.558 84.8197 221.541 84.9053C221.523 84.9909 221.524 85.0789 221.542 85.1643C221.561 85.2497 221.597 85.3307 221.648 85.4028L225.439 90.7101C225.49 90.7823 225.556 90.8441 225.632 90.892C225.709 90.9398 225.794 90.9728 225.884 90.989C225.974 91.0051 226.066 91.0042 226.155 90.9862C226.245 90.9682 226.33 90.9335 226.405 90.8841L236.613 84.1583C236.687 84.109 236.751 84.0463 236.8 83.9736C236.848 83.9009 236.882 83.8198 236.898 83.7348C236.914 83.6498 236.912 83.5627 236.892 83.4784C236.873 83.3941 236.836 83.3142 236.784 83.2434Z" fill="#939498"/>
<path d="M259.915 91.5908L252.001 89.0755L226.618 105.876L234.474 108.314C234.686 108.38 234.911 108.398 235.131 108.367C235.352 108.336 235.562 108.257 235.744 108.135L259.987 92.0732C260.034 92.0467 260.072 92.0075 260.096 91.9604C260.12 91.9134 260.128 91.8607 260.12 91.8091C260.113 91.7574 260.089 91.7091 260.053 91.6702C260.016 91.6314 259.968 91.6037 259.915 91.5908Z" fill="#124612"/>
</g>
<defs>
<clipPath id="clip0">
<rect width="300" height="200" fill="white"/>
</clipPath>
</defs>
</svg>
