<svg width="1778" height="271" viewBox="0 0 1778 271" fill="none" xmlns="http://www.w3.org/2000/svg">
<path d="M0.000244141 96.7193V0H898.579H1778C1778 0 1731.03 40.6512 1472.71 122.284C1214.38 203.917 928.861 305.923 577.835 152.962C226.808 0 0.000244141 96.7193 0.000244141 96.7193Z" fill="#79B178"/>
<path d="M1778 0L0.000391971 0L0.000391971 70.9585C5.93531e-05 70.9867 0.000391971 71.0012 0.000391971 71.0012L0.000391971 70.9585C0.0219109 69.1357 2.8278 9.93391 278.624 98.5C558.682 188.435 801.958 294.707 1119.44 242.5C1436.91 190.293 1725.79 17.7498 1725.79 17.7498L1778 0Z" fill="#79B178" fill-opacity="0.2"/>
<path d="M1778 -3.05176e-05L0 -3.05176e-05L0 106.5C0 106.5 51.2769 131.005 444.809 106.5C838.341 81.9955 900.804 321.291 1218.28 261C1535.76 200.709 1778 -3.05176e-05 1778 -3.05176e-05Z" fill="#79B178" fill-opacity="0.2"/>
</svg>
