<svg width="1440" height="347" viewBox="0 0 1440 347" fill="none" xmlns="http://www.w3.org/2000/svg">
<path d="M1440 324H0.00471523V203.613C0.00471523 203.613 -4.05423 169.015 226.004 42.4397C456.063 -84.1358 767.868 132.112 1024.99 254.669C1282.12 377.226 1440 203.613 1440 203.613V324Z" fill="#79B178" fill-opacity="0.3"/>
<path d="M1440 347H0.00471523V246.107C0.00471523 246.107 -4.05423 221.302 226.004 130.558C456.063 39.8138 767.868 194.846 1024.99 282.71C1282.12 370.573 1440 187.051 1440 187.051V347Z" fill="#79B178"/>
<path d="M0 324H1440L1440 198.778C1440 198.778 1426.01 179.003 1187.5 42.3703C949.004 -94.262 672.134 132.715 415.009 254.887C157.884 377.059 0 254.887 0 254.887V324Z" fill="#79B178" fill-opacity="0.2"/>
</svg>
